%TF.GenerationSoftware,KiCad,Pcbnew,9.0.7-9.0.7~ubuntu24.04.1*%
%TF.CreationDate,2026-01-08T19:40:22+01:00*%
%TF.ProjectId,control_board,636f6e74-726f-46c5-9f62-6f6172642e6b,rev?*%
%TF.SameCoordinates,Original*%
%TF.FileFunction,Legend,Bot*%
%TF.FilePolarity,Positive*%
%FSLAX46Y46*%
G04 Gerber Fmt 4.6, Leading zero omitted, Abs format (unit mm)*
G04 Created by KiCad (PCBNEW 9.0.7-9.0.7~ubuntu24.04.1) date 2026-01-08 19:40:22*
%MOMM*%
%LPD*%
G01*
G04 APERTURE LIST*
%ADD10C,0.150000*%
%ADD11C,0.120000*%
G04 APERTURE END LIST*
D10*
X209213220Y-212886043D02*
X209213220Y-211886043D01*
X209213220Y-211886043D02*
X208832268Y-211886043D01*
X208832268Y-211886043D02*
X208737030Y-211933662D01*
X208737030Y-211933662D02*
X208689411Y-211981281D01*
X208689411Y-211981281D02*
X208641792Y-212076519D01*
X208641792Y-212076519D02*
X208641792Y-212219376D01*
X208641792Y-212219376D02*
X208689411Y-212314614D01*
X208689411Y-212314614D02*
X208737030Y-212362233D01*
X208737030Y-212362233D02*
X208832268Y-212409852D01*
X208832268Y-212409852D02*
X209213220Y-212409852D01*
X208260839Y-212838424D02*
X208165601Y-212886043D01*
X208165601Y-212886043D02*
X207975125Y-212886043D01*
X207975125Y-212886043D02*
X207879887Y-212838424D01*
X207879887Y-212838424D02*
X207832268Y-212743185D01*
X207832268Y-212743185D02*
X207832268Y-212695566D01*
X207832268Y-212695566D02*
X207879887Y-212600328D01*
X207879887Y-212600328D02*
X207975125Y-212552709D01*
X207975125Y-212552709D02*
X208117982Y-212552709D01*
X208117982Y-212552709D02*
X208213220Y-212505090D01*
X208213220Y-212505090D02*
X208260839Y-212409852D01*
X208260839Y-212409852D02*
X208260839Y-212362233D01*
X208260839Y-212362233D02*
X208213220Y-212266995D01*
X208213220Y-212266995D02*
X208117982Y-212219376D01*
X208117982Y-212219376D02*
X207975125Y-212219376D01*
X207975125Y-212219376D02*
X207879887Y-212266995D01*
X206975125Y-212219376D02*
X206975125Y-212886043D01*
X207403696Y-212219376D02*
X207403696Y-212743185D01*
X207403696Y-212743185D02*
X207356077Y-212838424D01*
X207356077Y-212838424D02*
X207260839Y-212886043D01*
X207260839Y-212886043D02*
X207117982Y-212886043D01*
X207117982Y-212886043D02*
X207022744Y-212838424D01*
X207022744Y-212838424D02*
X206975125Y-212790804D01*
X205546553Y-211886043D02*
X205356077Y-211886043D01*
X205356077Y-211886043D02*
X205260839Y-211933662D01*
X205260839Y-211933662D02*
X205165601Y-212028900D01*
X205165601Y-212028900D02*
X205117982Y-212219376D01*
X205117982Y-212219376D02*
X205117982Y-212552709D01*
X205117982Y-212552709D02*
X205165601Y-212743185D01*
X205165601Y-212743185D02*
X205260839Y-212838424D01*
X205260839Y-212838424D02*
X205356077Y-212886043D01*
X205356077Y-212886043D02*
X205546553Y-212886043D01*
X205546553Y-212886043D02*
X205641791Y-212838424D01*
X205641791Y-212838424D02*
X205737029Y-212743185D01*
X205737029Y-212743185D02*
X205784648Y-212552709D01*
X205784648Y-212552709D02*
X205784648Y-212219376D01*
X205784648Y-212219376D02*
X205737029Y-212028900D01*
X205737029Y-212028900D02*
X205641791Y-211933662D01*
X205641791Y-211933662D02*
X205546553Y-211886043D01*
X204689410Y-212886043D02*
X204689410Y-211886043D01*
X204689410Y-211886043D02*
X204308458Y-211886043D01*
X204308458Y-211886043D02*
X204213220Y-211933662D01*
X204213220Y-211933662D02*
X204165601Y-211981281D01*
X204165601Y-211981281D02*
X204117982Y-212076519D01*
X204117982Y-212076519D02*
X204117982Y-212219376D01*
X204117982Y-212219376D02*
X204165601Y-212314614D01*
X204165601Y-212314614D02*
X204213220Y-212362233D01*
X204213220Y-212362233D02*
X204308458Y-212409852D01*
X204308458Y-212409852D02*
X204689410Y-212409852D01*
X203832267Y-211886043D02*
X203260839Y-211886043D01*
X203546553Y-212886043D02*
X203546553Y-211886043D01*
X202403696Y-212886043D02*
X202975124Y-212886043D01*
X202689410Y-212886043D02*
X202689410Y-211886043D01*
X202689410Y-211886043D02*
X202784648Y-212028900D01*
X202784648Y-212028900D02*
X202879886Y-212124138D01*
X202879886Y-212124138D02*
X202975124Y-212171757D01*
X201070362Y-212886043D02*
X201165600Y-212838424D01*
X201165600Y-212838424D02*
X201213219Y-212790804D01*
X201213219Y-212790804D02*
X201260838Y-212695566D01*
X201260838Y-212695566D02*
X201260838Y-212409852D01*
X201260838Y-212409852D02*
X201213219Y-212314614D01*
X201213219Y-212314614D02*
X201165600Y-212266995D01*
X201165600Y-212266995D02*
X201070362Y-212219376D01*
X201070362Y-212219376D02*
X200927505Y-212219376D01*
X200927505Y-212219376D02*
X200832267Y-212266995D01*
X200832267Y-212266995D02*
X200784648Y-212314614D01*
X200784648Y-212314614D02*
X200737029Y-212409852D01*
X200737029Y-212409852D02*
X200737029Y-212695566D01*
X200737029Y-212695566D02*
X200784648Y-212790804D01*
X200784648Y-212790804D02*
X200832267Y-212838424D01*
X200832267Y-212838424D02*
X200927505Y-212886043D01*
X200927505Y-212886043D02*
X201070362Y-212886043D01*
X200308457Y-212219376D02*
X200308457Y-212886043D01*
X200308457Y-212314614D02*
X200260838Y-212266995D01*
X200260838Y-212266995D02*
X200165600Y-212219376D01*
X200165600Y-212219376D02*
X200022743Y-212219376D01*
X200022743Y-212219376D02*
X199927505Y-212266995D01*
X199927505Y-212266995D02*
X199879886Y-212362233D01*
X199879886Y-212362233D02*
X199879886Y-212886043D01*
X199260838Y-212886043D02*
X199356076Y-212838424D01*
X199356076Y-212838424D02*
X199403695Y-212743185D01*
X199403695Y-212743185D02*
X199403695Y-211886043D01*
X198975123Y-212219376D02*
X198737028Y-212886043D01*
X198498933Y-212219376D02*
X198737028Y-212886043D01*
X198737028Y-212886043D02*
X198832266Y-213124138D01*
X198832266Y-213124138D02*
X198879885Y-213171757D01*
X198879885Y-213171757D02*
X198975123Y-213219376D01*
X196927504Y-212886043D02*
X196927504Y-211886043D01*
X196927504Y-212838424D02*
X197022742Y-212886043D01*
X197022742Y-212886043D02*
X197213218Y-212886043D01*
X197213218Y-212886043D02*
X197308456Y-212838424D01*
X197308456Y-212838424D02*
X197356075Y-212790804D01*
X197356075Y-212790804D02*
X197403694Y-212695566D01*
X197403694Y-212695566D02*
X197403694Y-212409852D01*
X197403694Y-212409852D02*
X197356075Y-212314614D01*
X197356075Y-212314614D02*
X197308456Y-212266995D01*
X197308456Y-212266995D02*
X197213218Y-212219376D01*
X197213218Y-212219376D02*
X197022742Y-212219376D01*
X197022742Y-212219376D02*
X196927504Y-212266995D01*
X196022742Y-212219376D02*
X196022742Y-212886043D01*
X196451313Y-212219376D02*
X196451313Y-212743185D01*
X196451313Y-212743185D02*
X196403694Y-212838424D01*
X196403694Y-212838424D02*
X196308456Y-212886043D01*
X196308456Y-212886043D02*
X196165599Y-212886043D01*
X196165599Y-212886043D02*
X196070361Y-212838424D01*
X196070361Y-212838424D02*
X196022742Y-212790804D01*
X195117980Y-212886043D02*
X195117980Y-212362233D01*
X195117980Y-212362233D02*
X195165599Y-212266995D01*
X195165599Y-212266995D02*
X195260837Y-212219376D01*
X195260837Y-212219376D02*
X195451313Y-212219376D01*
X195451313Y-212219376D02*
X195546551Y-212266995D01*
X195117980Y-212838424D02*
X195213218Y-212886043D01*
X195213218Y-212886043D02*
X195451313Y-212886043D01*
X195451313Y-212886043D02*
X195546551Y-212838424D01*
X195546551Y-212838424D02*
X195594170Y-212743185D01*
X195594170Y-212743185D02*
X195594170Y-212647947D01*
X195594170Y-212647947D02*
X195546551Y-212552709D01*
X195546551Y-212552709D02*
X195451313Y-212505090D01*
X195451313Y-212505090D02*
X195213218Y-212505090D01*
X195213218Y-212505090D02*
X195117980Y-212457471D01*
X194498932Y-212886043D02*
X194594170Y-212838424D01*
X194594170Y-212838424D02*
X194641789Y-212743185D01*
X194641789Y-212743185D02*
X194641789Y-211886043D01*
X193403693Y-212838424D02*
X193308455Y-212886043D01*
X193308455Y-212886043D02*
X193117979Y-212886043D01*
X193117979Y-212886043D02*
X193022741Y-212838424D01*
X193022741Y-212838424D02*
X192975122Y-212743185D01*
X192975122Y-212743185D02*
X192975122Y-212695566D01*
X192975122Y-212695566D02*
X193022741Y-212600328D01*
X193022741Y-212600328D02*
X193117979Y-212552709D01*
X193117979Y-212552709D02*
X193260836Y-212552709D01*
X193260836Y-212552709D02*
X193356074Y-212505090D01*
X193356074Y-212505090D02*
X193403693Y-212409852D01*
X193403693Y-212409852D02*
X193403693Y-212362233D01*
X193403693Y-212362233D02*
X193356074Y-212266995D01*
X193356074Y-212266995D02*
X193260836Y-212219376D01*
X193260836Y-212219376D02*
X193117979Y-212219376D01*
X193117979Y-212219376D02*
X193022741Y-212266995D01*
X192165598Y-212838424D02*
X192260836Y-212886043D01*
X192260836Y-212886043D02*
X192451312Y-212886043D01*
X192451312Y-212886043D02*
X192546550Y-212838424D01*
X192546550Y-212838424D02*
X192594169Y-212743185D01*
X192594169Y-212743185D02*
X192594169Y-212362233D01*
X192594169Y-212362233D02*
X192546550Y-212266995D01*
X192546550Y-212266995D02*
X192451312Y-212219376D01*
X192451312Y-212219376D02*
X192260836Y-212219376D01*
X192260836Y-212219376D02*
X192165598Y-212266995D01*
X192165598Y-212266995D02*
X192117979Y-212362233D01*
X192117979Y-212362233D02*
X192117979Y-212457471D01*
X192117979Y-212457471D02*
X192594169Y-212552709D01*
X191260836Y-212838424D02*
X191356074Y-212886043D01*
X191356074Y-212886043D02*
X191546550Y-212886043D01*
X191546550Y-212886043D02*
X191641788Y-212838424D01*
X191641788Y-212838424D02*
X191689407Y-212790804D01*
X191689407Y-212790804D02*
X191737026Y-212695566D01*
X191737026Y-212695566D02*
X191737026Y-212409852D01*
X191737026Y-212409852D02*
X191689407Y-212314614D01*
X191689407Y-212314614D02*
X191641788Y-212266995D01*
X191641788Y-212266995D02*
X191546550Y-212219376D01*
X191546550Y-212219376D02*
X191356074Y-212219376D01*
X191356074Y-212219376D02*
X191260836Y-212266995D01*
X190689407Y-212886043D02*
X190784645Y-212838424D01*
X190784645Y-212838424D02*
X190832264Y-212790804D01*
X190832264Y-212790804D02*
X190879883Y-212695566D01*
X190879883Y-212695566D02*
X190879883Y-212409852D01*
X190879883Y-212409852D02*
X190832264Y-212314614D01*
X190832264Y-212314614D02*
X190784645Y-212266995D01*
X190784645Y-212266995D02*
X190689407Y-212219376D01*
X190689407Y-212219376D02*
X190546550Y-212219376D01*
X190546550Y-212219376D02*
X190451312Y-212266995D01*
X190451312Y-212266995D02*
X190403693Y-212314614D01*
X190403693Y-212314614D02*
X190356074Y-212409852D01*
X190356074Y-212409852D02*
X190356074Y-212695566D01*
X190356074Y-212695566D02*
X190403693Y-212790804D01*
X190403693Y-212790804D02*
X190451312Y-212838424D01*
X190451312Y-212838424D02*
X190546550Y-212886043D01*
X190546550Y-212886043D02*
X190689407Y-212886043D01*
X189927502Y-212219376D02*
X189927502Y-212886043D01*
X189927502Y-212314614D02*
X189879883Y-212266995D01*
X189879883Y-212266995D02*
X189784645Y-212219376D01*
X189784645Y-212219376D02*
X189641788Y-212219376D01*
X189641788Y-212219376D02*
X189546550Y-212266995D01*
X189546550Y-212266995D02*
X189498931Y-212362233D01*
X189498931Y-212362233D02*
X189498931Y-212886043D01*
X188594169Y-212886043D02*
X188594169Y-211886043D01*
X188594169Y-212838424D02*
X188689407Y-212886043D01*
X188689407Y-212886043D02*
X188879883Y-212886043D01*
X188879883Y-212886043D02*
X188975121Y-212838424D01*
X188975121Y-212838424D02*
X189022740Y-212790804D01*
X189022740Y-212790804D02*
X189070359Y-212695566D01*
X189070359Y-212695566D02*
X189070359Y-212409852D01*
X189070359Y-212409852D02*
X189022740Y-212314614D01*
X189022740Y-212314614D02*
X188975121Y-212266995D01*
X188975121Y-212266995D02*
X188879883Y-212219376D01*
X188879883Y-212219376D02*
X188689407Y-212219376D01*
X188689407Y-212219376D02*
X188594169Y-212266995D01*
X187689407Y-212886043D02*
X187689407Y-212362233D01*
X187689407Y-212362233D02*
X187737026Y-212266995D01*
X187737026Y-212266995D02*
X187832264Y-212219376D01*
X187832264Y-212219376D02*
X188022740Y-212219376D01*
X188022740Y-212219376D02*
X188117978Y-212266995D01*
X187689407Y-212838424D02*
X187784645Y-212886043D01*
X187784645Y-212886043D02*
X188022740Y-212886043D01*
X188022740Y-212886043D02*
X188117978Y-212838424D01*
X188117978Y-212838424D02*
X188165597Y-212743185D01*
X188165597Y-212743185D02*
X188165597Y-212647947D01*
X188165597Y-212647947D02*
X188117978Y-212552709D01*
X188117978Y-212552709D02*
X188022740Y-212505090D01*
X188022740Y-212505090D02*
X187784645Y-212505090D01*
X187784645Y-212505090D02*
X187689407Y-212457471D01*
X187213216Y-212886043D02*
X187213216Y-212219376D01*
X187213216Y-212409852D02*
X187165597Y-212314614D01*
X187165597Y-212314614D02*
X187117978Y-212266995D01*
X187117978Y-212266995D02*
X187022740Y-212219376D01*
X187022740Y-212219376D02*
X186927502Y-212219376D01*
X186594168Y-212886043D02*
X186594168Y-212219376D01*
X186594168Y-211886043D02*
X186641787Y-211933662D01*
X186641787Y-211933662D02*
X186594168Y-211981281D01*
X186594168Y-211981281D02*
X186546549Y-211933662D01*
X186546549Y-211933662D02*
X186594168Y-211886043D01*
X186594168Y-211886043D02*
X186594168Y-211981281D01*
X185737026Y-212838424D02*
X185832264Y-212886043D01*
X185832264Y-212886043D02*
X186022740Y-212886043D01*
X186022740Y-212886043D02*
X186117978Y-212838424D01*
X186117978Y-212838424D02*
X186165597Y-212743185D01*
X186165597Y-212743185D02*
X186165597Y-212362233D01*
X186165597Y-212362233D02*
X186117978Y-212266995D01*
X186117978Y-212266995D02*
X186022740Y-212219376D01*
X186022740Y-212219376D02*
X185832264Y-212219376D01*
X185832264Y-212219376D02*
X185737026Y-212266995D01*
X185737026Y-212266995D02*
X185689407Y-212362233D01*
X185689407Y-212362233D02*
X185689407Y-212457471D01*
X185689407Y-212457471D02*
X186165597Y-212552709D01*
X185308454Y-212838424D02*
X185213216Y-212886043D01*
X185213216Y-212886043D02*
X185022740Y-212886043D01*
X185022740Y-212886043D02*
X184927502Y-212838424D01*
X184927502Y-212838424D02*
X184879883Y-212743185D01*
X184879883Y-212743185D02*
X184879883Y-212695566D01*
X184879883Y-212695566D02*
X184927502Y-212600328D01*
X184927502Y-212600328D02*
X185022740Y-212552709D01*
X185022740Y-212552709D02*
X185165597Y-212552709D01*
X185165597Y-212552709D02*
X185260835Y-212505090D01*
X185260835Y-212505090D02*
X185308454Y-212409852D01*
X185308454Y-212409852D02*
X185308454Y-212362233D01*
X185308454Y-212362233D02*
X185260835Y-212266995D01*
X185260835Y-212266995D02*
X185165597Y-212219376D01*
X185165597Y-212219376D02*
X185022740Y-212219376D01*
X185022740Y-212219376D02*
X184927502Y-212266995D01*
X184451311Y-212790804D02*
X184403692Y-212838424D01*
X184403692Y-212838424D02*
X184451311Y-212886043D01*
X184451311Y-212886043D02*
X184498930Y-212838424D01*
X184498930Y-212838424D02*
X184451311Y-212790804D01*
X184451311Y-212790804D02*
X184451311Y-212886043D01*
X184451311Y-212266995D02*
X184403692Y-212314614D01*
X184403692Y-212314614D02*
X184451311Y-212362233D01*
X184451311Y-212362233D02*
X184498930Y-212314614D01*
X184498930Y-212314614D02*
X184451311Y-212266995D01*
X184451311Y-212266995D02*
X184451311Y-212362233D01*
X204689411Y-214115034D02*
X203927507Y-214115034D01*
X202403697Y-213495987D02*
X202403697Y-214210272D01*
X202403697Y-214210272D02*
X202451316Y-214353129D01*
X202451316Y-214353129D02*
X202546554Y-214448368D01*
X202546554Y-214448368D02*
X202689411Y-214495987D01*
X202689411Y-214495987D02*
X202784649Y-214495987D01*
X201927506Y-214495987D02*
X201927506Y-213495987D01*
X201927506Y-213495987D02*
X201546554Y-213495987D01*
X201546554Y-213495987D02*
X201451316Y-213543606D01*
X201451316Y-213543606D02*
X201403697Y-213591225D01*
X201403697Y-213591225D02*
X201356078Y-213686463D01*
X201356078Y-213686463D02*
X201356078Y-213829320D01*
X201356078Y-213829320D02*
X201403697Y-213924558D01*
X201403697Y-213924558D02*
X201451316Y-213972177D01*
X201451316Y-213972177D02*
X201546554Y-214019796D01*
X201546554Y-214019796D02*
X201927506Y-214019796D01*
X200498935Y-213829320D02*
X200498935Y-214495987D01*
X200737030Y-213448368D02*
X200975125Y-214162653D01*
X200975125Y-214162653D02*
X200356078Y-214162653D01*
X199260839Y-214448368D02*
X199117982Y-214495987D01*
X199117982Y-214495987D02*
X198879887Y-214495987D01*
X198879887Y-214495987D02*
X198784649Y-214448368D01*
X198784649Y-214448368D02*
X198737030Y-214400748D01*
X198737030Y-214400748D02*
X198689411Y-214305510D01*
X198689411Y-214305510D02*
X198689411Y-214210272D01*
X198689411Y-214210272D02*
X198737030Y-214115034D01*
X198737030Y-214115034D02*
X198784649Y-214067415D01*
X198784649Y-214067415D02*
X198879887Y-214019796D01*
X198879887Y-214019796D02*
X199070363Y-213972177D01*
X199070363Y-213972177D02*
X199165601Y-213924558D01*
X199165601Y-213924558D02*
X199213220Y-213876939D01*
X199213220Y-213876939D02*
X199260839Y-213781701D01*
X199260839Y-213781701D02*
X199260839Y-213686463D01*
X199260839Y-213686463D02*
X199213220Y-213591225D01*
X199213220Y-213591225D02*
X199165601Y-213543606D01*
X199165601Y-213543606D02*
X199070363Y-213495987D01*
X199070363Y-213495987D02*
X198832268Y-213495987D01*
X198832268Y-213495987D02*
X198689411Y-213543606D01*
X198260839Y-214495987D02*
X198260839Y-213495987D01*
X197832268Y-214495987D02*
X197832268Y-213972177D01*
X197832268Y-213972177D02*
X197879887Y-213876939D01*
X197879887Y-213876939D02*
X197975125Y-213829320D01*
X197975125Y-213829320D02*
X198117982Y-213829320D01*
X198117982Y-213829320D02*
X198213220Y-213876939D01*
X198213220Y-213876939D02*
X198260839Y-213924558D01*
X197213220Y-214495987D02*
X197308458Y-214448368D01*
X197308458Y-214448368D02*
X197356077Y-214400748D01*
X197356077Y-214400748D02*
X197403696Y-214305510D01*
X197403696Y-214305510D02*
X197403696Y-214019796D01*
X197403696Y-214019796D02*
X197356077Y-213924558D01*
X197356077Y-213924558D02*
X197308458Y-213876939D01*
X197308458Y-213876939D02*
X197213220Y-213829320D01*
X197213220Y-213829320D02*
X197070363Y-213829320D01*
X197070363Y-213829320D02*
X196975125Y-213876939D01*
X196975125Y-213876939D02*
X196927506Y-213924558D01*
X196927506Y-213924558D02*
X196879887Y-214019796D01*
X196879887Y-214019796D02*
X196879887Y-214305510D01*
X196879887Y-214305510D02*
X196927506Y-214400748D01*
X196927506Y-214400748D02*
X196975125Y-214448368D01*
X196975125Y-214448368D02*
X197070363Y-214495987D01*
X197070363Y-214495987D02*
X197213220Y-214495987D01*
X196451315Y-214495987D02*
X196451315Y-213829320D01*
X196451315Y-214019796D02*
X196403696Y-213924558D01*
X196403696Y-213924558D02*
X196356077Y-213876939D01*
X196356077Y-213876939D02*
X196260839Y-213829320D01*
X196260839Y-213829320D02*
X196165601Y-213829320D01*
X195975124Y-213829320D02*
X195594172Y-213829320D01*
X195832267Y-213495987D02*
X195832267Y-214353129D01*
X195832267Y-214353129D02*
X195784648Y-214448368D01*
X195784648Y-214448368D02*
X195689410Y-214495987D01*
X195689410Y-214495987D02*
X195594172Y-214495987D01*
X193975124Y-214495987D02*
X194546552Y-214495987D01*
X194260838Y-214495987D02*
X194260838Y-213495987D01*
X194260838Y-213495987D02*
X194356076Y-213638844D01*
X194356076Y-213638844D02*
X194451314Y-213734082D01*
X194451314Y-213734082D02*
X194546552Y-213781701D01*
X193546552Y-214115034D02*
X192784648Y-214115034D01*
X192356076Y-213591225D02*
X192308457Y-213543606D01*
X192308457Y-213543606D02*
X192213219Y-213495987D01*
X192213219Y-213495987D02*
X191975124Y-213495987D01*
X191975124Y-213495987D02*
X191879886Y-213543606D01*
X191879886Y-213543606D02*
X191832267Y-213591225D01*
X191832267Y-213591225D02*
X191784648Y-213686463D01*
X191784648Y-213686463D02*
X191784648Y-213781701D01*
X191784648Y-213781701D02*
X191832267Y-213924558D01*
X191832267Y-213924558D02*
X192403695Y-214495987D01*
X192403695Y-214495987D02*
X191784648Y-214495987D01*
X191356076Y-214115034D02*
X190594172Y-214115034D01*
X190213219Y-213495987D02*
X189594172Y-213495987D01*
X189594172Y-213495987D02*
X189927505Y-213876939D01*
X189927505Y-213876939D02*
X189784648Y-213876939D01*
X189784648Y-213876939D02*
X189689410Y-213924558D01*
X189689410Y-213924558D02*
X189641791Y-213972177D01*
X189641791Y-213972177D02*
X189594172Y-214067415D01*
X189594172Y-214067415D02*
X189594172Y-214305510D01*
X189594172Y-214305510D02*
X189641791Y-214400748D01*
X189641791Y-214400748D02*
X189689410Y-214448368D01*
X189689410Y-214448368D02*
X189784648Y-214495987D01*
X189784648Y-214495987D02*
X190070362Y-214495987D01*
X190070362Y-214495987D02*
X190165600Y-214448368D01*
X190165600Y-214448368D02*
X190213219Y-214400748D01*
X209213220Y-217715875D02*
X209213220Y-216715875D01*
X209213220Y-216715875D02*
X208832268Y-216715875D01*
X208832268Y-216715875D02*
X208737030Y-216763494D01*
X208737030Y-216763494D02*
X208689411Y-216811113D01*
X208689411Y-216811113D02*
X208641792Y-216906351D01*
X208641792Y-216906351D02*
X208641792Y-217049208D01*
X208641792Y-217049208D02*
X208689411Y-217144446D01*
X208689411Y-217144446D02*
X208737030Y-217192065D01*
X208737030Y-217192065D02*
X208832268Y-217239684D01*
X208832268Y-217239684D02*
X209213220Y-217239684D01*
X208260839Y-217668256D02*
X208165601Y-217715875D01*
X208165601Y-217715875D02*
X207975125Y-217715875D01*
X207975125Y-217715875D02*
X207879887Y-217668256D01*
X207879887Y-217668256D02*
X207832268Y-217573017D01*
X207832268Y-217573017D02*
X207832268Y-217525398D01*
X207832268Y-217525398D02*
X207879887Y-217430160D01*
X207879887Y-217430160D02*
X207975125Y-217382541D01*
X207975125Y-217382541D02*
X208117982Y-217382541D01*
X208117982Y-217382541D02*
X208213220Y-217334922D01*
X208213220Y-217334922D02*
X208260839Y-217239684D01*
X208260839Y-217239684D02*
X208260839Y-217192065D01*
X208260839Y-217192065D02*
X208213220Y-217096827D01*
X208213220Y-217096827D02*
X208117982Y-217049208D01*
X208117982Y-217049208D02*
X207975125Y-217049208D01*
X207975125Y-217049208D02*
X207879887Y-217096827D01*
X206975125Y-217049208D02*
X206975125Y-217715875D01*
X207403696Y-217049208D02*
X207403696Y-217573017D01*
X207403696Y-217573017D02*
X207356077Y-217668256D01*
X207356077Y-217668256D02*
X207260839Y-217715875D01*
X207260839Y-217715875D02*
X207117982Y-217715875D01*
X207117982Y-217715875D02*
X207022744Y-217668256D01*
X207022744Y-217668256D02*
X206975125Y-217620636D01*
X205546553Y-216715875D02*
X205356077Y-216715875D01*
X205356077Y-216715875D02*
X205260839Y-216763494D01*
X205260839Y-216763494D02*
X205165601Y-216858732D01*
X205165601Y-216858732D02*
X205117982Y-217049208D01*
X205117982Y-217049208D02*
X205117982Y-217382541D01*
X205117982Y-217382541D02*
X205165601Y-217573017D01*
X205165601Y-217573017D02*
X205260839Y-217668256D01*
X205260839Y-217668256D02*
X205356077Y-217715875D01*
X205356077Y-217715875D02*
X205546553Y-217715875D01*
X205546553Y-217715875D02*
X205641791Y-217668256D01*
X205641791Y-217668256D02*
X205737029Y-217573017D01*
X205737029Y-217573017D02*
X205784648Y-217382541D01*
X205784648Y-217382541D02*
X205784648Y-217049208D01*
X205784648Y-217049208D02*
X205737029Y-216858732D01*
X205737029Y-216858732D02*
X205641791Y-216763494D01*
X205641791Y-216763494D02*
X205546553Y-216715875D01*
X204689410Y-217715875D02*
X204689410Y-216715875D01*
X204689410Y-216715875D02*
X204308458Y-216715875D01*
X204308458Y-216715875D02*
X204213220Y-216763494D01*
X204213220Y-216763494D02*
X204165601Y-216811113D01*
X204165601Y-216811113D02*
X204117982Y-216906351D01*
X204117982Y-216906351D02*
X204117982Y-217049208D01*
X204117982Y-217049208D02*
X204165601Y-217144446D01*
X204165601Y-217144446D02*
X204213220Y-217192065D01*
X204213220Y-217192065D02*
X204308458Y-217239684D01*
X204308458Y-217239684D02*
X204689410Y-217239684D01*
X203832267Y-216715875D02*
X203260839Y-216715875D01*
X203546553Y-217715875D02*
X203546553Y-216715875D01*
X202975124Y-216811113D02*
X202927505Y-216763494D01*
X202927505Y-216763494D02*
X202832267Y-216715875D01*
X202832267Y-216715875D02*
X202594172Y-216715875D01*
X202594172Y-216715875D02*
X202498934Y-216763494D01*
X202498934Y-216763494D02*
X202451315Y-216811113D01*
X202451315Y-216811113D02*
X202403696Y-216906351D01*
X202403696Y-216906351D02*
X202403696Y-217001589D01*
X202403696Y-217001589D02*
X202451315Y-217144446D01*
X202451315Y-217144446D02*
X203022743Y-217715875D01*
X203022743Y-217715875D02*
X202403696Y-217715875D01*
X200784648Y-217715875D02*
X200784648Y-216715875D01*
X200784648Y-217668256D02*
X200879886Y-217715875D01*
X200879886Y-217715875D02*
X201070362Y-217715875D01*
X201070362Y-217715875D02*
X201165600Y-217668256D01*
X201165600Y-217668256D02*
X201213219Y-217620636D01*
X201213219Y-217620636D02*
X201260838Y-217525398D01*
X201260838Y-217525398D02*
X201260838Y-217239684D01*
X201260838Y-217239684D02*
X201213219Y-217144446D01*
X201213219Y-217144446D02*
X201165600Y-217096827D01*
X201165600Y-217096827D02*
X201070362Y-217049208D01*
X201070362Y-217049208D02*
X200879886Y-217049208D01*
X200879886Y-217049208D02*
X200784648Y-217096827D01*
X199879886Y-217049208D02*
X199879886Y-217715875D01*
X200308457Y-217049208D02*
X200308457Y-217573017D01*
X200308457Y-217573017D02*
X200260838Y-217668256D01*
X200260838Y-217668256D02*
X200165600Y-217715875D01*
X200165600Y-217715875D02*
X200022743Y-217715875D01*
X200022743Y-217715875D02*
X199927505Y-217668256D01*
X199927505Y-217668256D02*
X199879886Y-217620636D01*
X198975124Y-217715875D02*
X198975124Y-217192065D01*
X198975124Y-217192065D02*
X199022743Y-217096827D01*
X199022743Y-217096827D02*
X199117981Y-217049208D01*
X199117981Y-217049208D02*
X199308457Y-217049208D01*
X199308457Y-217049208D02*
X199403695Y-217096827D01*
X198975124Y-217668256D02*
X199070362Y-217715875D01*
X199070362Y-217715875D02*
X199308457Y-217715875D01*
X199308457Y-217715875D02*
X199403695Y-217668256D01*
X199403695Y-217668256D02*
X199451314Y-217573017D01*
X199451314Y-217573017D02*
X199451314Y-217477779D01*
X199451314Y-217477779D02*
X199403695Y-217382541D01*
X199403695Y-217382541D02*
X199308457Y-217334922D01*
X199308457Y-217334922D02*
X199070362Y-217334922D01*
X199070362Y-217334922D02*
X198975124Y-217287303D01*
X198356076Y-217715875D02*
X198451314Y-217668256D01*
X198451314Y-217668256D02*
X198498933Y-217573017D01*
X198498933Y-217573017D02*
X198498933Y-216715875D01*
X197260837Y-217668256D02*
X197165599Y-217715875D01*
X197165599Y-217715875D02*
X196975123Y-217715875D01*
X196975123Y-217715875D02*
X196879885Y-217668256D01*
X196879885Y-217668256D02*
X196832266Y-217573017D01*
X196832266Y-217573017D02*
X196832266Y-217525398D01*
X196832266Y-217525398D02*
X196879885Y-217430160D01*
X196879885Y-217430160D02*
X196975123Y-217382541D01*
X196975123Y-217382541D02*
X197117980Y-217382541D01*
X197117980Y-217382541D02*
X197213218Y-217334922D01*
X197213218Y-217334922D02*
X197260837Y-217239684D01*
X197260837Y-217239684D02*
X197260837Y-217192065D01*
X197260837Y-217192065D02*
X197213218Y-217096827D01*
X197213218Y-217096827D02*
X197117980Y-217049208D01*
X197117980Y-217049208D02*
X196975123Y-217049208D01*
X196975123Y-217049208D02*
X196879885Y-217096827D01*
X196022742Y-217668256D02*
X196117980Y-217715875D01*
X196117980Y-217715875D02*
X196308456Y-217715875D01*
X196308456Y-217715875D02*
X196403694Y-217668256D01*
X196403694Y-217668256D02*
X196451313Y-217573017D01*
X196451313Y-217573017D02*
X196451313Y-217192065D01*
X196451313Y-217192065D02*
X196403694Y-217096827D01*
X196403694Y-217096827D02*
X196308456Y-217049208D01*
X196308456Y-217049208D02*
X196117980Y-217049208D01*
X196117980Y-217049208D02*
X196022742Y-217096827D01*
X196022742Y-217096827D02*
X195975123Y-217192065D01*
X195975123Y-217192065D02*
X195975123Y-217287303D01*
X195975123Y-217287303D02*
X196451313Y-217382541D01*
X195117980Y-217668256D02*
X195213218Y-217715875D01*
X195213218Y-217715875D02*
X195403694Y-217715875D01*
X195403694Y-217715875D02*
X195498932Y-217668256D01*
X195498932Y-217668256D02*
X195546551Y-217620636D01*
X195546551Y-217620636D02*
X195594170Y-217525398D01*
X195594170Y-217525398D02*
X195594170Y-217239684D01*
X195594170Y-217239684D02*
X195546551Y-217144446D01*
X195546551Y-217144446D02*
X195498932Y-217096827D01*
X195498932Y-217096827D02*
X195403694Y-217049208D01*
X195403694Y-217049208D02*
X195213218Y-217049208D01*
X195213218Y-217049208D02*
X195117980Y-217096827D01*
X194546551Y-217715875D02*
X194641789Y-217668256D01*
X194641789Y-217668256D02*
X194689408Y-217620636D01*
X194689408Y-217620636D02*
X194737027Y-217525398D01*
X194737027Y-217525398D02*
X194737027Y-217239684D01*
X194737027Y-217239684D02*
X194689408Y-217144446D01*
X194689408Y-217144446D02*
X194641789Y-217096827D01*
X194641789Y-217096827D02*
X194546551Y-217049208D01*
X194546551Y-217049208D02*
X194403694Y-217049208D01*
X194403694Y-217049208D02*
X194308456Y-217096827D01*
X194308456Y-217096827D02*
X194260837Y-217144446D01*
X194260837Y-217144446D02*
X194213218Y-217239684D01*
X194213218Y-217239684D02*
X194213218Y-217525398D01*
X194213218Y-217525398D02*
X194260837Y-217620636D01*
X194260837Y-217620636D02*
X194308456Y-217668256D01*
X194308456Y-217668256D02*
X194403694Y-217715875D01*
X194403694Y-217715875D02*
X194546551Y-217715875D01*
X193784646Y-217049208D02*
X193784646Y-217715875D01*
X193784646Y-217144446D02*
X193737027Y-217096827D01*
X193737027Y-217096827D02*
X193641789Y-217049208D01*
X193641789Y-217049208D02*
X193498932Y-217049208D01*
X193498932Y-217049208D02*
X193403694Y-217096827D01*
X193403694Y-217096827D02*
X193356075Y-217192065D01*
X193356075Y-217192065D02*
X193356075Y-217715875D01*
X192451313Y-217715875D02*
X192451313Y-216715875D01*
X192451313Y-217668256D02*
X192546551Y-217715875D01*
X192546551Y-217715875D02*
X192737027Y-217715875D01*
X192737027Y-217715875D02*
X192832265Y-217668256D01*
X192832265Y-217668256D02*
X192879884Y-217620636D01*
X192879884Y-217620636D02*
X192927503Y-217525398D01*
X192927503Y-217525398D02*
X192927503Y-217239684D01*
X192927503Y-217239684D02*
X192879884Y-217144446D01*
X192879884Y-217144446D02*
X192832265Y-217096827D01*
X192832265Y-217096827D02*
X192737027Y-217049208D01*
X192737027Y-217049208D02*
X192546551Y-217049208D01*
X192546551Y-217049208D02*
X192451313Y-217096827D01*
X191546551Y-217715875D02*
X191546551Y-217192065D01*
X191546551Y-217192065D02*
X191594170Y-217096827D01*
X191594170Y-217096827D02*
X191689408Y-217049208D01*
X191689408Y-217049208D02*
X191879884Y-217049208D01*
X191879884Y-217049208D02*
X191975122Y-217096827D01*
X191546551Y-217668256D02*
X191641789Y-217715875D01*
X191641789Y-217715875D02*
X191879884Y-217715875D01*
X191879884Y-217715875D02*
X191975122Y-217668256D01*
X191975122Y-217668256D02*
X192022741Y-217573017D01*
X192022741Y-217573017D02*
X192022741Y-217477779D01*
X192022741Y-217477779D02*
X191975122Y-217382541D01*
X191975122Y-217382541D02*
X191879884Y-217334922D01*
X191879884Y-217334922D02*
X191641789Y-217334922D01*
X191641789Y-217334922D02*
X191546551Y-217287303D01*
X191070360Y-217715875D02*
X191070360Y-217049208D01*
X191070360Y-217239684D02*
X191022741Y-217144446D01*
X191022741Y-217144446D02*
X190975122Y-217096827D01*
X190975122Y-217096827D02*
X190879884Y-217049208D01*
X190879884Y-217049208D02*
X190784646Y-217049208D01*
X190451312Y-217715875D02*
X190451312Y-217049208D01*
X190451312Y-216715875D02*
X190498931Y-216763494D01*
X190498931Y-216763494D02*
X190451312Y-216811113D01*
X190451312Y-216811113D02*
X190403693Y-216763494D01*
X190403693Y-216763494D02*
X190451312Y-216715875D01*
X190451312Y-216715875D02*
X190451312Y-216811113D01*
X189594170Y-217668256D02*
X189689408Y-217715875D01*
X189689408Y-217715875D02*
X189879884Y-217715875D01*
X189879884Y-217715875D02*
X189975122Y-217668256D01*
X189975122Y-217668256D02*
X190022741Y-217573017D01*
X190022741Y-217573017D02*
X190022741Y-217192065D01*
X190022741Y-217192065D02*
X189975122Y-217096827D01*
X189975122Y-217096827D02*
X189879884Y-217049208D01*
X189879884Y-217049208D02*
X189689408Y-217049208D01*
X189689408Y-217049208D02*
X189594170Y-217096827D01*
X189594170Y-217096827D02*
X189546551Y-217192065D01*
X189546551Y-217192065D02*
X189546551Y-217287303D01*
X189546551Y-217287303D02*
X190022741Y-217382541D01*
X189165598Y-217668256D02*
X189070360Y-217715875D01*
X189070360Y-217715875D02*
X188879884Y-217715875D01*
X188879884Y-217715875D02*
X188784646Y-217668256D01*
X188784646Y-217668256D02*
X188737027Y-217573017D01*
X188737027Y-217573017D02*
X188737027Y-217525398D01*
X188737027Y-217525398D02*
X188784646Y-217430160D01*
X188784646Y-217430160D02*
X188879884Y-217382541D01*
X188879884Y-217382541D02*
X189022741Y-217382541D01*
X189022741Y-217382541D02*
X189117979Y-217334922D01*
X189117979Y-217334922D02*
X189165598Y-217239684D01*
X189165598Y-217239684D02*
X189165598Y-217192065D01*
X189165598Y-217192065D02*
X189117979Y-217096827D01*
X189117979Y-217096827D02*
X189022741Y-217049208D01*
X189022741Y-217049208D02*
X188879884Y-217049208D01*
X188879884Y-217049208D02*
X188784646Y-217096827D01*
X188308455Y-217620636D02*
X188260836Y-217668256D01*
X188260836Y-217668256D02*
X188308455Y-217715875D01*
X188308455Y-217715875D02*
X188356074Y-217668256D01*
X188356074Y-217668256D02*
X188308455Y-217620636D01*
X188308455Y-217620636D02*
X188308455Y-217715875D01*
X188308455Y-217096827D02*
X188260836Y-217144446D01*
X188260836Y-217144446D02*
X188308455Y-217192065D01*
X188308455Y-217192065D02*
X188356074Y-217144446D01*
X188356074Y-217144446D02*
X188308455Y-217096827D01*
X188308455Y-217096827D02*
X188308455Y-217192065D01*
X205451316Y-218944866D02*
X204689412Y-218944866D01*
X203165602Y-218325819D02*
X203165602Y-219040104D01*
X203165602Y-219040104D02*
X203213221Y-219182961D01*
X203213221Y-219182961D02*
X203308459Y-219278200D01*
X203308459Y-219278200D02*
X203451316Y-219325819D01*
X203451316Y-219325819D02*
X203546554Y-219325819D01*
X202689411Y-219325819D02*
X202689411Y-218325819D01*
X202689411Y-218325819D02*
X202308459Y-218325819D01*
X202308459Y-218325819D02*
X202213221Y-218373438D01*
X202213221Y-218373438D02*
X202165602Y-218421057D01*
X202165602Y-218421057D02*
X202117983Y-218516295D01*
X202117983Y-218516295D02*
X202117983Y-218659152D01*
X202117983Y-218659152D02*
X202165602Y-218754390D01*
X202165602Y-218754390D02*
X202213221Y-218802009D01*
X202213221Y-218802009D02*
X202308459Y-218849628D01*
X202308459Y-218849628D02*
X202689411Y-218849628D01*
X201260840Y-218659152D02*
X201260840Y-219325819D01*
X201498935Y-218278200D02*
X201737030Y-218992485D01*
X201737030Y-218992485D02*
X201117983Y-218992485D01*
X199451316Y-219325819D02*
X200022744Y-219325819D01*
X199737030Y-219325819D02*
X199737030Y-218325819D01*
X199737030Y-218325819D02*
X199832268Y-218468676D01*
X199832268Y-218468676D02*
X199927506Y-218563914D01*
X199927506Y-218563914D02*
X200022744Y-218611533D01*
X199022744Y-218944866D02*
X198260840Y-218944866D01*
X197879887Y-218325819D02*
X197260840Y-218325819D01*
X197260840Y-218325819D02*
X197594173Y-218706771D01*
X197594173Y-218706771D02*
X197451316Y-218706771D01*
X197451316Y-218706771D02*
X197356078Y-218754390D01*
X197356078Y-218754390D02*
X197308459Y-218802009D01*
X197308459Y-218802009D02*
X197260840Y-218897247D01*
X197260840Y-218897247D02*
X197260840Y-219135342D01*
X197260840Y-219135342D02*
X197308459Y-219230580D01*
X197308459Y-219230580D02*
X197356078Y-219278200D01*
X197356078Y-219278200D02*
X197451316Y-219325819D01*
X197451316Y-219325819D02*
X197737030Y-219325819D01*
X197737030Y-219325819D02*
X197832268Y-219278200D01*
X197832268Y-219278200D02*
X197879887Y-219230580D01*
X196117982Y-219278200D02*
X196022744Y-219325819D01*
X196022744Y-219325819D02*
X195832268Y-219325819D01*
X195832268Y-219325819D02*
X195737030Y-219278200D01*
X195737030Y-219278200D02*
X195689411Y-219182961D01*
X195689411Y-219182961D02*
X195689411Y-219135342D01*
X195689411Y-219135342D02*
X195737030Y-219040104D01*
X195737030Y-219040104D02*
X195832268Y-218992485D01*
X195832268Y-218992485D02*
X195975125Y-218992485D01*
X195975125Y-218992485D02*
X196070363Y-218944866D01*
X196070363Y-218944866D02*
X196117982Y-218849628D01*
X196117982Y-218849628D02*
X196117982Y-218802009D01*
X196117982Y-218802009D02*
X196070363Y-218706771D01*
X196070363Y-218706771D02*
X195975125Y-218659152D01*
X195975125Y-218659152D02*
X195832268Y-218659152D01*
X195832268Y-218659152D02*
X195737030Y-218706771D01*
X195260839Y-219325819D02*
X195260839Y-218325819D01*
X194832268Y-219325819D02*
X194832268Y-218802009D01*
X194832268Y-218802009D02*
X194879887Y-218706771D01*
X194879887Y-218706771D02*
X194975125Y-218659152D01*
X194975125Y-218659152D02*
X195117982Y-218659152D01*
X195117982Y-218659152D02*
X195213220Y-218706771D01*
X195213220Y-218706771D02*
X195260839Y-218754390D01*
X194213220Y-219325819D02*
X194308458Y-219278200D01*
X194308458Y-219278200D02*
X194356077Y-219230580D01*
X194356077Y-219230580D02*
X194403696Y-219135342D01*
X194403696Y-219135342D02*
X194403696Y-218849628D01*
X194403696Y-218849628D02*
X194356077Y-218754390D01*
X194356077Y-218754390D02*
X194308458Y-218706771D01*
X194308458Y-218706771D02*
X194213220Y-218659152D01*
X194213220Y-218659152D02*
X194070363Y-218659152D01*
X194070363Y-218659152D02*
X193975125Y-218706771D01*
X193975125Y-218706771D02*
X193927506Y-218754390D01*
X193927506Y-218754390D02*
X193879887Y-218849628D01*
X193879887Y-218849628D02*
X193879887Y-219135342D01*
X193879887Y-219135342D02*
X193927506Y-219230580D01*
X193927506Y-219230580D02*
X193975125Y-219278200D01*
X193975125Y-219278200D02*
X194070363Y-219325819D01*
X194070363Y-219325819D02*
X194213220Y-219325819D01*
X193451315Y-219325819D02*
X193451315Y-218659152D01*
X193451315Y-218849628D02*
X193403696Y-218754390D01*
X193403696Y-218754390D02*
X193356077Y-218706771D01*
X193356077Y-218706771D02*
X193260839Y-218659152D01*
X193260839Y-218659152D02*
X193165601Y-218659152D01*
X192975124Y-218659152D02*
X192594172Y-218659152D01*
X192832267Y-218325819D02*
X192832267Y-219182961D01*
X192832267Y-219182961D02*
X192784648Y-219278200D01*
X192784648Y-219278200D02*
X192689410Y-219325819D01*
X192689410Y-219325819D02*
X192594172Y-219325819D01*
X177923429Y-236254604D02*
X176923429Y-236254604D01*
X176923429Y-236254604D02*
X176923429Y-236492699D01*
X176923429Y-236492699D02*
X176971048Y-236635556D01*
X176971048Y-236635556D02*
X177066286Y-236730794D01*
X177066286Y-236730794D02*
X177161524Y-236778413D01*
X177161524Y-236778413D02*
X177352000Y-236826032D01*
X177352000Y-236826032D02*
X177494857Y-236826032D01*
X177494857Y-236826032D02*
X177685333Y-236778413D01*
X177685333Y-236778413D02*
X177780571Y-236730794D01*
X177780571Y-236730794D02*
X177875810Y-236635556D01*
X177875810Y-236635556D02*
X177923429Y-236492699D01*
X177923429Y-236492699D02*
X177923429Y-236254604D01*
X177256762Y-237683175D02*
X177923429Y-237683175D01*
X176875810Y-237445080D02*
X177590095Y-237206985D01*
X177590095Y-237206985D02*
X177590095Y-237826032D01*
X180565029Y-250110232D02*
X180088838Y-249776899D01*
X180565029Y-249538804D02*
X179565029Y-249538804D01*
X179565029Y-249538804D02*
X179565029Y-249919756D01*
X179565029Y-249919756D02*
X179612648Y-250014994D01*
X179612648Y-250014994D02*
X179660267Y-250062613D01*
X179660267Y-250062613D02*
X179755505Y-250110232D01*
X179755505Y-250110232D02*
X179898362Y-250110232D01*
X179898362Y-250110232D02*
X179993600Y-250062613D01*
X179993600Y-250062613D02*
X180041219Y-250014994D01*
X180041219Y-250014994D02*
X180088838Y-249919756D01*
X180088838Y-249919756D02*
X180088838Y-249538804D01*
X179993600Y-250681661D02*
X179945981Y-250586423D01*
X179945981Y-250586423D02*
X179898362Y-250538804D01*
X179898362Y-250538804D02*
X179803124Y-250491185D01*
X179803124Y-250491185D02*
X179755505Y-250491185D01*
X179755505Y-250491185D02*
X179660267Y-250538804D01*
X179660267Y-250538804D02*
X179612648Y-250586423D01*
X179612648Y-250586423D02*
X179565029Y-250681661D01*
X179565029Y-250681661D02*
X179565029Y-250872137D01*
X179565029Y-250872137D02*
X179612648Y-250967375D01*
X179612648Y-250967375D02*
X179660267Y-251014994D01*
X179660267Y-251014994D02*
X179755505Y-251062613D01*
X179755505Y-251062613D02*
X179803124Y-251062613D01*
X179803124Y-251062613D02*
X179898362Y-251014994D01*
X179898362Y-251014994D02*
X179945981Y-250967375D01*
X179945981Y-250967375D02*
X179993600Y-250872137D01*
X179993600Y-250872137D02*
X179993600Y-250681661D01*
X179993600Y-250681661D02*
X180041219Y-250586423D01*
X180041219Y-250586423D02*
X180088838Y-250538804D01*
X180088838Y-250538804D02*
X180184076Y-250491185D01*
X180184076Y-250491185D02*
X180374552Y-250491185D01*
X180374552Y-250491185D02*
X180469790Y-250538804D01*
X180469790Y-250538804D02*
X180517410Y-250586423D01*
X180517410Y-250586423D02*
X180565029Y-250681661D01*
X180565029Y-250681661D02*
X180565029Y-250872137D01*
X180565029Y-250872137D02*
X180517410Y-250967375D01*
X180517410Y-250967375D02*
X180469790Y-251014994D01*
X180469790Y-251014994D02*
X180374552Y-251062613D01*
X180374552Y-251062613D02*
X180184076Y-251062613D01*
X180184076Y-251062613D02*
X180088838Y-251014994D01*
X180088838Y-251014994D02*
X180041219Y-250967375D01*
X180041219Y-250967375D02*
X179993600Y-250872137D01*
X130260108Y-248339629D02*
X130260108Y-247339629D01*
X130260108Y-247339629D02*
X130022013Y-247339629D01*
X130022013Y-247339629D02*
X129879156Y-247387248D01*
X129879156Y-247387248D02*
X129783918Y-247482486D01*
X129783918Y-247482486D02*
X129736299Y-247577724D01*
X129736299Y-247577724D02*
X129688680Y-247768200D01*
X129688680Y-247768200D02*
X129688680Y-247911057D01*
X129688680Y-247911057D02*
X129736299Y-248101533D01*
X129736299Y-248101533D02*
X129783918Y-248196771D01*
X129783918Y-248196771D02*
X129879156Y-248292010D01*
X129879156Y-248292010D02*
X130022013Y-248339629D01*
X130022013Y-248339629D02*
X130260108Y-248339629D01*
X129355346Y-247339629D02*
X128736299Y-247339629D01*
X128736299Y-247339629D02*
X129069632Y-247720581D01*
X129069632Y-247720581D02*
X128926775Y-247720581D01*
X128926775Y-247720581D02*
X128831537Y-247768200D01*
X128831537Y-247768200D02*
X128783918Y-247815819D01*
X128783918Y-247815819D02*
X128736299Y-247911057D01*
X128736299Y-247911057D02*
X128736299Y-248149152D01*
X128736299Y-248149152D02*
X128783918Y-248244390D01*
X128783918Y-248244390D02*
X128831537Y-248292010D01*
X128831537Y-248292010D02*
X128926775Y-248339629D01*
X128926775Y-248339629D02*
X129212489Y-248339629D01*
X129212489Y-248339629D02*
X129307727Y-248292010D01*
X129307727Y-248292010D02*
X129355346Y-248244390D01*
X118563480Y-248847629D02*
X118896813Y-248371438D01*
X119134908Y-248847629D02*
X119134908Y-247847629D01*
X119134908Y-247847629D02*
X118753956Y-247847629D01*
X118753956Y-247847629D02*
X118658718Y-247895248D01*
X118658718Y-247895248D02*
X118611099Y-247942867D01*
X118611099Y-247942867D02*
X118563480Y-248038105D01*
X118563480Y-248038105D02*
X118563480Y-248180962D01*
X118563480Y-248180962D02*
X118611099Y-248276200D01*
X118611099Y-248276200D02*
X118658718Y-248323819D01*
X118658718Y-248323819D02*
X118753956Y-248371438D01*
X118753956Y-248371438D02*
X119134908Y-248371438D01*
X118230146Y-247847629D02*
X117563480Y-247847629D01*
X117563480Y-247847629D02*
X117992051Y-248847629D01*
X178025029Y-250110232D02*
X177548838Y-249776899D01*
X178025029Y-249538804D02*
X177025029Y-249538804D01*
X177025029Y-249538804D02*
X177025029Y-249919756D01*
X177025029Y-249919756D02*
X177072648Y-250014994D01*
X177072648Y-250014994D02*
X177120267Y-250062613D01*
X177120267Y-250062613D02*
X177215505Y-250110232D01*
X177215505Y-250110232D02*
X177358362Y-250110232D01*
X177358362Y-250110232D02*
X177453600Y-250062613D01*
X177453600Y-250062613D02*
X177501219Y-250014994D01*
X177501219Y-250014994D02*
X177548838Y-249919756D01*
X177548838Y-249919756D02*
X177548838Y-249538804D01*
X177025029Y-250967375D02*
X177025029Y-250776899D01*
X177025029Y-250776899D02*
X177072648Y-250681661D01*
X177072648Y-250681661D02*
X177120267Y-250634042D01*
X177120267Y-250634042D02*
X177263124Y-250538804D01*
X177263124Y-250538804D02*
X177453600Y-250491185D01*
X177453600Y-250491185D02*
X177834552Y-250491185D01*
X177834552Y-250491185D02*
X177929790Y-250538804D01*
X177929790Y-250538804D02*
X177977410Y-250586423D01*
X177977410Y-250586423D02*
X178025029Y-250681661D01*
X178025029Y-250681661D02*
X178025029Y-250872137D01*
X178025029Y-250872137D02*
X177977410Y-250967375D01*
X177977410Y-250967375D02*
X177929790Y-251014994D01*
X177929790Y-251014994D02*
X177834552Y-251062613D01*
X177834552Y-251062613D02*
X177596457Y-251062613D01*
X177596457Y-251062613D02*
X177501219Y-251014994D01*
X177501219Y-251014994D02*
X177453600Y-250967375D01*
X177453600Y-250967375D02*
X177405981Y-250872137D01*
X177405981Y-250872137D02*
X177405981Y-250681661D01*
X177405981Y-250681661D02*
X177453600Y-250586423D01*
X177453600Y-250586423D02*
X177501219Y-250538804D01*
X177501219Y-250538804D02*
X177596457Y-250491185D01*
X83270125Y-218961494D02*
X83270125Y-217961494D01*
X83270125Y-217961494D02*
X83032030Y-217961494D01*
X83032030Y-217961494D02*
X82889173Y-218009113D01*
X82889173Y-218009113D02*
X82793935Y-218104351D01*
X82793935Y-218104351D02*
X82746316Y-218199589D01*
X82746316Y-218199589D02*
X82698697Y-218390065D01*
X82698697Y-218390065D02*
X82698697Y-218532922D01*
X82698697Y-218532922D02*
X82746316Y-218723398D01*
X82746316Y-218723398D02*
X82793935Y-218818636D01*
X82793935Y-218818636D02*
X82889173Y-218913875D01*
X82889173Y-218913875D02*
X83032030Y-218961494D01*
X83032030Y-218961494D02*
X83270125Y-218961494D01*
X82127268Y-218390065D02*
X82222506Y-218342446D01*
X82222506Y-218342446D02*
X82270125Y-218294827D01*
X82270125Y-218294827D02*
X82317744Y-218199589D01*
X82317744Y-218199589D02*
X82317744Y-218151970D01*
X82317744Y-218151970D02*
X82270125Y-218056732D01*
X82270125Y-218056732D02*
X82222506Y-218009113D01*
X82222506Y-218009113D02*
X82127268Y-217961494D01*
X82127268Y-217961494D02*
X81936792Y-217961494D01*
X81936792Y-217961494D02*
X81841554Y-218009113D01*
X81841554Y-218009113D02*
X81793935Y-218056732D01*
X81793935Y-218056732D02*
X81746316Y-218151970D01*
X81746316Y-218151970D02*
X81746316Y-218199589D01*
X81746316Y-218199589D02*
X81793935Y-218294827D01*
X81793935Y-218294827D02*
X81841554Y-218342446D01*
X81841554Y-218342446D02*
X81936792Y-218390065D01*
X81936792Y-218390065D02*
X82127268Y-218390065D01*
X82127268Y-218390065D02*
X82222506Y-218437684D01*
X82222506Y-218437684D02*
X82270125Y-218485303D01*
X82270125Y-218485303D02*
X82317744Y-218580541D01*
X82317744Y-218580541D02*
X82317744Y-218771017D01*
X82317744Y-218771017D02*
X82270125Y-218866255D01*
X82270125Y-218866255D02*
X82222506Y-218913875D01*
X82222506Y-218913875D02*
X82127268Y-218961494D01*
X82127268Y-218961494D02*
X81936792Y-218961494D01*
X81936792Y-218961494D02*
X81841554Y-218913875D01*
X81841554Y-218913875D02*
X81793935Y-218866255D01*
X81793935Y-218866255D02*
X81746316Y-218771017D01*
X81746316Y-218771017D02*
X81746316Y-218580541D01*
X81746316Y-218580541D02*
X81793935Y-218485303D01*
X81793935Y-218485303D02*
X81841554Y-218437684D01*
X81841554Y-218437684D02*
X81936792Y-218390065D01*
X118563480Y-246409229D02*
X118896813Y-245933038D01*
X119134908Y-246409229D02*
X119134908Y-245409229D01*
X119134908Y-245409229D02*
X118753956Y-245409229D01*
X118753956Y-245409229D02*
X118658718Y-245456848D01*
X118658718Y-245456848D02*
X118611099Y-245504467D01*
X118611099Y-245504467D02*
X118563480Y-245599705D01*
X118563480Y-245599705D02*
X118563480Y-245742562D01*
X118563480Y-245742562D02*
X118611099Y-245837800D01*
X118611099Y-245837800D02*
X118658718Y-245885419D01*
X118658718Y-245885419D02*
X118753956Y-245933038D01*
X118753956Y-245933038D02*
X119134908Y-245933038D01*
X117658718Y-245409229D02*
X118134908Y-245409229D01*
X118134908Y-245409229D02*
X118182527Y-245885419D01*
X118182527Y-245885419D02*
X118134908Y-245837800D01*
X118134908Y-245837800D02*
X118039670Y-245790181D01*
X118039670Y-245790181D02*
X117801575Y-245790181D01*
X117801575Y-245790181D02*
X117706337Y-245837800D01*
X117706337Y-245837800D02*
X117658718Y-245885419D01*
X117658718Y-245885419D02*
X117611099Y-245980657D01*
X117611099Y-245980657D02*
X117611099Y-246218752D01*
X117611099Y-246218752D02*
X117658718Y-246313990D01*
X117658718Y-246313990D02*
X117706337Y-246361610D01*
X117706337Y-246361610D02*
X117801575Y-246409229D01*
X117801575Y-246409229D02*
X118039670Y-246409229D01*
X118039670Y-246409229D02*
X118134908Y-246361610D01*
X118134908Y-246361610D02*
X118182527Y-246313990D01*
X222981733Y-220307819D02*
X222981733Y-221022104D01*
X222981733Y-221022104D02*
X223029352Y-221164961D01*
X223029352Y-221164961D02*
X223124590Y-221260200D01*
X223124590Y-221260200D02*
X223267447Y-221307819D01*
X223267447Y-221307819D02*
X223362685Y-221307819D01*
X222505542Y-221307819D02*
X222505542Y-220307819D01*
X222505542Y-220307819D02*
X222124590Y-220307819D01*
X222124590Y-220307819D02*
X222029352Y-220355438D01*
X222029352Y-220355438D02*
X221981733Y-220403057D01*
X221981733Y-220403057D02*
X221934114Y-220498295D01*
X221934114Y-220498295D02*
X221934114Y-220641152D01*
X221934114Y-220641152D02*
X221981733Y-220736390D01*
X221981733Y-220736390D02*
X222029352Y-220784009D01*
X222029352Y-220784009D02*
X222124590Y-220831628D01*
X222124590Y-220831628D02*
X222505542Y-220831628D01*
X221076971Y-220641152D02*
X221076971Y-221307819D01*
X221315066Y-220260200D02*
X221553161Y-220974485D01*
X221553161Y-220974485D02*
X220934114Y-220974485D01*
X219172110Y-222544298D02*
X218553063Y-222544298D01*
X218553063Y-222544298D02*
X218886396Y-222925250D01*
X218886396Y-222925250D02*
X218743539Y-222925250D01*
X218743539Y-222925250D02*
X218648301Y-222972869D01*
X218648301Y-222972869D02*
X218600682Y-223020488D01*
X218600682Y-223020488D02*
X218553063Y-223115726D01*
X218553063Y-223115726D02*
X218553063Y-223353821D01*
X218553063Y-223353821D02*
X218600682Y-223449059D01*
X218600682Y-223449059D02*
X218648301Y-223496679D01*
X218648301Y-223496679D02*
X218743539Y-223544298D01*
X218743539Y-223544298D02*
X219029253Y-223544298D01*
X219029253Y-223544298D02*
X219124491Y-223496679D01*
X219124491Y-223496679D02*
X219172110Y-223449059D01*
X225303063Y-223544298D02*
X225874491Y-223544298D01*
X225588777Y-223544298D02*
X225588777Y-222544298D01*
X225588777Y-222544298D02*
X225684015Y-222687155D01*
X225684015Y-222687155D02*
X225779253Y-222782393D01*
X225779253Y-222782393D02*
X225874491Y-222830012D01*
X163447700Y-269056941D02*
X162447700Y-269056941D01*
X162447700Y-269056941D02*
X162447700Y-269295036D01*
X162447700Y-269295036D02*
X162495319Y-269437893D01*
X162495319Y-269437893D02*
X162590557Y-269533131D01*
X162590557Y-269533131D02*
X162685795Y-269580750D01*
X162685795Y-269580750D02*
X162876271Y-269628369D01*
X162876271Y-269628369D02*
X163019128Y-269628369D01*
X163019128Y-269628369D02*
X163209604Y-269580750D01*
X163209604Y-269580750D02*
X163304842Y-269533131D01*
X163304842Y-269533131D02*
X163400081Y-269437893D01*
X163400081Y-269437893D02*
X163447700Y-269295036D01*
X163447700Y-269295036D02*
X163447700Y-269056941D01*
X162542938Y-270009322D02*
X162495319Y-270056941D01*
X162495319Y-270056941D02*
X162447700Y-270152179D01*
X162447700Y-270152179D02*
X162447700Y-270390274D01*
X162447700Y-270390274D02*
X162495319Y-270485512D01*
X162495319Y-270485512D02*
X162542938Y-270533131D01*
X162542938Y-270533131D02*
X162638176Y-270580750D01*
X162638176Y-270580750D02*
X162733414Y-270580750D01*
X162733414Y-270580750D02*
X162876271Y-270533131D01*
X162876271Y-270533131D02*
X163447700Y-269961703D01*
X163447700Y-269961703D02*
X163447700Y-270580750D01*
D11*
%TO.C,D4*%
X176437724Y-238357212D02*
X178457724Y-238357212D01*
X176437724Y-242267212D02*
X176437724Y-238357212D01*
X178457724Y-238357212D02*
X178457724Y-242267212D01*
%TO.C,R8*%
X179204833Y-247422357D02*
X179204833Y-245968229D01*
X181024833Y-247422357D02*
X181024833Y-245968229D01*
%TO.C,D3*%
X126383912Y-244849582D02*
X130293912Y-244849582D01*
X130293912Y-244849582D02*
X130293912Y-246869582D01*
X130293912Y-246869582D02*
X126383912Y-246869582D01*
%TO.C,R7*%
X121227830Y-247580230D02*
X122681958Y-247580230D01*
X121227830Y-249400230D02*
X122681958Y-249400230D01*
%TO.C,R6*%
X176688915Y-247422357D02*
X176688915Y-245968229D01*
X178508915Y-247422357D02*
X178508915Y-245968229D01*
%TO.C,D8*%
X79722031Y-215596675D02*
X83632031Y-215596675D01*
X79722031Y-217616675D02*
X79722031Y-215596675D01*
X83632031Y-217616675D02*
X79722031Y-217616675D01*
%TO.C,R5*%
X121227830Y-245005303D02*
X122681958Y-245005303D01*
X121227830Y-246825303D02*
X122681958Y-246825303D01*
%TO.C,JP4*%
X219488778Y-222089479D02*
X219488778Y-224039479D01*
X219488778Y-224039479D02*
X224988778Y-224039479D01*
X224988778Y-222089479D02*
X219488778Y-222089479D01*
X224988778Y-224039479D02*
X224988778Y-222089479D01*
%TO.C,D2*%
X160082881Y-272605036D02*
X160082881Y-268695036D01*
X162102881Y-268695036D02*
X162102881Y-272605036D01*
X162102881Y-272605036D02*
X160082881Y-272605036D01*
%TD*%
M02*
