%TF.GenerationSoftware,KiCad,Pcbnew,9.0.7-9.0.7~ubuntu24.04.1*%
%TF.CreationDate,2026-01-08T19:40:22+01:00*%
%TF.ProjectId,control_board,636f6e74-726f-46c5-9f62-6f6172642e6b,rev?*%
%TF.SameCoordinates,Original*%
%TF.FileFunction,Paste,Top*%
%TF.FilePolarity,Positive*%
%FSLAX46Y46*%
G04 Gerber Fmt 4.6, Leading zero omitted, Abs format (unit mm)*
G04 Created by KiCad (PCBNEW 9.0.7-9.0.7~ubuntu24.04.1) date 2026-01-08 19:40:22*
%MOMM*%
%LPD*%
G01*
G04 APERTURE LIST*
G04 Aperture macros list*
%AMRoundRect*
0 Rectangle with rounded corners*
0 $1 Rounding radius*
0 $2 $3 $4 $5 $6 $7 $8 $9 X,Y pos of 4 corners*
0 Add a 4 corners polygon primitive as box body*
4,1,4,$2,$3,$4,$5,$6,$7,$8,$9,$2,$3,0*
0 Add four circle primitives for the rounded corners*
1,1,$1+$1,$2,$3*
1,1,$1+$1,$4,$5*
1,1,$1+$1,$6,$7*
1,1,$1+$1,$8,$9*
0 Add four rect primitives between the rounded corners*
20,1,$1+$1,$2,$3,$4,$5,0*
20,1,$1+$1,$4,$5,$6,$7,0*
20,1,$1+$1,$6,$7,$8,$9,0*
20,1,$1+$1,$8,$9,$2,$3,0*%
G04 Aperture macros list end*
%ADD10RoundRect,0.250000X0.400000X0.625000X-0.400000X0.625000X-0.400000X-0.625000X0.400000X-0.625000X0*%
%ADD11RoundRect,0.250000X-0.625000X0.312500X-0.625000X-0.312500X0.625000X-0.312500X0.625000X0.312500X0*%
%ADD12RoundRect,0.250000X-0.625000X0.400000X-0.625000X-0.400000X0.625000X-0.400000X0.625000X0.400000X0*%
%ADD13RoundRect,0.250000X-0.650000X0.412500X-0.650000X-0.412500X0.650000X-0.412500X0.650000X0.412500X0*%
%ADD14RoundRect,0.250000X-0.400000X-0.625000X0.400000X-0.625000X0.400000X0.625000X-0.400000X0.625000X0*%
%ADD15RoundRect,0.250000X0.412500X0.650000X-0.412500X0.650000X-0.412500X-0.650000X0.412500X-0.650000X0*%
%ADD16RoundRect,0.150000X-0.875000X-0.150000X0.875000X-0.150000X0.875000X0.150000X-0.875000X0.150000X0*%
%ADD17RoundRect,0.250000X0.625000X-0.400000X0.625000X0.400000X-0.625000X0.400000X-0.625000X-0.400000X0*%
%ADD18RoundRect,0.250000X-0.412500X-0.650000X0.412500X-0.650000X0.412500X0.650000X-0.412500X0.650000X0*%
%ADD19RoundRect,0.250000X0.650000X-0.412500X0.650000X0.412500X-0.650000X0.412500X-0.650000X-0.412500X0*%
%ADD20RoundRect,0.250001X-0.507499X-0.944999X0.507499X-0.944999X0.507499X0.944999X-0.507499X0.944999X0*%
%ADD21R,1.879600X0.558800*%
%ADD22RoundRect,0.250000X-0.625000X0.375000X-0.625000X-0.375000X0.625000X-0.375000X0.625000X0.375000X0*%
%ADD23RoundRect,0.100000X-0.400000X-0.400000X0.400000X-0.400000X0.400000X0.400000X-0.400000X0.400000X0*%
%ADD24RoundRect,0.105000X-0.420000X-0.995000X0.420000X-0.995000X0.420000X0.995000X-0.420000X0.995000X0*%
%ADD25R,0.230000X0.230000*%
%ADD26O,0.230000X0.800000*%
%ADD27R,1.050000X0.680000*%
%ADD28R,0.500000X0.260000*%
%ADD29RoundRect,0.250001X0.944999X-0.507499X0.944999X0.507499X-0.944999X0.507499X-0.944999X-0.507499X0*%
%ADD30RoundRect,0.250000X-0.850000X0.550000X-0.850000X-0.550000X0.850000X-0.550000X0.850000X0.550000X0*%
%ADD31RoundRect,0.150000X-0.825000X-0.150000X0.825000X-0.150000X0.825000X0.150000X-0.825000X0.150000X0*%
G04 APERTURE END LIST*
D10*
%TO.C,R22*%
X203477711Y-255585908D03*
X200377711Y-255585908D03*
%TD*%
D11*
%TO.C,R3*%
X158385139Y-266200133D03*
X158385139Y-269125133D03*
%TD*%
D12*
%TO.C,R2*%
X147321928Y-316173048D03*
X147321928Y-319273048D03*
%TD*%
D10*
%TO.C,R21*%
X209229265Y-255585908D03*
X206129265Y-255585908D03*
%TD*%
D13*
%TO.C,C3*%
X158941164Y-316551622D03*
X158941164Y-319676622D03*
%TD*%
D14*
%TO.C,R12*%
X142217722Y-302405474D03*
X145317722Y-302405474D03*
%TD*%
D15*
%TO.C,C24*%
X204763800Y-240643901D03*
X201638800Y-240643901D03*
%TD*%
D12*
%TO.C,R9*%
X87024920Y-236107810D03*
X87024920Y-239207810D03*
%TD*%
D16*
%TO.C,U2*%
X142025241Y-325245786D03*
X142025241Y-326515786D03*
X142025241Y-327785786D03*
X142025241Y-329055786D03*
X142025241Y-330325786D03*
X142025241Y-331595786D03*
X142025241Y-332865786D03*
X142025241Y-334135786D03*
X142025241Y-335405786D03*
X142025241Y-336675786D03*
X151325241Y-336675786D03*
X151325241Y-335405786D03*
X151325241Y-334135786D03*
X151325241Y-332865786D03*
X151325241Y-331595786D03*
X151325241Y-330325786D03*
X151325241Y-329055786D03*
X151325241Y-327785786D03*
X151325241Y-326515786D03*
X151325241Y-325245786D03*
%TD*%
D10*
%TO.C,R19*%
X218517718Y-255585908D03*
X215417718Y-255585908D03*
%TD*%
D17*
%TO.C,R17*%
X148176849Y-281249584D03*
X148176849Y-278149584D03*
%TD*%
D18*
%TO.C,C17*%
X200395211Y-262531574D03*
X203520211Y-262531574D03*
%TD*%
D19*
%TO.C,C6*%
X169106408Y-345613263D03*
X169106408Y-342488263D03*
%TD*%
D13*
%TO.C,C2*%
X152239469Y-320026256D03*
X152239469Y-323151256D03*
%TD*%
D20*
%TO.C,C20*%
X201773800Y-237033786D03*
X205028800Y-237033786D03*
%TD*%
D14*
%TO.C,R18*%
X98618355Y-256033334D03*
X101718355Y-256033334D03*
%TD*%
D21*
%TO.C,U6*%
X159613967Y-348209376D03*
X159613967Y-349479376D03*
X159613967Y-350749376D03*
X159613967Y-352019376D03*
X159613967Y-353289376D03*
X159613967Y-354559376D03*
X159613967Y-355829376D03*
X159613967Y-357099376D03*
X169088167Y-357099376D03*
X169088167Y-355829376D03*
X169088167Y-354559376D03*
X169088167Y-353289376D03*
X169088167Y-352019376D03*
X169088167Y-350749376D03*
X169088167Y-349479376D03*
X169088167Y-348209376D03*
%TD*%
D14*
%TO.C,R4*%
X144964207Y-275963449D03*
X148064207Y-275963449D03*
%TD*%
D18*
%TO.C,C16*%
X215375218Y-262531574D03*
X218500218Y-262531574D03*
%TD*%
D12*
%TO.C,R13*%
X175186031Y-320097918D03*
X175186031Y-323197918D03*
%TD*%
D22*
%TO.C,D1*%
X158324880Y-271225279D03*
X158324880Y-274025279D03*
%TD*%
D23*
%TO.C,J4*%
X113688525Y-302379366D03*
D24*
X115163525Y-303879366D03*
D23*
X113688525Y-305379366D03*
D24*
X112213525Y-303879366D03*
%TD*%
D23*
%TO.C,J2*%
X113688525Y-308429366D03*
D24*
X115163525Y-309929366D03*
D23*
X113688525Y-311429366D03*
D24*
X112213525Y-309929366D03*
%TD*%
D25*
%TO.C,U14*%
X210782106Y-245884253D03*
D26*
X210782106Y-246169253D03*
D25*
X210282106Y-245884253D03*
D26*
X210282106Y-246169253D03*
D25*
X209782106Y-245884253D03*
D26*
X209782106Y-246169253D03*
D25*
X209282106Y-245884253D03*
D26*
X209282106Y-246169253D03*
D25*
X208782106Y-245884253D03*
D26*
X208782106Y-246169253D03*
X208782106Y-249119253D03*
D25*
X208782106Y-249404253D03*
D26*
X209282106Y-249119253D03*
D25*
X209282106Y-249404253D03*
D26*
X209782106Y-249119253D03*
D25*
X209782106Y-249404253D03*
D26*
X210282106Y-249119253D03*
D25*
X210282106Y-249404253D03*
D26*
X210782106Y-249119253D03*
D25*
X210782106Y-249404253D03*
D27*
X210417106Y-247194253D03*
X209147106Y-247194253D03*
D28*
X211412106Y-247394253D03*
X208152106Y-247394253D03*
X211412106Y-247894253D03*
X208152106Y-247894253D03*
D27*
X210417106Y-248094253D03*
X209147106Y-248094253D03*
%TD*%
D12*
%TO.C,R15*%
X182288419Y-320097918D03*
X182288419Y-323197918D03*
%TD*%
D13*
%TO.C,C18*%
X209638233Y-237751401D03*
X209638233Y-240876401D03*
%TD*%
D18*
%TO.C,C22*%
X200395211Y-259205418D03*
X203520211Y-259205418D03*
%TD*%
D29*
%TO.C,C19*%
X217688719Y-239651286D03*
X217688719Y-236396286D03*
%TD*%
D12*
%TO.C,R14*%
X178737225Y-320097918D03*
X178737225Y-323197918D03*
%TD*%
D19*
%TO.C,C9*%
X229298563Y-260312203D03*
X229298563Y-257187203D03*
%TD*%
D17*
%TO.C,R20*%
X212446303Y-258455908D03*
X212446303Y-255355908D03*
%TD*%
D10*
%TO.C,R1*%
X102941429Y-265586937D03*
X99841429Y-265586937D03*
%TD*%
D19*
%TO.C,C5*%
X169371818Y-319676622D03*
X169371818Y-316551622D03*
%TD*%
D17*
%TO.C,R16*%
X81603339Y-235309379D03*
X81603339Y-232209379D03*
%TD*%
D19*
%TO.C,C1*%
X151419852Y-354980951D03*
X151419852Y-351855951D03*
%TD*%
D14*
%TO.C,R11*%
X142291537Y-299685885D03*
X145391537Y-299685885D03*
%TD*%
D16*
%TO.C,U3*%
X142025241Y-356999346D03*
X142025241Y-358269346D03*
X142025241Y-359539346D03*
X142025241Y-360809346D03*
X142025241Y-362079346D03*
X142025241Y-363349346D03*
X142025241Y-364619346D03*
X142025241Y-365889346D03*
X142025241Y-367159346D03*
X142025241Y-368429346D03*
X151325241Y-368429346D03*
X151325241Y-367159346D03*
X151325241Y-365889346D03*
X151325241Y-364619346D03*
X151325241Y-363349346D03*
X151325241Y-362079346D03*
X151325241Y-360809346D03*
X151325241Y-359539346D03*
X151325241Y-358269346D03*
X151325241Y-356999346D03*
%TD*%
D13*
%TO.C,C23*%
X213358699Y-236301286D03*
X213358699Y-239426286D03*
%TD*%
D18*
%TO.C,C21*%
X215375218Y-259205418D03*
X218500218Y-259205418D03*
%TD*%
D30*
%TO.C,L1*%
X238484538Y-239952397D03*
X238484538Y-246352397D03*
%TD*%
D23*
%TO.C,J1*%
X113688525Y-320529366D03*
D24*
X115163525Y-322029366D03*
D23*
X113688525Y-323529366D03*
D24*
X112213525Y-322029366D03*
%TD*%
D14*
%TO.C,R10*%
X142288289Y-296915170D03*
X145388289Y-296915170D03*
%TD*%
D13*
%TO.C,C4*%
X159553754Y-342437992D03*
X159553754Y-345562992D03*
%TD*%
D31*
%TO.C,U5*%
X161713231Y-320336351D03*
X161713231Y-321606351D03*
X161713231Y-322876351D03*
X161713231Y-324146351D03*
X166663231Y-324146351D03*
X166663231Y-322876351D03*
X166663231Y-321606351D03*
X166663231Y-320336351D03*
%TD*%
D23*
%TO.C,J3*%
X113688525Y-314479366D03*
D24*
X115163525Y-315979366D03*
D23*
X113688525Y-317479366D03*
D24*
X112213525Y-315979366D03*
%TD*%
D31*
%TO.C,U13*%
X161713231Y-325828374D03*
X161713231Y-327098374D03*
X161713231Y-328368374D03*
X161713231Y-329638374D03*
X166663231Y-329638374D03*
X166663231Y-328368374D03*
X166663231Y-327098374D03*
X166663231Y-325828374D03*
%TD*%
M02*
