%TF.GenerationSoftware,KiCad,Pcbnew,9.0.7-9.0.7~ubuntu24.04.1*%
%TF.CreationDate,2026-01-08T19:40:23+01:00*%
%TF.ProjectId,control_board,636f6e74-726f-46c5-9f62-6f6172642e6b,rev?*%
%TF.SameCoordinates,Original*%
%TF.FileFunction,Other,User*%
%FSLAX46Y46*%
G04 Gerber Fmt 4.6, Leading zero omitted, Abs format (unit mm)*
G04 Created by KiCad (PCBNEW 9.0.7-9.0.7~ubuntu24.04.1) date 2026-01-08 19:40:23*
%MOMM*%
%LPD*%
G01*
G04 APERTURE LIST*
%ADD10C,0.050000*%
%ADD11C,0.152400*%
G04 APERTURE END LIST*
D10*
%TO.C,C14*%
X104101216Y-232918000D02*
G75*
G02*
X90601216Y-232918000I-6750000J0D01*
G01*
X90601216Y-232918000D02*
G75*
G02*
X104101216Y-232918000I6750000J0D01*
G01*
%TO.C,J17*%
X129424800Y-210432500D02*
X129424800Y-221632500D01*
X129424800Y-221632500D02*
X140424800Y-221632500D01*
X140424800Y-210432500D02*
X129424800Y-210432500D01*
X140424800Y-221632500D02*
X140424800Y-210432500D01*
%TO.C,U8*%
X203665000Y-293526000D02*
X214165000Y-293526000D01*
X214165000Y-298426000D01*
X203665000Y-298426000D01*
X203665000Y-293526000D01*
%TO.C,R23*%
X106358000Y-225088000D02*
X118178000Y-225088000D01*
X118178000Y-230588000D01*
X106358000Y-230588000D01*
X106358000Y-225088000D01*
%TO.C,U12*%
X171177000Y-248915000D02*
X176077000Y-248915000D01*
X176077000Y-238415000D01*
X171177000Y-238415000D01*
X171177000Y-248915000D01*
%TO.C,R22*%
X199477711Y-254455908D02*
X204377711Y-254455908D01*
X199477711Y-256715908D02*
X199477711Y-254455908D01*
X204377711Y-254455908D02*
X204377711Y-256715908D01*
X204377711Y-256715908D02*
X199477711Y-256715908D01*
%TO.C,R3*%
X157255139Y-265382633D02*
X159515139Y-265382633D01*
X157255139Y-269942633D02*
X157255139Y-265382633D01*
X159515139Y-265382633D02*
X159515139Y-269942633D01*
X159515139Y-269942633D02*
X157255139Y-269942633D01*
%TO.C,R2*%
X146191928Y-315273048D02*
X148451928Y-315273048D01*
X146191928Y-320173048D02*
X146191928Y-315273048D01*
X148451928Y-315273048D02*
X148451928Y-320173048D01*
X148451928Y-320173048D02*
X146191928Y-320173048D01*
%TO.C,D7*%
X210645200Y-230139600D02*
X210645200Y-225739600D01*
X210645200Y-230139600D02*
X233245200Y-230139600D01*
X233245200Y-225739600D02*
X210645200Y-225739600D01*
X233245200Y-225739600D02*
X233245200Y-230139600D01*
%TO.C,U10*%
X186837500Y-293526000D02*
X197337500Y-293526000D01*
X197337500Y-298426000D01*
X186837500Y-298426000D01*
X186837500Y-293526000D01*
%TO.C,H6*%
X243573169Y-209793685D02*
G75*
G02*
X236673169Y-209793685I-3450000J0D01*
G01*
X236673169Y-209793685D02*
G75*
G02*
X243573169Y-209793685I3450000J0D01*
G01*
%TO.C,J12*%
X104070000Y-254817500D02*
X104070000Y-264717500D01*
X104070000Y-264717500D02*
X125430000Y-264717500D01*
X125430000Y-254817500D02*
X104070000Y-254817500D01*
X125430000Y-264717500D02*
X125430000Y-254817500D01*
%TO.C,R21*%
X205229265Y-254455908D02*
X210129265Y-254455908D01*
X205229265Y-256715908D02*
X205229265Y-254455908D01*
X210129265Y-254455908D02*
X210129265Y-256715908D01*
X210129265Y-256715908D02*
X205229265Y-256715908D01*
%TO.C,C3*%
X157791164Y-315634122D02*
X160091164Y-315634122D01*
X157791164Y-320594122D02*
X157791164Y-315634122D01*
X160091164Y-315634122D02*
X160091164Y-320594122D01*
X160091164Y-320594122D02*
X157791164Y-320594122D01*
%TO.C,R12*%
X141317722Y-301275474D02*
X146217722Y-301275474D01*
X141317722Y-303535474D02*
X141317722Y-301275474D01*
X146217722Y-301275474D02*
X146217722Y-303535474D01*
X146217722Y-303535474D02*
X141317722Y-303535474D01*
%TO.C,C24*%
X200721300Y-239493901D02*
X205681300Y-239493901D01*
X200721300Y-241793901D02*
X200721300Y-239493901D01*
X205681300Y-239493901D02*
X205681300Y-241793901D01*
X205681300Y-241793901D02*
X200721300Y-241793901D01*
%TO.C,H1*%
X83573169Y-209793685D02*
G75*
G02*
X76673169Y-209793685I-3450000J0D01*
G01*
X76673169Y-209793685D02*
G75*
G02*
X83573169Y-209793685I3450000J0D01*
G01*
%TO.C,C13*%
X230899724Y-240104866D02*
G75*
G02*
X225399724Y-240104866I-2750000J0D01*
G01*
X225399724Y-240104866D02*
G75*
G02*
X230899724Y-240104866I2750000J0D01*
G01*
%TO.C,R9*%
X85894920Y-235207810D02*
X88154920Y-235207810D01*
X85894920Y-240107810D02*
X85894920Y-235207810D01*
X88154920Y-235207810D02*
X88154920Y-240107810D01*
X88154920Y-240107810D02*
X85894920Y-240107810D01*
%TO.C,U2*%
X140745241Y-324690786D02*
X142675241Y-324690786D01*
X140745241Y-337230786D02*
X140745241Y-324690786D01*
X142675241Y-324310786D02*
X150675241Y-324310786D01*
X142675241Y-324690786D02*
X142675241Y-324310786D01*
X142675241Y-337230786D02*
X140745241Y-337230786D01*
X142675241Y-337610786D02*
X142675241Y-337230786D01*
X150675241Y-324310786D02*
X150675241Y-324690786D01*
X150675241Y-324690786D02*
X152605241Y-324690786D01*
X150675241Y-337230786D02*
X150675241Y-337610786D01*
X150675241Y-337610786D02*
X142675241Y-337610786D01*
X152605241Y-324690786D02*
X152605241Y-337230786D01*
X152605241Y-337230786D02*
X150675241Y-337230786D01*
%TO.C,R19*%
X214517718Y-254455908D02*
X219417718Y-254455908D01*
X214517718Y-256715908D02*
X214517718Y-254455908D01*
X219417718Y-254455908D02*
X219417718Y-256715908D01*
X219417718Y-256715908D02*
X214517718Y-256715908D01*
%TO.C,R17*%
X147046849Y-277249584D02*
X149306849Y-277249584D01*
X147046849Y-282149584D02*
X147046849Y-277249584D01*
X149306849Y-277249584D02*
X149306849Y-282149584D01*
X149306849Y-282149584D02*
X147046849Y-282149584D01*
%TO.C,C17*%
X199477711Y-261381574D02*
X204437711Y-261381574D01*
X199477711Y-263681574D02*
X199477711Y-261381574D01*
X204437711Y-261381574D02*
X204437711Y-263681574D01*
X204437711Y-263681574D02*
X199477711Y-263681574D01*
%TO.C,C6*%
X167956408Y-341570763D02*
X170256408Y-341570763D01*
X167956408Y-346530763D02*
X167956408Y-341570763D01*
X170256408Y-341570763D02*
X170256408Y-346530763D01*
X170256408Y-346530763D02*
X167956408Y-346530763D01*
%TO.C,C2*%
X151089469Y-319108756D02*
X153389469Y-319108756D01*
X151089469Y-324068756D02*
X151089469Y-319108756D01*
X153389469Y-319108756D02*
X153389469Y-324068756D01*
X153389469Y-324068756D02*
X151089469Y-324068756D01*
%TO.C,Q2*%
X140311949Y-317035000D02*
X140311949Y-321775000D01*
X140311949Y-317035000D02*
X145771949Y-317035000D01*
X145771949Y-321775000D02*
X140311949Y-321775000D01*
X145771949Y-321775000D02*
X145771949Y-317035000D01*
%TO.C,C20*%
X200761300Y-235383786D02*
X206041300Y-235383786D01*
X200761300Y-238683786D02*
X200761300Y-235383786D01*
X206041300Y-235383786D02*
X206041300Y-238683786D01*
X206041300Y-238683786D02*
X200761300Y-238683786D01*
%TO.C,J10*%
X127728598Y-254901500D02*
X127728598Y-264801500D01*
X127728598Y-264801500D02*
X144018598Y-264801500D01*
X144018598Y-254901500D02*
X127728598Y-254901500D01*
X144018598Y-264801500D02*
X144018598Y-254901500D01*
%TO.C,H7*%
X83573169Y-359793685D02*
G75*
G02*
X76673169Y-359793685I-3450000J0D01*
G01*
X76673169Y-359793685D02*
G75*
G02*
X83573169Y-359793685I3450000J0D01*
G01*
%TO.C,R18*%
X97718355Y-254903334D02*
X102618355Y-254903334D01*
X97718355Y-257163334D02*
X97718355Y-254903334D01*
X102618355Y-254903334D02*
X102618355Y-257163334D01*
X102618355Y-257163334D02*
X97718355Y-257163334D01*
D11*
%TO.C,U6*%
X158420167Y-347675976D02*
X160299767Y-347675976D01*
X158420167Y-357632776D02*
X158420167Y-347675976D01*
X158420167Y-357632776D02*
X160299767Y-357632776D01*
X160299767Y-347155276D02*
X168402367Y-347155276D01*
X160299767Y-347675976D02*
X160299767Y-347155276D01*
X160299767Y-358153476D02*
X160299767Y-357632776D01*
X168402367Y-347155276D02*
X168402367Y-347675976D01*
X168402367Y-357632776D02*
X168402367Y-358153476D01*
X168402367Y-358153476D02*
X160299767Y-358153476D01*
X170281967Y-347675976D02*
X168402367Y-347675976D01*
X170281967Y-347675976D02*
X170281967Y-357632776D01*
X170281967Y-357632776D02*
X168402367Y-357632776D01*
D10*
%TO.C,J7*%
X168007400Y-210432500D02*
X168007400Y-221632500D01*
X168007400Y-221632500D02*
X179007400Y-221632500D01*
X179007400Y-210432500D02*
X168007400Y-210432500D01*
X179007400Y-221632500D02*
X179007400Y-210432500D01*
%TO.C,R4*%
X144064207Y-274833449D02*
X148964207Y-274833449D01*
X144064207Y-277093449D02*
X144064207Y-274833449D01*
X148964207Y-274833449D02*
X148964207Y-277093449D01*
X148964207Y-277093449D02*
X144064207Y-277093449D01*
%TO.C,C16*%
X214457718Y-261381574D02*
X219417718Y-261381574D01*
X214457718Y-263681574D02*
X214457718Y-261381574D01*
X219417718Y-261381574D02*
X219417718Y-263681574D01*
X219417718Y-263681574D02*
X214457718Y-263681574D01*
%TO.C,R13*%
X174056031Y-319197918D02*
X176316031Y-319197918D01*
X174056031Y-324097918D02*
X174056031Y-319197918D01*
X176316031Y-319197918D02*
X176316031Y-324097918D01*
X176316031Y-324097918D02*
X174056031Y-324097918D01*
%TO.C,D1*%
X157194880Y-270345279D02*
X159454880Y-270345279D01*
X157194880Y-274905279D02*
X157194880Y-270345279D01*
X159454880Y-270345279D02*
X159454880Y-274905279D01*
X159454880Y-274905279D02*
X157194880Y-274905279D01*
%TO.C,J16*%
X126485000Y-290960000D02*
X135135000Y-290960000D01*
X126485000Y-294510000D02*
X126485000Y-290960000D01*
X135135000Y-290960000D02*
X135135000Y-294510000D01*
X135135000Y-294510000D02*
X126485000Y-294510000D01*
%TO.C,H5*%
X248573169Y-369793685D02*
G75*
G02*
X241673169Y-369793685I-3450000J0D01*
G01*
X241673169Y-369793685D02*
G75*
G02*
X248573169Y-369793685I3450000J0D01*
G01*
%TO.C,J21*%
X89470600Y-210432500D02*
X89470600Y-221632500D01*
X89470600Y-221632500D02*
X100470600Y-221632500D01*
X100470600Y-210432500D02*
X89470600Y-210432500D01*
X100470600Y-221632500D02*
X100470600Y-210432500D01*
%TO.C,J15*%
X210654000Y-210432500D02*
X210654000Y-221632500D01*
X210654000Y-221632500D02*
X221654000Y-221632500D01*
X221654000Y-210432500D02*
X210654000Y-210432500D01*
X221654000Y-221632500D02*
X221654000Y-210432500D01*
%TO.C,J4*%
X111188525Y-301479366D02*
X111188525Y-306479366D01*
X111188525Y-306479366D02*
X116188525Y-306479366D01*
X116188525Y-301479366D02*
X111188525Y-301479366D01*
X116188525Y-306479366D02*
X116188525Y-301479366D01*
%TO.C,JP1*%
X168382146Y-333597261D02*
X168382146Y-330297261D01*
X168382146Y-333597261D02*
X170882146Y-333597261D01*
X170882146Y-330297261D02*
X168382146Y-330297261D01*
X170882146Y-330297261D02*
X170882146Y-333597261D01*
%TO.C,H2*%
X163573169Y-369793685D02*
G75*
G02*
X156673169Y-369793685I-3450000J0D01*
G01*
X156673169Y-369793685D02*
G75*
G02*
X163573169Y-369793685I3450000J0D01*
G01*
%TO.C,J2*%
X111188525Y-307529366D02*
X111188525Y-312529366D01*
X111188525Y-312529366D02*
X116188525Y-312529366D01*
X116188525Y-307529366D02*
X111188525Y-307529366D01*
X116188525Y-312529366D02*
X116188525Y-307529366D01*
%TO.C,U14*%
X207632106Y-245494253D02*
X207632106Y-249794253D01*
X211932106Y-245494253D02*
X207632106Y-245494253D01*
X211932106Y-245494253D02*
X211932106Y-249794253D01*
X211932106Y-249794253D02*
X207632106Y-249794253D01*
%TO.C,R15*%
X181158419Y-319197918D02*
X183418419Y-319197918D01*
X181158419Y-324097918D02*
X181158419Y-319197918D01*
X183418419Y-319197918D02*
X183418419Y-324097918D01*
X183418419Y-324097918D02*
X181158419Y-324097918D01*
%TO.C,J11*%
X88766000Y-254643000D02*
X88766000Y-258183000D01*
X88766000Y-258183000D02*
X97386000Y-258183000D01*
X97386000Y-254643000D02*
X88766000Y-254643000D01*
X97386000Y-258183000D02*
X97386000Y-254643000D01*
%TO.C,C18*%
X208488233Y-236833901D02*
X210788233Y-236833901D01*
X208488233Y-241793901D02*
X208488233Y-236833901D01*
X210788233Y-236833901D02*
X210788233Y-241793901D01*
X210788233Y-241793901D02*
X208488233Y-241793901D01*
%TO.C,C22*%
X199477711Y-258055418D02*
X204437711Y-258055418D01*
X199477711Y-260355418D02*
X199477711Y-258055418D01*
X204437711Y-258055418D02*
X204437711Y-260355418D01*
X204437711Y-260355418D02*
X199477711Y-260355418D01*
%TO.C,J20*%
X169447762Y-276106000D02*
X169447762Y-279646000D01*
X169447762Y-279646000D02*
X175537762Y-279646000D01*
X175537762Y-276106000D02*
X169447762Y-276106000D01*
X175537762Y-279646000D02*
X175537762Y-276106000D01*
%TO.C,U9*%
X170010000Y-293460000D02*
X180510000Y-293460000D01*
X180510000Y-298360000D01*
X170010000Y-298360000D01*
X170010000Y-293460000D01*
%TO.C,J14*%
X70797500Y-354002000D02*
X75997500Y-354002000D01*
X70797500Y-366302000D02*
X70797500Y-354002000D01*
X75997500Y-344902000D02*
X144697500Y-344902000D01*
X75997500Y-354002000D02*
X75997500Y-344902000D01*
X75997500Y-366302000D02*
X70797500Y-366302000D01*
X75997500Y-375102000D02*
X75997500Y-366302000D01*
X132993500Y-344902000D02*
X132993500Y-375102000D01*
X144697500Y-375102000D02*
X75997500Y-375102000D01*
%TO.C,K1*%
X161241762Y-273738000D02*
X161241762Y-265838000D01*
X161241762Y-273738000D02*
X176541762Y-273738000D01*
X176541762Y-265838000D02*
X161241762Y-265838000D01*
X176541762Y-265838000D02*
X176541762Y-273738000D01*
%TO.C,C19*%
X216038719Y-235383786D02*
X219338719Y-235383786D01*
X216038719Y-240663786D02*
X216038719Y-235383786D01*
X219338719Y-235383786D02*
X219338719Y-240663786D01*
X219338719Y-240663786D02*
X216038719Y-240663786D01*
%TO.C,C15*%
X161676806Y-235729501D02*
G75*
G02*
X148176806Y-235729501I-6750000J0D01*
G01*
X148176806Y-235729501D02*
G75*
G02*
X161676806Y-235729501I6750000J0D01*
G01*
D11*
%TO.C,U7*%
X232340600Y-256133600D02*
X233502200Y-256133600D01*
X232340600Y-273456400D02*
X232340600Y-256133600D01*
X233502200Y-255092200D02*
X246811800Y-255092200D01*
X233502200Y-256133600D02*
X233502200Y-255092200D01*
X233502200Y-273456400D02*
X232340600Y-273456400D01*
X233502200Y-274497800D02*
X233502200Y-273456400D01*
X246811800Y-255092200D02*
X246811800Y-256133600D01*
X246811800Y-273456400D02*
X246811800Y-274497800D01*
X246811800Y-274497800D02*
X233502200Y-274497800D01*
X247973401Y-256133600D02*
X246811800Y-256133600D01*
X247973401Y-256133600D02*
X247973401Y-273456400D01*
X247973401Y-273456400D02*
X246811800Y-273456400D01*
D10*
%TO.C,C12*%
X235998239Y-250698000D02*
G75*
G02*
X230498239Y-250698000I-2750000J0D01*
G01*
X230498239Y-250698000D02*
G75*
G02*
X235998239Y-250698000I2750000J0D01*
G01*
%TO.C,U11*%
X118956000Y-238916000D02*
X129456000Y-238916000D01*
X129456000Y-243816000D01*
X118956000Y-243816000D01*
X118956000Y-238916000D01*
%TO.C,R14*%
X177607225Y-319197918D02*
X179867225Y-319197918D01*
X177607225Y-324097918D02*
X177607225Y-319197918D01*
X179867225Y-319197918D02*
X179867225Y-324097918D01*
X179867225Y-324097918D02*
X177607225Y-324097918D01*
%TO.C,C9*%
X228148563Y-256269703D02*
X230448563Y-256269703D01*
X228148563Y-261229703D02*
X228148563Y-256269703D01*
X230448563Y-256269703D02*
X230448563Y-261229703D01*
X230448563Y-261229703D02*
X228148563Y-261229703D01*
%TO.C,R20*%
X211316303Y-254455908D02*
X213576303Y-254455908D01*
X211316303Y-259355908D02*
X211316303Y-254455908D01*
X213576303Y-254455908D02*
X213576303Y-259355908D01*
X213576303Y-259355908D02*
X211316303Y-259355908D01*
%TO.C,Q1*%
X98362000Y-259123000D02*
X98362000Y-263863000D01*
X98362000Y-259123000D02*
X103822000Y-259123000D01*
X103822000Y-263863000D02*
X98362000Y-263863000D01*
X103822000Y-263863000D02*
X103822000Y-259123000D01*
%TO.C,J13*%
X173912200Y-326759000D02*
X173912200Y-353209000D01*
X173912200Y-353209000D02*
X180062200Y-353209000D01*
X173915600Y-326759000D02*
X173915600Y-353209000D01*
X173915600Y-353209000D02*
X180065600Y-353209000D01*
X177829199Y-306311200D02*
X177829199Y-309911200D01*
X177829199Y-309911200D02*
X183979199Y-309911200D01*
X178184800Y-311289600D02*
X178184800Y-314889600D01*
X178184800Y-314889600D02*
X184334800Y-314889600D01*
X180062200Y-326759000D02*
X173912200Y-326759000D01*
X180062200Y-353209000D02*
X180062200Y-326759000D01*
X180065600Y-326759000D02*
X173915600Y-326759000D01*
X180065600Y-353209000D02*
X180065600Y-326759000D01*
X183979199Y-306311200D02*
X177829199Y-306311200D01*
X183979199Y-309911200D02*
X183979199Y-306311200D01*
X184334800Y-311289600D02*
X178184800Y-311289600D01*
X184334800Y-314889600D02*
X184334800Y-311289600D01*
X188324000Y-311289600D02*
X188324000Y-314889600D01*
X188324000Y-314889600D02*
X194474000Y-314889600D01*
X194474000Y-311289600D02*
X188324000Y-311289600D01*
X194474000Y-314889600D02*
X194474000Y-311289600D01*
X195886600Y-306311200D02*
X195886600Y-309911200D01*
X195886600Y-309911200D02*
X202036600Y-309911200D01*
X199871800Y-311289600D02*
X199871800Y-314889600D01*
X199871800Y-314889600D02*
X206021800Y-314889600D01*
X202036600Y-306311200D02*
X195886600Y-306311200D01*
X202036600Y-309911200D02*
X202036600Y-306311200D01*
X206021800Y-311289600D02*
X199871800Y-311289600D01*
X206021800Y-314889600D02*
X206021800Y-311289600D01*
X206817563Y-306311200D02*
X206817563Y-309911200D01*
X206817563Y-309911200D02*
X212967563Y-309911200D01*
X212967563Y-306311200D02*
X206817563Y-306311200D01*
X212967563Y-309911200D02*
X212967563Y-306311200D01*
%TO.C,C10*%
X124908000Y-250952000D02*
G75*
G02*
X119408000Y-250952000I-2750000J0D01*
G01*
X119408000Y-250952000D02*
G75*
G02*
X124908000Y-250952000I2750000J0D01*
G01*
%TO.C,R1*%
X98941429Y-264456937D02*
X103841429Y-264456937D01*
X98941429Y-266716937D02*
X98941429Y-264456937D01*
X103841429Y-264456937D02*
X103841429Y-266716937D01*
X103841429Y-266716937D02*
X98941429Y-266716937D01*
%TO.C,C5*%
X168221818Y-315634122D02*
X170521818Y-315634122D01*
X168221818Y-320594122D02*
X168221818Y-315634122D01*
X170521818Y-315634122D02*
X170521818Y-320594122D01*
X170521818Y-320594122D02*
X168221818Y-320594122D01*
%TO.C,R16*%
X80473339Y-231309379D02*
X82733339Y-231309379D01*
X80473339Y-236209379D02*
X80473339Y-231309379D01*
X82733339Y-231309379D02*
X82733339Y-236209379D01*
X82733339Y-236209379D02*
X80473339Y-236209379D01*
%TO.C,Q4*%
X83525590Y-234884389D02*
X83525590Y-229424389D01*
X83525590Y-234884389D02*
X88265590Y-234884389D01*
X88265590Y-229424389D02*
X83525590Y-229424389D01*
X88265590Y-229424389D02*
X88265590Y-234884389D01*
%TO.C,K2*%
X78923527Y-213422500D02*
X78923527Y-228722500D01*
X78923527Y-213422500D02*
X86823527Y-213422500D01*
X86823527Y-228722500D02*
X78923527Y-228722500D01*
X86823527Y-228722500D02*
X86823527Y-213422500D01*
%TO.C,C7*%
X101434651Y-244602000D02*
G75*
G02*
X92934651Y-244602000I-4250000J0D01*
G01*
X92934651Y-244602000D02*
G75*
G02*
X101434651Y-244602000I4250000J0D01*
G01*
%TO.C,HS1*%
X106521752Y-231130181D02*
X106521752Y-244630181D01*
X106521752Y-231130181D02*
X142021752Y-231130181D01*
X142021752Y-244630181D02*
X106521752Y-244630181D01*
X142021752Y-244630181D02*
X142021752Y-231130181D01*
%TO.C,C1*%
X150269852Y-350938451D02*
X152569852Y-350938451D01*
X150269852Y-355898451D02*
X150269852Y-350938451D01*
X152569852Y-350938451D02*
X152569852Y-355898451D01*
X152569852Y-355898451D02*
X150269852Y-355898451D01*
%TO.C,R11*%
X141391537Y-298555885D02*
X146291537Y-298555885D01*
X141391537Y-300815885D02*
X141391537Y-298555885D01*
X146291537Y-298555885D02*
X146291537Y-300815885D01*
X146291537Y-300815885D02*
X141391537Y-300815885D01*
%TO.C,U3*%
X140745241Y-356444346D02*
X142675241Y-356444346D01*
X140745241Y-368984346D02*
X140745241Y-356444346D01*
X142675241Y-356064346D02*
X150675241Y-356064346D01*
X142675241Y-356444346D02*
X142675241Y-356064346D01*
X142675241Y-368984346D02*
X140745241Y-368984346D01*
X142675241Y-369364346D02*
X142675241Y-368984346D01*
X150675241Y-356064346D02*
X150675241Y-356444346D01*
X150675241Y-356444346D02*
X152605241Y-356444346D01*
X150675241Y-368984346D02*
X150675241Y-369364346D01*
X150675241Y-369364346D02*
X142675241Y-369364346D01*
X152605241Y-356444346D02*
X152605241Y-368984346D01*
X152605241Y-368984346D02*
X150675241Y-368984346D01*
%TO.C,C23*%
X212208699Y-235383786D02*
X214508699Y-235383786D01*
X212208699Y-240343786D02*
X212208699Y-235383786D01*
X214508699Y-235383786D02*
X214508699Y-240343786D01*
X214508699Y-240343786D02*
X212208699Y-240343786D01*
%TO.C,C21*%
X214457718Y-258055418D02*
X219417718Y-258055418D01*
X214457718Y-260355418D02*
X214457718Y-258055418D01*
X219417718Y-258055418D02*
X219417718Y-260355418D01*
X219417718Y-260355418D02*
X214457718Y-260355418D01*
%TO.C,J19*%
X169447762Y-259850000D02*
X169447762Y-263390000D01*
X169447762Y-263390000D02*
X175537762Y-263390000D01*
X175537762Y-259850000D02*
X169447762Y-259850000D01*
X175537762Y-263390000D02*
X175537762Y-259850000D01*
%TO.C,Q3*%
X145343169Y-269808685D02*
X145343169Y-274548685D01*
X145343169Y-269808685D02*
X150803169Y-269808685D01*
X150803169Y-274548685D02*
X145343169Y-274548685D01*
X150803169Y-274548685D02*
X150803169Y-269808685D01*
%TO.C,H4*%
X163573169Y-289793685D02*
G75*
G02*
X156673169Y-289793685I-3450000J0D01*
G01*
X156673169Y-289793685D02*
G75*
G02*
X163573169Y-289793685I3450000J0D01*
G01*
%TO.C,J6*%
X116106733Y-210432500D02*
X116106733Y-221632500D01*
X116106733Y-221632500D02*
X127106733Y-221632500D01*
X127106733Y-210432500D02*
X116106733Y-210432500D01*
X127106733Y-221632500D02*
X127106733Y-210432500D01*
%TO.C,L1*%
X234484538Y-239152397D02*
X237134538Y-239152397D01*
X234484538Y-247152397D02*
X234484538Y-239152397D01*
X237134538Y-238902397D02*
X239834538Y-238902397D01*
X237134538Y-239152397D02*
X237134538Y-238902397D01*
X237134538Y-247152397D02*
X234484538Y-247152397D01*
X237134538Y-247402397D02*
X237134538Y-247152397D01*
X239834538Y-238902397D02*
X239834538Y-239152397D01*
X239834538Y-239152397D02*
X242484538Y-239152397D01*
X239834538Y-247152397D02*
X239834538Y-247402397D01*
X239834538Y-247402397D02*
X237134538Y-247402397D01*
X242484538Y-239152397D02*
X242484538Y-247152397D01*
X242484538Y-247152397D02*
X239834538Y-247152397D01*
%TO.C,J1*%
X111188525Y-319629366D02*
X111188525Y-324629366D01*
X111188525Y-324629366D02*
X116188525Y-324629366D01*
X116188525Y-319629366D02*
X111188525Y-319629366D01*
X116188525Y-324629366D02*
X116188525Y-319629366D01*
%TO.C,D5*%
X119205200Y-230139600D02*
X119205200Y-225739600D01*
X119205200Y-230139600D02*
X141805200Y-230139600D01*
X141805200Y-225739600D02*
X119205200Y-225739600D01*
X141805200Y-225739600D02*
X141805200Y-230139600D01*
%TO.C,R10*%
X141388289Y-295785170D02*
X146288289Y-295785170D01*
X141388289Y-298045170D02*
X141388289Y-295785170D01*
X146288289Y-295785170D02*
X146288289Y-298045170D01*
X146288289Y-298045170D02*
X141388289Y-298045170D01*
%TO.C,J9*%
X119353500Y-326749000D02*
X119353500Y-332899000D01*
X119353500Y-332899000D02*
X122953500Y-332899000D01*
X121153500Y-305667000D02*
X121153500Y-321967000D01*
X121153500Y-321967000D02*
X124753500Y-321967000D01*
X122953500Y-326749000D02*
X119353500Y-326749000D01*
X122953500Y-332899000D02*
X122953500Y-326749000D01*
X124753500Y-305667000D02*
X121153500Y-305667000D01*
X124753500Y-321967000D02*
X124753500Y-305667000D01*
%TO.C,H3*%
X163573169Y-209793685D02*
G75*
G02*
X156673169Y-209793685I-3450000J0D01*
G01*
X156673169Y-209793685D02*
G75*
G02*
X163573169Y-209793685I3450000J0D01*
G01*
%TO.C,C4*%
X158403754Y-341520492D02*
X160703754Y-341520492D01*
X158403754Y-346480492D02*
X158403754Y-341520492D01*
X160703754Y-341520492D02*
X160703754Y-346480492D01*
X160703754Y-346480492D02*
X158403754Y-346480492D01*
%TO.C,J5*%
X102788667Y-210432500D02*
X102788667Y-221632500D01*
X102788667Y-221632500D02*
X113788667Y-221632500D01*
X113788667Y-210432500D02*
X102788667Y-210432500D01*
X113788667Y-221632500D02*
X113788667Y-210432500D01*
%TO.C,U5*%
X160488231Y-319781351D02*
X161988231Y-319781351D01*
X160488231Y-324701351D02*
X160488231Y-319781351D01*
X161988231Y-319541351D02*
X166388231Y-319541351D01*
X161988231Y-319781351D02*
X161988231Y-319541351D01*
X161988231Y-324701351D02*
X160488231Y-324701351D01*
X161988231Y-324941351D02*
X161988231Y-324701351D01*
X166388231Y-319541351D02*
X166388231Y-319781351D01*
X166388231Y-319781351D02*
X167888231Y-319781351D01*
X166388231Y-324701351D02*
X166388231Y-324941351D01*
X166388231Y-324941351D02*
X161988231Y-324941351D01*
X167888231Y-319781351D02*
X167888231Y-324701351D01*
X167888231Y-324701351D02*
X166388231Y-324701351D01*
%TO.C,C8*%
X159010241Y-247540501D02*
G75*
G02*
X150510241Y-247540501I-4250000J0D01*
G01*
X150510241Y-247540501D02*
G75*
G02*
X159010241Y-247540501I4250000J0D01*
G01*
%TO.C,J8*%
X222592000Y-210432500D02*
X222592000Y-221632500D01*
X222592000Y-221632500D02*
X233592000Y-221632500D01*
X233592000Y-210432500D02*
X222592000Y-210432500D01*
X233592000Y-221632500D02*
X233592000Y-210432500D01*
%TO.C,J3*%
X111188525Y-313579366D02*
X111188525Y-318579366D01*
X111188525Y-318579366D02*
X116188525Y-318579366D01*
X116188525Y-313579366D02*
X111188525Y-313579366D01*
X116188525Y-318579366D02*
X116188525Y-313579366D01*
%TO.C,U13*%
X160488231Y-325273374D02*
X161988231Y-325273374D01*
X160488231Y-330193374D02*
X160488231Y-325273374D01*
X161988231Y-325033374D02*
X166388231Y-325033374D01*
X161988231Y-325273374D02*
X161988231Y-325033374D01*
X161988231Y-330193374D02*
X160488231Y-330193374D01*
X161988231Y-330433374D02*
X161988231Y-330193374D01*
X166388231Y-325033374D02*
X166388231Y-325273374D01*
X166388231Y-325273374D02*
X167888231Y-325273374D01*
X166388231Y-330193374D02*
X166388231Y-330433374D01*
X166388231Y-330433374D02*
X161988231Y-330433374D01*
X167888231Y-325273374D02*
X167888231Y-330193374D01*
X167888231Y-330193374D02*
X166388231Y-330193374D01*
%TO.C,D6*%
X163750590Y-230139600D02*
X163750590Y-225739600D01*
X163750590Y-230139600D02*
X186350590Y-230139600D01*
X186350590Y-225739600D02*
X163750590Y-225739600D01*
X186350590Y-225739600D02*
X186350590Y-230139600D01*
%TO.C,C11*%
X185648000Y-246541113D02*
G75*
G02*
X180148000Y-246541113I-2750000J0D01*
G01*
X180148000Y-246541113D02*
G75*
G02*
X185648000Y-246541113I2750000J0D01*
G01*
%TD*%
M02*
