%TF.GenerationSoftware,KiCad,Pcbnew,9.0.7-9.0.7~ubuntu24.04.1*%
%TF.CreationDate,2026-01-08T19:40:23+01:00*%
%TF.ProjectId,control_board,636f6e74-726f-46c5-9f62-6f6172642e6b,rev?*%
%TF.SameCoordinates,Original*%
%TF.FileFunction,Soldermask,Top*%
%TF.FilePolarity,Negative*%
%FSLAX46Y46*%
G04 Gerber Fmt 4.6, Leading zero omitted, Abs format (unit mm)*
G04 Created by KiCad (PCBNEW 9.0.7-9.0.7~ubuntu24.04.1) date 2026-01-08 19:40:23*
%MOMM*%
%LPD*%
G01*
G04 APERTURE LIST*
G04 Aperture macros list*
%AMRoundRect*
0 Rectangle with rounded corners*
0 $1 Rounding radius*
0 $2 $3 $4 $5 $6 $7 $8 $9 X,Y pos of 4 corners*
0 Add a 4 corners polygon primitive as box body*
4,1,4,$2,$3,$4,$5,$6,$7,$8,$9,$2,$3,0*
0 Add four circle primitives for the rounded corners*
1,1,$1+$1,$2,$3*
1,1,$1+$1,$4,$5*
1,1,$1+$1,$6,$7*
1,1,$1+$1,$8,$9*
0 Add four rect primitives between the rounded corners*
20,1,$1+$1,$2,$3,$4,$5,0*
20,1,$1+$1,$4,$5,$6,$7,0*
20,1,$1+$1,$6,$7,$8,$9,0*
20,1,$1+$1,$8,$9,$2,$3,0*%
%AMFreePoly0*
4,1,37,0.603843,0.796157,0.639018,0.796157,0.711114,0.766294,0.766294,0.711114,0.796157,0.639018,0.796157,0.603843,0.800000,0.600000,0.800000,-0.600000,0.796157,-0.603843,0.796157,-0.639018,0.766294,-0.711114,0.711114,-0.766294,0.639018,-0.796157,0.603843,-0.796157,0.600000,-0.800000,0.000000,-0.800000,0.000000,-0.796148,-0.078414,-0.796148,-0.232228,-0.765552,-0.377117,-0.705537,
-0.507515,-0.618408,-0.618408,-0.507515,-0.705537,-0.377117,-0.765552,-0.232228,-0.796148,-0.078414,-0.796148,0.078414,-0.765552,0.232228,-0.705537,0.377117,-0.618408,0.507515,-0.507515,0.618408,-0.377117,0.705537,-0.232228,0.765552,-0.078414,0.796148,0.000000,0.796148,0.000000,0.800000,0.600000,0.800000,0.603843,0.796157,0.603843,0.796157,$1*%
%AMFreePoly1*
4,1,37,0.000000,0.796148,0.078414,0.796148,0.232228,0.765552,0.377117,0.705537,0.507515,0.618408,0.618408,0.507515,0.705537,0.377117,0.765552,0.232228,0.796148,0.078414,0.796148,-0.078414,0.765552,-0.232228,0.705537,-0.377117,0.618408,-0.507515,0.507515,-0.618408,0.377117,-0.705537,0.232228,-0.765552,0.078414,-0.796148,0.000000,-0.796148,0.000000,-0.800000,-0.600000,-0.800000,
-0.603843,-0.796157,-0.639018,-0.796157,-0.711114,-0.766294,-0.766294,-0.711114,-0.796157,-0.639018,-0.796157,-0.603843,-0.800000,-0.600000,-0.800000,0.600000,-0.796157,0.603843,-0.796157,0.639018,-0.766294,0.711114,-0.711114,0.766294,-0.639018,0.796157,-0.603843,0.796157,-0.600000,0.800000,0.000000,0.800000,0.000000,0.796148,0.000000,0.796148,$1*%
G04 Aperture macros list end*
%ADD10RoundRect,0.250001X0.949999X0.949999X-0.949999X0.949999X-0.949999X-0.949999X0.949999X-0.949999X0*%
%ADD11C,2.400000*%
%ADD12RoundRect,0.200000X0.600000X-0.600000X0.600000X0.600000X-0.600000X0.600000X-0.600000X-0.600000X0*%
%ADD13C,1.600000*%
%ADD14FreePoly0,90.000000*%
%ADD15FreePoly1,90.000000*%
%ADD16R,1.905000X2.000000*%
%ADD17O,1.905000X2.000000*%
%ADD18R,2.000000X1.905000*%
%ADD19O,2.000000X1.905000*%
%ADD20RoundRect,0.250000X0.400000X0.625000X-0.400000X0.625000X-0.400000X-0.625000X0.400000X-0.625000X0*%
%ADD21RoundRect,0.250000X-0.625000X0.312500X-0.625000X-0.312500X0.625000X-0.312500X0.625000X0.312500X0*%
%ADD22RoundRect,0.250000X-0.625000X0.400000X-0.625000X-0.400000X0.625000X-0.400000X0.625000X0.400000X0*%
%ADD23R,3.200000X3.200000*%
%ADD24C,3.200000*%
%ADD25RoundRect,0.250000X-0.600000X0.600000X-0.600000X-0.600000X0.600000X-0.600000X0.600000X0.600000X0*%
%ADD26C,1.700000*%
%ADD27RoundRect,0.250000X-0.650000X0.412500X-0.650000X-0.412500X0.650000X-0.412500X0.650000X0.412500X0*%
%ADD28RoundRect,0.250000X-0.400000X-0.625000X0.400000X-0.625000X0.400000X0.625000X-0.400000X0.625000X0*%
%ADD29RoundRect,0.250000X0.412500X0.650000X-0.412500X0.650000X-0.412500X-0.650000X0.412500X-0.650000X0*%
%ADD30RoundRect,0.250000X-0.550000X0.550000X-0.550000X-0.550000X0.550000X-0.550000X0.550000X0.550000X0*%
%ADD31RoundRect,0.150000X-0.875000X-0.150000X0.875000X-0.150000X0.875000X0.150000X-0.875000X0.150000X0*%
%ADD32RoundRect,0.250000X0.625000X-0.400000X0.625000X0.400000X-0.625000X0.400000X-0.625000X-0.400000X0*%
%ADD33RoundRect,0.250000X-0.412500X-0.650000X0.412500X-0.650000X0.412500X0.650000X-0.412500X0.650000X0*%
%ADD34RoundRect,0.250000X0.650000X-0.412500X0.650000X0.412500X-0.650000X0.412500X-0.650000X-0.412500X0*%
%ADD35R,1.050000X1.500000*%
%ADD36O,1.050000X1.500000*%
%ADD37RoundRect,0.250001X-0.507499X-0.944999X0.507499X-0.944999X0.507499X0.944999X-0.507499X0.944999X0*%
%ADD38C,3.600000*%
%ADD39C,6.400000*%
%ADD40R,1.879600X0.558800*%
%ADD41RoundRect,0.250000X-0.625000X0.375000X-0.625000X-0.375000X0.625000X-0.375000X0.625000X0.375000X0*%
%ADD42R,1.700000X1.700000*%
%ADD43RoundRect,0.100000X-0.400000X-0.400000X0.400000X-0.400000X0.400000X0.400000X-0.400000X0.400000X0*%
%ADD44RoundRect,0.105000X-0.420000X-0.995000X0.420000X-0.995000X0.420000X0.995000X-0.420000X0.995000X0*%
%ADD45R,1.500000X1.000000*%
%ADD46R,0.280000X0.280000*%
%ADD47O,0.280000X0.850000*%
%ADD48C,0.600000*%
%ADD49R,1.050000X0.680000*%
%ADD50R,0.500000X0.260000*%
%ADD51R,0.700000X0.280000*%
%ADD52R,2.400000X1.650000*%
%ADD53R,2.000000X2.000000*%
%ADD54C,2.000000*%
%ADD55RoundRect,0.250001X0.944999X-0.507499X0.944999X0.507499X-0.944999X0.507499X-0.944999X-0.507499X0*%
%ADD56R,1.574800X1.574800*%
%ADD57C,1.574800*%
%ADD58RoundRect,0.250000X0.550000X0.550000X-0.550000X0.550000X-0.550000X-0.550000X0.550000X-0.550000X0*%
%ADD59O,1.700000X1.700000*%
%ADD60RoundRect,0.250000X-0.550000X-0.550000X0.550000X-0.550000X0.550000X0.550000X-0.550000X0.550000X0*%
%ADD61R,1.500000X1.050000*%
%ADD62O,1.500000X1.050000*%
%ADD63C,6.000000*%
%ADD64RoundRect,0.250000X-0.850000X0.550000X-0.850000X-0.550000X0.850000X-0.550000X0.850000X0.550000X0*%
%ADD65RoundRect,0.150000X-0.825000X-0.150000X0.825000X-0.150000X0.825000X0.150000X-0.825000X0.150000X0*%
%ADD66RoundRect,0.250000X0.550000X-0.550000X0.550000X0.550000X-0.550000X0.550000X-0.550000X-0.550000X0*%
G04 APERTURE END LIST*
%TO.C,JP1*%
G36*
X170382146Y-331797261D02*
G01*
X168882146Y-331797261D01*
X168882146Y-332097261D01*
X170382146Y-332097261D01*
X170382146Y-331797261D01*
G37*
%TD*%
D10*
%TO.C,C14*%
X99851216Y-232918000D03*
D11*
X94851216Y-232918000D03*
%TD*%
D10*
%TO.C,J17*%
X137424800Y-216332500D03*
D11*
X132424800Y-216332500D03*
%TD*%
D12*
%TO.C,U4*%
X81528000Y-287528000D03*
D13*
X84068000Y-287528000D03*
D14*
X86608000Y-287528000D03*
D13*
X89148000Y-287528000D03*
X91688000Y-287528000D03*
X94228000Y-287528000D03*
X96768000Y-287528000D03*
D14*
X99308000Y-287528000D03*
D13*
X101848000Y-287528000D03*
X104388000Y-287528000D03*
X106928000Y-287528000D03*
X109468000Y-287528000D03*
D14*
X112008000Y-287528000D03*
D13*
X114548000Y-287528000D03*
X117088000Y-287528000D03*
X119628000Y-287528000D03*
X122168000Y-287528000D03*
D14*
X124708000Y-287528000D03*
D13*
X127248000Y-287528000D03*
X129788000Y-287528000D03*
X129788000Y-269748000D03*
X127248000Y-269748000D03*
D15*
X124708000Y-269748000D03*
D13*
X122168000Y-269748000D03*
X119628000Y-269748000D03*
X117088000Y-269748000D03*
X114548000Y-269748000D03*
D15*
X112008000Y-269748000D03*
D13*
X109468000Y-269748000D03*
X106928000Y-269748000D03*
X104388000Y-269748000D03*
X101848000Y-269748000D03*
D15*
X99308000Y-269748000D03*
D13*
X96768000Y-269748000D03*
X94228000Y-269748000D03*
X91688000Y-269748000D03*
X89148000Y-269748000D03*
D15*
X86608000Y-269748000D03*
D13*
X84068000Y-269748000D03*
X81528000Y-269748000D03*
%TD*%
D16*
%TO.C,U8*%
X206375000Y-296926000D03*
D17*
X208915000Y-296926000D03*
X211455000Y-296926000D03*
%TD*%
D11*
%TO.C,R23*%
X109108000Y-227838000D03*
X116728000Y-227838000D03*
%TD*%
D18*
%TO.C,U12*%
X174577000Y-246205000D03*
D19*
X174577000Y-243665000D03*
X174577000Y-241125000D03*
%TD*%
D20*
%TO.C,R22*%
X203477711Y-255585908D03*
X200377711Y-255585908D03*
%TD*%
D21*
%TO.C,R3*%
X158385139Y-266200133D03*
X158385139Y-269125133D03*
%TD*%
D22*
%TO.C,R2*%
X147321928Y-316173048D03*
X147321928Y-319273048D03*
%TD*%
D23*
%TO.C,D7*%
X214295200Y-227589600D03*
D24*
X219375200Y-227589600D03*
X224455200Y-227589600D03*
X229535200Y-227589600D03*
%TD*%
D16*
%TO.C,U10*%
X189547500Y-296926000D03*
D17*
X192087500Y-296926000D03*
X194627500Y-296926000D03*
%TD*%
D24*
%TO.C,H6*%
X240123169Y-209793685D03*
%TD*%
D25*
%TO.C,J12*%
X119830000Y-258497500D03*
D26*
X119830000Y-261037500D03*
X117290000Y-258497500D03*
X117290000Y-261037500D03*
X114750000Y-258497500D03*
X114750000Y-261037500D03*
X112210000Y-258497500D03*
X112210000Y-261037500D03*
X109670000Y-258497500D03*
X109670000Y-261037500D03*
%TD*%
D20*
%TO.C,R21*%
X209229265Y-255585908D03*
X206129265Y-255585908D03*
%TD*%
D27*
%TO.C,C3*%
X158941164Y-316551622D03*
X158941164Y-319676622D03*
%TD*%
D28*
%TO.C,R12*%
X142217722Y-302405474D03*
X145317722Y-302405474D03*
%TD*%
D29*
%TO.C,C24*%
X204763800Y-240643901D03*
X201638800Y-240643901D03*
%TD*%
D24*
%TO.C,H1*%
X80123169Y-209793685D03*
%TD*%
D30*
%TO.C,C13*%
X228149724Y-239104866D03*
D13*
X228149724Y-241104866D03*
%TD*%
D22*
%TO.C,R9*%
X87024920Y-236107810D03*
X87024920Y-239207810D03*
%TD*%
D31*
%TO.C,U2*%
X142025241Y-325245786D03*
X142025241Y-326515786D03*
X142025241Y-327785786D03*
X142025241Y-329055786D03*
X142025241Y-330325786D03*
X142025241Y-331595786D03*
X142025241Y-332865786D03*
X142025241Y-334135786D03*
X142025241Y-335405786D03*
X142025241Y-336675786D03*
X151325241Y-336675786D03*
X151325241Y-335405786D03*
X151325241Y-334135786D03*
X151325241Y-332865786D03*
X151325241Y-331595786D03*
X151325241Y-330325786D03*
X151325241Y-329055786D03*
X151325241Y-327785786D03*
X151325241Y-326515786D03*
X151325241Y-325245786D03*
%TD*%
D20*
%TO.C,R19*%
X218517718Y-255585908D03*
X215417718Y-255585908D03*
%TD*%
D32*
%TO.C,R17*%
X148176849Y-281249584D03*
X148176849Y-278149584D03*
%TD*%
D33*
%TO.C,C17*%
X200395211Y-262531574D03*
X203520211Y-262531574D03*
%TD*%
D34*
%TO.C,C6*%
X169106408Y-345613263D03*
X169106408Y-342488263D03*
%TD*%
D27*
%TO.C,C2*%
X152239469Y-320026256D03*
X152239469Y-323151256D03*
%TD*%
D35*
%TO.C,Q2*%
X144311949Y-319045000D03*
D36*
X143041949Y-319045000D03*
X141771949Y-319045000D03*
%TD*%
D37*
%TO.C,C20*%
X201773800Y-237033786D03*
X205028800Y-237033786D03*
%TD*%
D25*
%TO.C,J10*%
X138418598Y-258581500D03*
D26*
X138418598Y-261121500D03*
X135878598Y-258581500D03*
X135878598Y-261121500D03*
X133338598Y-258581500D03*
X133338598Y-261121500D03*
%TD*%
D38*
%TO.C,H7*%
X80123169Y-359793685D03*
D39*
X80123169Y-359793685D03*
%TD*%
D28*
%TO.C,R18*%
X98618355Y-256033334D03*
X101718355Y-256033334D03*
%TD*%
D40*
%TO.C,U6*%
X159613967Y-348209376D03*
X159613967Y-349479376D03*
X159613967Y-350749376D03*
X159613967Y-352019376D03*
X159613967Y-353289376D03*
X159613967Y-354559376D03*
X159613967Y-355829376D03*
X159613967Y-357099376D03*
X169088167Y-357099376D03*
X169088167Y-355829376D03*
X169088167Y-354559376D03*
X169088167Y-353289376D03*
X169088167Y-352019376D03*
X169088167Y-350749376D03*
X169088167Y-349479376D03*
X169088167Y-348209376D03*
%TD*%
D10*
%TO.C,J7*%
X176007400Y-216332500D03*
D11*
X171007400Y-216332500D03*
%TD*%
D28*
%TO.C,R4*%
X144964207Y-275963449D03*
X148064207Y-275963449D03*
%TD*%
D33*
%TO.C,C16*%
X215375218Y-262531574D03*
X218500218Y-262531574D03*
%TD*%
D22*
%TO.C,R13*%
X175186031Y-320097918D03*
X175186031Y-323197918D03*
%TD*%
D41*
%TO.C,D1*%
X158324880Y-271225279D03*
X158324880Y-274025279D03*
%TD*%
D42*
%TO.C,J16*%
X128285000Y-292710000D03*
D26*
X130825000Y-292710000D03*
X133365000Y-292710000D03*
%TD*%
D38*
%TO.C,H5*%
X245123169Y-369793685D03*
D39*
X245123169Y-369793685D03*
%TD*%
D10*
%TO.C,J21*%
X97470600Y-216332500D03*
D11*
X92470600Y-216332500D03*
%TD*%
D10*
%TO.C,J15*%
X218654000Y-216332500D03*
D11*
X213654000Y-216332500D03*
%TD*%
D43*
%TO.C,J4*%
X113688525Y-302379366D03*
D44*
X115163525Y-303879366D03*
D43*
X113688525Y-305379366D03*
D44*
X112213525Y-303879366D03*
%TD*%
D45*
%TO.C,JP1*%
X169632146Y-331297261D03*
X169632146Y-332597261D03*
%TD*%
D38*
%TO.C,H2*%
X160123169Y-369793685D03*
D39*
X160123169Y-369793685D03*
%TD*%
D43*
%TO.C,J2*%
X113688525Y-308429366D03*
D44*
X115163525Y-309929366D03*
D43*
X113688525Y-311429366D03*
D44*
X112213525Y-309929366D03*
%TD*%
D46*
%TO.C,U14*%
X210782106Y-245884253D03*
D47*
X210782106Y-246169253D03*
D46*
X210282106Y-245884253D03*
D47*
X210282106Y-246169253D03*
D46*
X209782106Y-245884253D03*
D47*
X209782106Y-246169253D03*
D46*
X209282106Y-245884253D03*
D47*
X209282106Y-246169253D03*
D46*
X208782106Y-245884253D03*
D47*
X208782106Y-246169253D03*
X208782106Y-249119253D03*
D46*
X208782106Y-249404253D03*
D47*
X209282106Y-249119253D03*
D46*
X209282106Y-249404253D03*
D47*
X209782106Y-249119253D03*
D46*
X209782106Y-249404253D03*
D47*
X210282106Y-249119253D03*
D46*
X210282106Y-249404253D03*
D47*
X210782106Y-249119253D03*
D46*
X210782106Y-249404253D03*
D48*
X210532106Y-247144253D03*
X209032106Y-247144253D03*
D49*
X210417106Y-247194253D03*
X209147106Y-247194253D03*
D50*
X211412106Y-247394253D03*
D51*
X211332106Y-247394253D03*
X208232106Y-247394253D03*
D50*
X208152106Y-247394253D03*
D48*
X209782106Y-247644253D03*
D52*
X209782106Y-247644253D03*
D50*
X211412106Y-247894253D03*
D51*
X211332106Y-247894253D03*
X208232106Y-247894253D03*
D50*
X208152106Y-247894253D03*
D49*
X210417106Y-248094253D03*
X209147106Y-248094253D03*
D48*
X210532106Y-248144253D03*
X209032106Y-248144253D03*
%TD*%
D22*
%TO.C,R15*%
X182288419Y-320097918D03*
X182288419Y-323197918D03*
%TD*%
D42*
%TO.C,J11*%
X95616000Y-256413000D03*
D26*
X93076000Y-256413000D03*
X90536000Y-256413000D03*
%TD*%
D27*
%TO.C,C18*%
X209638233Y-237751401D03*
X209638233Y-240876401D03*
%TD*%
D33*
%TO.C,C22*%
X200395211Y-259205418D03*
X203520211Y-259205418D03*
%TD*%
D42*
%TO.C,J20*%
X173767762Y-277876000D03*
D26*
X171227762Y-277876000D03*
%TD*%
D16*
%TO.C,U9*%
X172720000Y-296860000D03*
D17*
X175260000Y-296860000D03*
X177800000Y-296860000D03*
%TD*%
D24*
%TO.C,J14*%
X142597500Y-347502000D03*
X81097500Y-347502000D03*
X142597500Y-372502000D03*
X81097500Y-372502000D03*
D13*
X137097500Y-372002000D03*
X137097500Y-369502000D03*
X137097500Y-366962000D03*
X137097500Y-364422000D03*
X137097500Y-361882000D03*
X137097500Y-359342000D03*
X137097500Y-356802000D03*
X137097500Y-354262000D03*
X137097500Y-351722000D03*
X137097500Y-349182000D03*
X134557500Y-372002000D03*
X134597500Y-369502000D03*
X134597500Y-366962000D03*
X134597500Y-364422000D03*
X134597500Y-361882000D03*
X134597500Y-359342000D03*
X134597500Y-356802000D03*
X134597500Y-354262000D03*
X134597500Y-351722000D03*
X134597500Y-349182000D03*
X87122500Y-346952000D03*
X89622500Y-346952000D03*
%TD*%
D53*
%TO.C,K1*%
X162591762Y-272288000D03*
D54*
X167671762Y-272288000D03*
X170211762Y-272288000D03*
X172751762Y-272288000D03*
X172751762Y-267208000D03*
X170211762Y-267208000D03*
X167671762Y-267208000D03*
X162591762Y-267208000D03*
%TD*%
D55*
%TO.C,C19*%
X217688719Y-239651286D03*
X217688719Y-236396286D03*
%TD*%
D10*
%TO.C,C15*%
X157426806Y-235729501D03*
D11*
X152426806Y-235729501D03*
%TD*%
D56*
%TO.C,U7*%
X233382000Y-257175000D03*
D57*
X233382000Y-259715000D03*
X233382000Y-269875000D03*
X233382000Y-272415000D03*
X246932001Y-272415000D03*
X246932001Y-269875000D03*
X246932001Y-257175000D03*
%TD*%
D58*
%TO.C,C12*%
X234248239Y-250698000D03*
D13*
X232248239Y-250698000D03*
%TD*%
D16*
%TO.C,U11*%
X121666000Y-242316000D03*
D17*
X124206000Y-242316000D03*
X126746000Y-242316000D03*
%TD*%
D22*
%TO.C,R14*%
X178737225Y-320097918D03*
X178737225Y-323197918D03*
%TD*%
D34*
%TO.C,C9*%
X229298563Y-260312203D03*
X229298563Y-257187203D03*
%TD*%
D32*
%TO.C,R20*%
X212446303Y-258455908D03*
X212446303Y-255355908D03*
%TD*%
D35*
%TO.C,Q1*%
X102362000Y-261133000D03*
D36*
X101092000Y-261133000D03*
X99822000Y-261133000D03*
%TD*%
D24*
%TO.C,J13*%
X173164746Y-372580036D03*
X238237751Y-372580036D03*
X227865600Y-366951000D03*
X227865600Y-312951000D03*
X173164746Y-307453458D03*
X238237751Y-307453458D03*
D42*
X178265600Y-351409000D03*
D59*
X175725600Y-351409000D03*
X178265600Y-348869000D03*
X175725600Y-348869000D03*
X178265600Y-346329000D03*
X175725600Y-346329000D03*
X178265600Y-343789000D03*
X175725600Y-343789000D03*
X178265600Y-341249000D03*
X175725600Y-341249000D03*
X178265600Y-338709000D03*
X175725600Y-338709000D03*
X178265600Y-336169000D03*
X175725600Y-336169000D03*
X178265600Y-333629000D03*
X175725600Y-333629000D03*
X178265600Y-331089000D03*
X175725600Y-331089000D03*
X178265600Y-328549000D03*
X175725600Y-328549000D03*
X180016800Y-313067600D03*
X179661199Y-308089200D03*
D42*
X182556800Y-313067600D03*
X182201199Y-308089200D03*
D59*
X190156000Y-313067600D03*
X197718600Y-308089200D03*
D42*
X192696000Y-313067600D03*
X200258600Y-308089200D03*
D59*
X201703800Y-313067600D03*
X208649563Y-308089200D03*
D42*
X204243800Y-313067600D03*
X211189563Y-308089200D03*
X232821400Y-320090800D03*
X243898200Y-319830000D03*
D59*
X232821400Y-322630800D03*
X243898200Y-322370000D03*
D42*
X232821400Y-337083400D03*
X244152200Y-337005400D03*
D59*
X232821400Y-339623400D03*
X244152200Y-339545400D03*
X232821400Y-342163400D03*
X244152200Y-342085400D03*
D42*
X243898200Y-356507600D03*
X232846800Y-355955600D03*
D59*
X243898200Y-359047600D03*
X232846800Y-358495600D03*
%TD*%
D60*
%TO.C,C10*%
X121158000Y-250952000D03*
D13*
X123158000Y-250952000D03*
%TD*%
D20*
%TO.C,R1*%
X102941429Y-265586937D03*
X99841429Y-265586937D03*
%TD*%
D34*
%TO.C,C5*%
X169371818Y-319676622D03*
X169371818Y-316551622D03*
%TD*%
D32*
%TO.C,R16*%
X81603339Y-235309379D03*
X81603339Y-232209379D03*
%TD*%
D61*
%TO.C,Q4*%
X85535590Y-230884389D03*
D62*
X85535590Y-232154389D03*
X85535590Y-233424389D03*
%TD*%
D53*
%TO.C,K2*%
X80373527Y-214772500D03*
D54*
X80373527Y-219852500D03*
X80373527Y-222392500D03*
X80373527Y-224932500D03*
X85453527Y-224932500D03*
X85453527Y-222392500D03*
X85453527Y-219852500D03*
X85453527Y-214772500D03*
%TD*%
D58*
%TO.C,C7*%
X98934651Y-244602000D03*
D13*
X95434651Y-244602000D03*
%TD*%
D63*
%TO.C,HS1*%
X136971752Y-237880181D03*
X111571752Y-237880181D03*
%TD*%
D34*
%TO.C,C1*%
X151419852Y-354980951D03*
X151419852Y-351855951D03*
%TD*%
D28*
%TO.C,R11*%
X142291537Y-299685885D03*
X145391537Y-299685885D03*
%TD*%
D31*
%TO.C,U3*%
X142025241Y-356999346D03*
X142025241Y-358269346D03*
X142025241Y-359539346D03*
X142025241Y-360809346D03*
X142025241Y-362079346D03*
X142025241Y-363349346D03*
X142025241Y-364619346D03*
X142025241Y-365889346D03*
X142025241Y-367159346D03*
X142025241Y-368429346D03*
X151325241Y-368429346D03*
X151325241Y-367159346D03*
X151325241Y-365889346D03*
X151325241Y-364619346D03*
X151325241Y-363349346D03*
X151325241Y-362079346D03*
X151325241Y-360809346D03*
X151325241Y-359539346D03*
X151325241Y-358269346D03*
X151325241Y-356999346D03*
%TD*%
D27*
%TO.C,C23*%
X213358699Y-236301286D03*
X213358699Y-239426286D03*
%TD*%
D33*
%TO.C,C21*%
X215375218Y-259205418D03*
X218500218Y-259205418D03*
%TD*%
D42*
%TO.C,J19*%
X173767762Y-261620000D03*
D26*
X171227762Y-261620000D03*
%TD*%
D35*
%TO.C,Q3*%
X149343169Y-271818685D03*
D36*
X148073169Y-271818685D03*
X146803169Y-271818685D03*
%TD*%
D38*
%TO.C,H4*%
X160123169Y-289793685D03*
D39*
X160123169Y-289793685D03*
%TD*%
D10*
%TO.C,J6*%
X124106733Y-216332500D03*
D11*
X119106733Y-216332500D03*
%TD*%
D64*
%TO.C,L1*%
X238484538Y-239952397D03*
X238484538Y-246352397D03*
%TD*%
D43*
%TO.C,J1*%
X113688525Y-320529366D03*
D44*
X115163525Y-322029366D03*
D43*
X113688525Y-323529366D03*
D44*
X112213525Y-322029366D03*
%TD*%
D23*
%TO.C,D5*%
X138155200Y-228289600D03*
D24*
X133075200Y-228289600D03*
X127995200Y-228289600D03*
X122915200Y-228289600D03*
%TD*%
D28*
%TO.C,R10*%
X142288289Y-296915170D03*
X145388289Y-296915170D03*
%TD*%
D24*
%TO.C,J9*%
X121153500Y-294513000D03*
X79751500Y-294513000D03*
X120899500Y-337439000D03*
X79751500Y-337439000D03*
D42*
X122953500Y-307467000D03*
D59*
X122953500Y-310007000D03*
X122953500Y-312547000D03*
X122953500Y-315087000D03*
X122953500Y-317627000D03*
X122953500Y-320167000D03*
X121153500Y-328579000D03*
D42*
X121153500Y-331119000D03*
%TD*%
D24*
%TO.C,H3*%
X160123169Y-209793685D03*
%TD*%
D27*
%TO.C,C4*%
X159553754Y-342437992D03*
X159553754Y-345562992D03*
%TD*%
D10*
%TO.C,J5*%
X110788667Y-216332500D03*
D11*
X105788667Y-216332500D03*
%TD*%
D65*
%TO.C,U5*%
X161713231Y-320336351D03*
X161713231Y-321606351D03*
X161713231Y-322876351D03*
X161713231Y-324146351D03*
X166663231Y-324146351D03*
X166663231Y-322876351D03*
X166663231Y-321606351D03*
X166663231Y-320336351D03*
%TD*%
D58*
%TO.C,C8*%
X156510241Y-247540501D03*
D13*
X153010241Y-247540501D03*
%TD*%
D10*
%TO.C,J8*%
X230592000Y-216332500D03*
D11*
X225592000Y-216332500D03*
%TD*%
D43*
%TO.C,J3*%
X113688525Y-314479366D03*
D44*
X115163525Y-315979366D03*
D43*
X113688525Y-317479366D03*
D44*
X112213525Y-315979366D03*
%TD*%
D65*
%TO.C,U13*%
X161713231Y-325828374D03*
X161713231Y-327098374D03*
X161713231Y-328368374D03*
X161713231Y-329638374D03*
X166663231Y-329638374D03*
X166663231Y-328368374D03*
X166663231Y-327098374D03*
X166663231Y-325828374D03*
%TD*%
D23*
%TO.C,D6*%
X182700590Y-228289600D03*
D24*
X177620590Y-228289600D03*
X172540590Y-228289600D03*
X167460590Y-228289600D03*
%TD*%
D66*
%TO.C,C11*%
X182898000Y-247541113D03*
D13*
X182898000Y-245541113D03*
%TD*%
M02*
