M48
; DRILL file {KiCad 9.0.7-9.0.7~ubuntu24.04.1} date 2026-01-08T19:40:16+0100
; FORMAT={-:-/ absolute / metric / decimal}
; #@! TF.CreationDate,2026-01-08T19:40:16+01:00
; #@! TF.GenerationSoftware,Kicad,Pcbnew,9.0.7-9.0.7~ubuntu24.04.1
; #@! TF.FileFunction,Plated,1,2,PTH
FMAT,2
METRIC
; #@! TA.AperFunction,Plated,PTH,ComponentDrill
T1C0.300
; #@! TA.AperFunction,Plated,PTH,ViaDrill
T2C0.400
; #@! TA.AperFunction,Plated,PTH,ComponentDrill
T3C0.750
; #@! TA.AperFunction,Plated,PTH,ComponentDrill
T4C0.800
; #@! TA.AperFunction,Plated,PTH,ComponentDrill
T5C1.000
; #@! TA.AperFunction,Plated,PTH,ComponentDrill
T6C1.067
; #@! TA.AperFunction,Plated,PTH,ComponentDrill
T7C1.100
; #@! TA.AperFunction,Plated,PTH,ComponentDrill
T8C1.200
; #@! TA.AperFunction,Plated,PTH,ComponentDrill
T9C1.600
; #@! TA.AperFunction,Plated,PTH,ComponentDrill
T10C2.500
; #@! TA.AperFunction,Plated,PTH,ComponentDrill
T11C3.200
%
G90
G05
T1
X209.032Y-247.144
X209.032Y-248.144
X209.782Y-247.644
X210.532Y-247.144
X210.532Y-248.144
T2
X90.49Y-322.73
X90.49Y-324.254
X90.49Y-325.778
X90.678Y-299.72
X90.678Y-301.244
X90.678Y-302.768
X92.522Y-322.73
X92.522Y-324.254
X92.522Y-325.778
X92.71Y-299.72
X92.71Y-301.244
X92.71Y-302.768
X92.964Y-289.687
X98.364Y-322.73
X98.364Y-324.254
X98.364Y-325.778
X98.552Y-299.72
X98.552Y-301.244
X98.552Y-302.768
X100.65Y-322.73
X100.65Y-324.254
X100.65Y-325.778
X100.838Y-299.72
X100.838Y-301.244
X100.838Y-302.768
X102.87Y-247.142
X102.87Y-249.428
X103.124Y-241.3
X103.19Y-291.742
X103.19Y-293.266
X103.19Y-294.79
X105.222Y-291.742
X105.222Y-293.266
X105.222Y-294.79
X106.172Y-241.3
X106.172Y-247.142
X106.172Y-249.428
X111.064Y-291.742
X111.064Y-293.266
X111.064Y-294.79
X112.014Y-315.976
X112.141Y-309.88
X112.141Y-322.072
X112.268Y-303.784
X113.35Y-291.742
X113.35Y-293.266
X113.35Y-294.79
X113.665Y-306.578
X113.665Y-312.547
X113.665Y-318.643
X113.665Y-324.866
X128.27Y-330.835
X128.27Y-358.013
X129.731Y-330.772
X134.62Y-250.575
X134.62Y-252.861
X134.874Y-244.733
X137.922Y-244.733
X137.922Y-250.575
X137.922Y-252.861
X141.986Y-327.787
X141.986Y-330.327
X141.986Y-332.867
X141.986Y-335.407
X141.986Y-336.677
X141.986Y-359.537
X141.986Y-362.102
X141.986Y-364.617
X141.986Y-367.157
X141.986Y-368.427
X145.318Y-302.405
X145.392Y-299.686
X148.177Y-281.25
X151.384Y-351.79
X152.273Y-319.913
X152.771Y-299.603
X154.305Y-363.855
X155.067Y-349.377
X156.21Y-349.504
X156.21Y-354.076
X156.616Y-302.387
X157.48Y-349.504
X157.48Y-352.044
X158.953Y-316.535
X159.512Y-342.392
X159.512Y-357.124
X159.563Y-349.453
X159.571Y-345.613
X161.646Y-324.155
X161.646Y-329.641
X166.675Y-324.155
X166.675Y-329.641
X169.037Y-342.392
X169.037Y-349.504
X169.164Y-357.124
X169.418Y-316.535
X201.639Y-240.644
X201.774Y-237.034
X203.52Y-262.532
X206.985Y-247.599
X208.712Y-242.926
X209.638Y-237.751
X212.446Y-258.456
X212.598Y-247.498
X213.359Y-236.301
X215.375Y-262.532
X217.689Y-236.396
X229.299Y-260.312
T3
X85.536Y-230.884
X85.536Y-232.154
X85.536Y-233.424
X99.822Y-261.133
X101.092Y-261.133
X102.362Y-261.133
X141.772Y-319.045
X143.042Y-319.045
X144.312Y-319.045
X146.803Y-271.819
X148.073Y-271.819
X149.343Y-271.819
T4
X95.435Y-244.602
X98.935Y-244.602
X121.158Y-250.952
X123.158Y-250.952
X153.01Y-247.541
X156.51Y-247.541
X182.898Y-245.541
X182.898Y-247.541
X228.15Y-239.105
X228.15Y-241.105
X232.248Y-250.698
X234.248Y-250.698
T5
X80.374Y-214.772
X80.374Y-219.852
X80.374Y-222.392
X80.374Y-224.932
X81.528Y-269.748
X81.528Y-287.528
X84.068Y-269.748
X84.068Y-287.528
X85.454Y-214.772
X85.454Y-219.852
X85.454Y-222.392
X85.454Y-224.932
X86.608Y-269.748
X86.608Y-287.528
X87.123Y-346.952
X89.148Y-269.748
X89.148Y-287.528
X89.623Y-346.952
X90.536Y-256.413
X91.688Y-269.748
X91.688Y-287.528
X93.076Y-256.413
X94.228Y-269.748
X94.228Y-287.528
X95.616Y-256.413
X96.768Y-269.748
X96.768Y-287.528
X99.308Y-269.748
X99.308Y-287.528
X101.848Y-269.748
X101.848Y-287.528
X104.388Y-269.748
X104.388Y-287.528
X106.928Y-269.748
X106.928Y-287.528
X109.468Y-269.748
X109.468Y-287.528
X109.67Y-258.498
X109.67Y-261.037
X112.008Y-269.748
X112.008Y-287.528
X112.21Y-258.498
X112.21Y-261.037
X114.548Y-269.748
X114.548Y-287.528
X114.75Y-258.498
X114.75Y-261.037
X117.088Y-269.748
X117.088Y-287.528
X117.29Y-258.498
X117.29Y-261.037
X119.628Y-269.748
X119.628Y-287.528
X119.83Y-258.498
X119.83Y-261.037
X121.153Y-328.579
X121.153Y-331.119
X122.168Y-269.748
X122.168Y-287.528
X122.953Y-307.467
X122.953Y-310.007
X122.953Y-312.547
X122.953Y-315.087
X122.953Y-317.627
X122.953Y-320.167
X124.708Y-269.748
X124.708Y-287.528
X127.248Y-269.748
X127.248Y-287.528
X128.285Y-292.71
X129.788Y-269.748
X129.788Y-287.528
X130.825Y-292.71
X133.339Y-258.582
X133.339Y-261.121
X133.365Y-292.71
X134.558Y-372.002
X134.597Y-349.182
X134.597Y-351.722
X134.597Y-354.262
X134.597Y-356.802
X134.597Y-359.342
X134.597Y-361.882
X134.597Y-364.422
X134.597Y-366.962
X134.597Y-369.502
X135.879Y-258.582
X135.879Y-261.121
X137.097Y-349.182
X137.097Y-351.722
X137.097Y-354.262
X137.097Y-356.802
X137.097Y-359.342
X137.097Y-361.882
X137.097Y-364.422
X137.097Y-366.962
X137.097Y-369.502
X137.097Y-372.002
X138.419Y-258.582
X138.419Y-261.121
X162.592Y-267.208
X162.592Y-272.288
X167.672Y-267.208
X167.672Y-272.288
X170.212Y-267.208
X170.212Y-272.288
X171.228Y-261.62
X171.228Y-277.876
X172.752Y-267.208
X172.752Y-272.288
X173.768Y-261.62
X173.768Y-277.876
X175.726Y-328.549
X175.726Y-331.089
X175.726Y-333.629
X175.726Y-336.169
X175.726Y-338.709
X175.726Y-341.249
X175.726Y-343.789
X175.726Y-346.329
X175.726Y-348.869
X175.726Y-351.409
X178.266Y-328.549
X178.266Y-331.089
X178.266Y-333.629
X178.266Y-336.169
X178.266Y-338.709
X178.266Y-341.249
X178.266Y-343.789
X178.266Y-346.329
X178.266Y-348.869
X178.266Y-351.409
X179.661Y-308.089
X180.017Y-313.068
X182.201Y-308.089
X182.557Y-313.068
X190.156Y-313.068
X192.696Y-313.068
X197.719Y-308.089
X200.259Y-308.089
X201.704Y-313.068
X204.244Y-313.068
X208.65Y-308.089
X211.19Y-308.089
X232.821Y-320.091
X232.821Y-322.631
X232.821Y-337.083
X232.821Y-339.623
X232.821Y-342.163
X232.847Y-355.956
X232.847Y-358.496
X243.898Y-319.83
X243.898Y-322.37
X243.898Y-356.508
X243.898Y-359.048
X244.152Y-337.005
X244.152Y-339.545
X244.152Y-342.085
T6
X233.382Y-257.175
X233.382Y-259.715
X233.382Y-269.875
X233.382Y-272.415
X246.932Y-257.175
X246.932Y-269.875
X246.932Y-272.415
T7
X121.666Y-242.316
X124.206Y-242.316
X126.746Y-242.316
X172.72Y-296.86
X174.577Y-241.125
X174.577Y-243.665
X174.577Y-246.205
X175.26Y-296.86
X177.8Y-296.86
X189.547Y-296.926
X192.087Y-296.926
X194.627Y-296.926
X206.375Y-296.926
X208.915Y-296.926
X211.455Y-296.926
T8
X92.471Y-216.332
X94.851Y-232.918
X97.471Y-216.332
X99.851Y-232.918
X105.789Y-216.332
X109.108Y-227.838
X110.789Y-216.332
X116.728Y-227.838
X119.107Y-216.332
X124.107Y-216.332
X132.425Y-216.332
X137.425Y-216.332
X152.427Y-235.73
X157.427Y-235.73
X171.007Y-216.332
X176.007Y-216.332
X213.654Y-216.332
X218.654Y-216.332
X225.592Y-216.332
X230.592Y-216.332
T9
X122.915Y-228.29
X127.995Y-228.29
X133.075Y-228.29
X138.155Y-228.29
X167.461Y-228.29
X172.541Y-228.29
X177.621Y-228.29
X182.701Y-228.29
X214.295Y-227.59
X219.375Y-227.59
X224.455Y-227.59
X229.535Y-227.59
T10
X111.572Y-237.88
X136.972Y-237.88
T11
X80.123Y-359.794
X160.123Y-289.794
X160.123Y-369.794
X245.123Y-369.794
M30
