%TF.GenerationSoftware,KiCad,Pcbnew,9.0.7-9.0.7~ubuntu24.04.1*%
%TF.CreationDate,2026-01-08T19:40:22+01:00*%
%TF.ProjectId,control_board,636f6e74-726f-46c5-9f62-6f6172642e6b,rev?*%
%TF.SameCoordinates,Original*%
%TF.FileFunction,Copper,L1,Top*%
%TF.FilePolarity,Positive*%
%FSLAX46Y46*%
G04 Gerber Fmt 4.6, Leading zero omitted, Abs format (unit mm)*
G04 Created by KiCad (PCBNEW 9.0.7-9.0.7~ubuntu24.04.1) date 2026-01-08 19:40:22*
%MOMM*%
%LPD*%
G01*
G04 APERTURE LIST*
G04 Aperture macros list*
%AMRoundRect*
0 Rectangle with rounded corners*
0 $1 Rounding radius*
0 $2 $3 $4 $5 $6 $7 $8 $9 X,Y pos of 4 corners*
0 Add a 4 corners polygon primitive as box body*
4,1,4,$2,$3,$4,$5,$6,$7,$8,$9,$2,$3,0*
0 Add four circle primitives for the rounded corners*
1,1,$1+$1,$2,$3*
1,1,$1+$1,$4,$5*
1,1,$1+$1,$6,$7*
1,1,$1+$1,$8,$9*
0 Add four rect primitives between the rounded corners*
20,1,$1+$1,$2,$3,$4,$5,0*
20,1,$1+$1,$4,$5,$6,$7,0*
20,1,$1+$1,$6,$7,$8,$9,0*
20,1,$1+$1,$8,$9,$2,$3,0*%
%AMFreePoly0*
4,1,37,0.603843,0.796157,0.639018,0.796157,0.711114,0.766294,0.766294,0.711114,0.796157,0.639018,0.796157,0.603843,0.800000,0.600000,0.800000,-0.600000,0.796157,-0.603843,0.796157,-0.639018,0.766294,-0.711114,0.711114,-0.766294,0.639018,-0.796157,0.603843,-0.796157,0.600000,-0.800000,0.000000,-0.800000,0.000000,-0.796148,-0.078414,-0.796148,-0.232228,-0.765552,-0.377117,-0.705537,
-0.507515,-0.618408,-0.618408,-0.507515,-0.705537,-0.377117,-0.765552,-0.232228,-0.796148,-0.078414,-0.796148,0.078414,-0.765552,0.232228,-0.705537,0.377117,-0.618408,0.507515,-0.507515,0.618408,-0.377117,0.705537,-0.232228,0.765552,-0.078414,0.796148,0.000000,0.796148,0.000000,0.800000,0.600000,0.800000,0.603843,0.796157,0.603843,0.796157,$1*%
%AMFreePoly1*
4,1,37,0.000000,0.796148,0.078414,0.796148,0.232228,0.765552,0.377117,0.705537,0.507515,0.618408,0.618408,0.507515,0.705537,0.377117,0.765552,0.232228,0.796148,0.078414,0.796148,-0.078414,0.765552,-0.232228,0.705537,-0.377117,0.618408,-0.507515,0.507515,-0.618408,0.377117,-0.705537,0.232228,-0.765552,0.078414,-0.796148,0.000000,-0.796148,0.000000,-0.800000,-0.600000,-0.800000,
-0.603843,-0.796157,-0.639018,-0.796157,-0.711114,-0.766294,-0.766294,-0.711114,-0.796157,-0.639018,-0.796157,-0.603843,-0.800000,-0.600000,-0.800000,0.600000,-0.796157,0.603843,-0.796157,0.639018,-0.766294,0.711114,-0.711114,0.766294,-0.639018,0.796157,-0.603843,0.796157,-0.600000,0.800000,0.000000,0.800000,0.000000,0.796148,0.000000,0.796148,$1*%
G04 Aperture macros list end*
%TA.AperFunction,ComponentPad*%
%ADD10RoundRect,0.250001X0.949999X0.949999X-0.949999X0.949999X-0.949999X-0.949999X0.949999X-0.949999X0*%
%TD*%
%TA.AperFunction,ComponentPad*%
%ADD11C,2.400000*%
%TD*%
%TA.AperFunction,ComponentPad*%
%ADD12RoundRect,0.200000X0.600000X-0.600000X0.600000X0.600000X-0.600000X0.600000X-0.600000X-0.600000X0*%
%TD*%
%TA.AperFunction,ComponentPad*%
%ADD13C,1.600000*%
%TD*%
%TA.AperFunction,ComponentPad*%
%ADD14FreePoly0,90.000000*%
%TD*%
%TA.AperFunction,ComponentPad*%
%ADD15FreePoly1,90.000000*%
%TD*%
%TA.AperFunction,ComponentPad*%
%ADD16R,1.905000X2.000000*%
%TD*%
%TA.AperFunction,ComponentPad*%
%ADD17O,1.905000X2.000000*%
%TD*%
%TA.AperFunction,ComponentPad*%
%ADD18R,2.000000X1.905000*%
%TD*%
%TA.AperFunction,ComponentPad*%
%ADD19O,2.000000X1.905000*%
%TD*%
%TA.AperFunction,SMDPad,CuDef*%
%ADD20RoundRect,0.250000X0.400000X0.625000X-0.400000X0.625000X-0.400000X-0.625000X0.400000X-0.625000X0*%
%TD*%
%TA.AperFunction,SMDPad,CuDef*%
%ADD21RoundRect,0.250000X-0.625000X0.312500X-0.625000X-0.312500X0.625000X-0.312500X0.625000X0.312500X0*%
%TD*%
%TA.AperFunction,SMDPad,CuDef*%
%ADD22RoundRect,0.250000X-0.625000X0.400000X-0.625000X-0.400000X0.625000X-0.400000X0.625000X0.400000X0*%
%TD*%
%TA.AperFunction,ComponentPad*%
%ADD23R,3.200000X3.200000*%
%TD*%
%TA.AperFunction,ComponentPad*%
%ADD24C,3.200000*%
%TD*%
%TA.AperFunction,ComponentPad*%
%ADD25RoundRect,0.250000X-0.600000X0.600000X-0.600000X-0.600000X0.600000X-0.600000X0.600000X0.600000X0*%
%TD*%
%TA.AperFunction,ComponentPad*%
%ADD26C,1.700000*%
%TD*%
%TA.AperFunction,SMDPad,CuDef*%
%ADD27RoundRect,0.250000X-0.650000X0.412500X-0.650000X-0.412500X0.650000X-0.412500X0.650000X0.412500X0*%
%TD*%
%TA.AperFunction,SMDPad,CuDef*%
%ADD28RoundRect,0.250000X-0.400000X-0.625000X0.400000X-0.625000X0.400000X0.625000X-0.400000X0.625000X0*%
%TD*%
%TA.AperFunction,SMDPad,CuDef*%
%ADD29RoundRect,0.250000X0.412500X0.650000X-0.412500X0.650000X-0.412500X-0.650000X0.412500X-0.650000X0*%
%TD*%
%TA.AperFunction,ComponentPad*%
%ADD30RoundRect,0.250000X-0.550000X0.550000X-0.550000X-0.550000X0.550000X-0.550000X0.550000X0.550000X0*%
%TD*%
%TA.AperFunction,SMDPad,CuDef*%
%ADD31RoundRect,0.150000X-0.875000X-0.150000X0.875000X-0.150000X0.875000X0.150000X-0.875000X0.150000X0*%
%TD*%
%TA.AperFunction,SMDPad,CuDef*%
%ADD32RoundRect,0.250000X0.625000X-0.400000X0.625000X0.400000X-0.625000X0.400000X-0.625000X-0.400000X0*%
%TD*%
%TA.AperFunction,SMDPad,CuDef*%
%ADD33RoundRect,0.250000X-0.412500X-0.650000X0.412500X-0.650000X0.412500X0.650000X-0.412500X0.650000X0*%
%TD*%
%TA.AperFunction,SMDPad,CuDef*%
%ADD34RoundRect,0.250000X0.650000X-0.412500X0.650000X0.412500X-0.650000X0.412500X-0.650000X-0.412500X0*%
%TD*%
%TA.AperFunction,ComponentPad*%
%ADD35R,1.050000X1.500000*%
%TD*%
%TA.AperFunction,ComponentPad*%
%ADD36O,1.050000X1.500000*%
%TD*%
%TA.AperFunction,SMDPad,CuDef*%
%ADD37RoundRect,0.250001X-0.507499X-0.944999X0.507499X-0.944999X0.507499X0.944999X-0.507499X0.944999X0*%
%TD*%
%TA.AperFunction,ComponentPad*%
%ADD38C,3.600000*%
%TD*%
%TA.AperFunction,ConnectorPad*%
%ADD39C,6.400000*%
%TD*%
%TA.AperFunction,SMDPad,CuDef*%
%ADD40R,1.879600X0.558800*%
%TD*%
%TA.AperFunction,SMDPad,CuDef*%
%ADD41RoundRect,0.250000X-0.625000X0.375000X-0.625000X-0.375000X0.625000X-0.375000X0.625000X0.375000X0*%
%TD*%
%TA.AperFunction,ComponentPad*%
%ADD42R,1.700000X1.700000*%
%TD*%
%TA.AperFunction,SMDPad,CuDef*%
%ADD43RoundRect,0.100000X-0.400000X-0.400000X0.400000X-0.400000X0.400000X0.400000X-0.400000X0.400000X0*%
%TD*%
%TA.AperFunction,SMDPad,CuDef*%
%ADD44RoundRect,0.105000X-0.420000X-0.995000X0.420000X-0.995000X0.420000X0.995000X-0.420000X0.995000X0*%
%TD*%
%TA.AperFunction,SMDPad,CuDef*%
%ADD45R,1.500000X1.000000*%
%TD*%
%TA.AperFunction,SMDPad,CuDef*%
%ADD46R,0.280000X0.280000*%
%TD*%
%TA.AperFunction,SMDPad,CuDef*%
%ADD47O,0.280000X0.850000*%
%TD*%
%TA.AperFunction,ComponentPad*%
%ADD48C,0.600000*%
%TD*%
%TA.AperFunction,SMDPad,CuDef*%
%ADD49R,1.050000X0.680000*%
%TD*%
%TA.AperFunction,SMDPad,CuDef*%
%ADD50R,0.500000X0.260000*%
%TD*%
%TA.AperFunction,SMDPad,CuDef*%
%ADD51R,0.700000X0.280000*%
%TD*%
%TA.AperFunction,SMDPad,CuDef*%
%ADD52R,2.400000X1.650000*%
%TD*%
%TA.AperFunction,ComponentPad*%
%ADD53R,2.000000X2.000000*%
%TD*%
%TA.AperFunction,ComponentPad*%
%ADD54C,2.000000*%
%TD*%
%TA.AperFunction,SMDPad,CuDef*%
%ADD55RoundRect,0.250001X0.944999X-0.507499X0.944999X0.507499X-0.944999X0.507499X-0.944999X-0.507499X0*%
%TD*%
%TA.AperFunction,ComponentPad*%
%ADD56R,1.574800X1.574800*%
%TD*%
%TA.AperFunction,ComponentPad*%
%ADD57C,1.574800*%
%TD*%
%TA.AperFunction,ComponentPad*%
%ADD58RoundRect,0.250000X0.550000X0.550000X-0.550000X0.550000X-0.550000X-0.550000X0.550000X-0.550000X0*%
%TD*%
%TA.AperFunction,ComponentPad*%
%ADD59O,1.700000X1.700000*%
%TD*%
%TA.AperFunction,ComponentPad*%
%ADD60RoundRect,0.250000X-0.550000X-0.550000X0.550000X-0.550000X0.550000X0.550000X-0.550000X0.550000X0*%
%TD*%
%TA.AperFunction,ComponentPad*%
%ADD61R,1.500000X1.050000*%
%TD*%
%TA.AperFunction,ComponentPad*%
%ADD62O,1.500000X1.050000*%
%TD*%
%TA.AperFunction,ComponentPad*%
%ADD63C,6.000000*%
%TD*%
%TA.AperFunction,SMDPad,CuDef*%
%ADD64RoundRect,0.250000X-0.850000X0.550000X-0.850000X-0.550000X0.850000X-0.550000X0.850000X0.550000X0*%
%TD*%
%TA.AperFunction,SMDPad,CuDef*%
%ADD65RoundRect,0.150000X-0.825000X-0.150000X0.825000X-0.150000X0.825000X0.150000X-0.825000X0.150000X0*%
%TD*%
%TA.AperFunction,ComponentPad*%
%ADD66RoundRect,0.250000X0.550000X-0.550000X0.550000X0.550000X-0.550000X0.550000X-0.550000X-0.550000X0*%
%TD*%
%TA.AperFunction,ViaPad*%
%ADD67C,0.800000*%
%TD*%
%TA.AperFunction,Conductor*%
%ADD68C,1.000000*%
%TD*%
%TA.AperFunction,Conductor*%
%ADD69C,0.600000*%
%TD*%
%TA.AperFunction,Conductor*%
%ADD70C,0.300000*%
%TD*%
%TA.AperFunction,Conductor*%
%ADD71C,1.200000*%
%TD*%
%TA.AperFunction,Conductor*%
%ADD72C,1.300000*%
%TD*%
%TA.AperFunction,Conductor*%
%ADD73C,0.800000*%
%TD*%
%TA.AperFunction,Conductor*%
%ADD74C,0.400000*%
%TD*%
%TA.AperFunction,Conductor*%
%ADD75C,0.250000*%
%TD*%
%TA.AperFunction,Conductor*%
%ADD76C,0.500000*%
%TD*%
%TA.AperFunction,Conductor*%
%ADD77C,0.200000*%
%TD*%
G04 APERTURE END LIST*
D10*
%TO.P,C14,1*%
%TO.N,Net-(D3-K)*%
X99851216Y-232918000D03*
D11*
%TO.P,C14,2*%
%TO.N,GND*%
X94851216Y-232918000D03*
%TD*%
D10*
%TO.P,J17,1,Pin_1*%
%TO.N,Net-(J17-Pin_1)*%
X137424800Y-216332500D03*
D11*
%TO.P,J17,2,Pin_2*%
%TO.N,Net-(J17-Pin_2)*%
X132424800Y-216332500D03*
%TD*%
D12*
%TO.P,U4,1,GPIO0*%
%TO.N,/AMUTE_CTRL*%
X81528000Y-287528000D03*
D13*
%TO.P,U4,2,GPIO1*%
%TO.N,PSU_CTRL*%
X84068000Y-287528000D03*
D14*
%TO.P,U4,3,GND*%
%TO.N,GND*%
X86608000Y-287528000D03*
D13*
%TO.P,U4,4,GPIO2*%
%TO.N,/DAC_PDN_CTRL*%
X89148000Y-287528000D03*
%TO.P,U4,5,GPIO3*%
%TO.N,/IR_OUT*%
X91688000Y-287528000D03*
%TO.P,U4,6,GPIO4*%
%TO.N,/F0*%
X94228000Y-287528000D03*
%TO.P,U4,7,GPIO5*%
%TO.N,/F1*%
X96768000Y-287528000D03*
D14*
%TO.P,U4,8,GND*%
%TO.N,GND*%
X99308000Y-287528000D03*
D13*
%TO.P,U4,9,GPIO6*%
%TO.N,/I2SIN_CTRL*%
X101848000Y-287528000D03*
%TO.P,U4,10,GPIO7*%
%TO.N,/LCD_SPI_RS{slash}DC*%
X104388000Y-287528000D03*
%TO.P,U4,11,GPIO8*%
%TO.N,/F2*%
X106928000Y-287528000D03*
%TO.P,U4,12,GPIO9*%
%TO.N,/F3*%
X109468000Y-287528000D03*
D14*
%TO.P,U4,13,GND*%
%TO.N,GND*%
X112008000Y-287528000D03*
D13*
%TO.P,U4,14,GPIO10*%
%TO.N,/DSDON*%
X114548000Y-287528000D03*
%TO.P,U4,15,GPIO11*%
%TO.N,/MUTEON*%
X117088000Y-287528000D03*
%TO.P,U4,16,GPIO12*%
%TO.N,/UART_TX*%
X119628000Y-287528000D03*
%TO.P,U4,17,GPIO13*%
%TO.N,/UART_RX*%
X122168000Y-287528000D03*
D14*
%TO.P,U4,18,GND*%
%TO.N,GND*%
X124708000Y-287528000D03*
D13*
%TO.P,U4,19,GPIO14*%
%TO.N,/DAC_I2C_SDA*%
X127248000Y-287528000D03*
%TO.P,U4,20,GPIO15*%
%TO.N,/DAC_I2C_SCL*%
X129788000Y-287528000D03*
%TO.P,U4,21,GPIO16*%
%TO.N,/ROTENC_A*%
X129788000Y-269748000D03*
%TO.P,U4,22,GPIO17*%
%TO.N,/ROTENC_B*%
X127248000Y-269748000D03*
D15*
%TO.P,U4,23,GND*%
%TO.N,GND*%
X124708000Y-269748000D03*
D13*
%TO.P,U4,24,GPIO18*%
%TO.N,/LCD_SPI_SCK*%
X122168000Y-269748000D03*
%TO.P,U4,25,GPIO19*%
%TO.N,/LCD_SPI_TX*%
X119628000Y-269748000D03*
%TO.P,U4,26,GPIO20*%
%TO.N,/LCD_SPI_RST*%
X117088000Y-269748000D03*
%TO.P,U4,27,GPIO21*%
%TO.N,/ROTENC_S2*%
X114548000Y-269748000D03*
D15*
%TO.P,U4,28,GND*%
%TO.N,GND*%
X112008000Y-269748000D03*
D13*
%TO.P,U4,29,GPIO22*%
%TO.N,/LCD_LIGHT_CTRL*%
X109468000Y-269748000D03*
%TO.P,U4,30,RUN*%
%TO.N,unconnected-(U4-RUN-Pad30)*%
X106928000Y-269748000D03*
%TO.P,U4,31,GPIO26_ADC0*%
%TO.N,unconnected-(U4-GPIO26_ADC0-Pad31)*%
X104388000Y-269748000D03*
%TO.P,U4,32,GPIO27_ADC1*%
%TO.N,unconnected-(U4-GPIO27_ADC1-Pad32)*%
X101848000Y-269748000D03*
D15*
%TO.P,U4,33,AGND*%
%TO.N,unconnected-(U4-AGND-Pad33)*%
X99308000Y-269748000D03*
D13*
%TO.P,U4,34,GPIO28_ADC2*%
%TO.N,unconnected-(U4-GPIO28_ADC2-Pad34)*%
X96768000Y-269748000D03*
%TO.P,U4,35,ADC_VREF*%
%TO.N,unconnected-(U4-ADC_VREF-Pad35)*%
X94228000Y-269748000D03*
%TO.P,U4,36,3V3*%
%TO.N,/PICO_3.3V_OUT*%
X91688000Y-269748000D03*
%TO.P,U4,37,3V3_EN*%
%TO.N,unconnected-(U4-3V3_EN-Pad37)*%
X89148000Y-269748000D03*
D15*
%TO.P,U4,38,GND*%
%TO.N,GND*%
X86608000Y-269748000D03*
D13*
%TO.P,U4,39,VSYS*%
%TO.N,+5V*%
X84068000Y-269748000D03*
%TO.P,U4,40,VBUS*%
%TO.N,unconnected-(U4-VBUS-Pad40)*%
X81528000Y-269748000D03*
%TD*%
D16*
%TO.P,U8,1,VO*%
%TO.N,+5VA_DAC_VREFH_5V*%
X206375000Y-296926000D03*
D17*
%TO.P,U8,2,GND*%
%TO.N,GND3*%
X208915000Y-296926000D03*
%TO.P,U8,3,VI*%
%TO.N,Net-(D4-A)*%
X211455000Y-296926000D03*
%TD*%
D11*
%TO.P,R23,1*%
%TO.N,Net-(D3-K)*%
X109108000Y-227838000D03*
%TO.P,R23,2*%
%TO.N,Net-(D5-+)*%
X116728000Y-227838000D03*
%TD*%
D18*
%TO.P,U12,1,ADJ*%
%TO.N,Net-(U12-ADJ)*%
X174577000Y-246205000D03*
D19*
%TO.P,U12,2,VO*%
%TO.N,Net-(D4-A)*%
X174577000Y-243665000D03*
%TO.P,U12,3,VI*%
%TO.N,Net-(D4-K)*%
X174577000Y-241125000D03*
%TD*%
D20*
%TO.P,R22,1*%
%TO.N,Net-(U14-FBN)*%
X203477711Y-255585908D03*
%TO.P,R22,2*%
%TO.N,-12V*%
X200377711Y-255585908D03*
%TD*%
D21*
%TO.P,R3,1*%
%TO.N,Net-(D2-A)*%
X158385139Y-266200133D03*
%TO.P,R3,2*%
%TO.N,Net-(D1-K)*%
X158385139Y-269125133D03*
%TD*%
D22*
%TO.P,R2,1*%
%TO.N,/PICO_3.3V_OUT*%
X147321928Y-316173048D03*
%TO.P,R2,2*%
%TO.N,/I2SIN_CTRL_INV*%
X147321928Y-319273048D03*
%TD*%
D23*
%TO.P,D7,1,-*%
%TO.N,Net-(D7--)*%
X214295200Y-227589600D03*
D24*
%TO.P,D7,2*%
%TO.N,Net-(J15-Pin_2)*%
X219375200Y-227589600D03*
%TO.P,D7,3*%
%TO.N,Net-(J8-Pin_1)*%
X224455200Y-227589600D03*
%TO.P,D7,4,+*%
%TO.N,Net-(D7-+)*%
X229535200Y-227589600D03*
%TD*%
D16*
%TO.P,U10,1,VO*%
%TO.N,+3.3VA DAC_AVDD_3v3*%
X189547500Y-296926000D03*
D17*
%TO.P,U10,2,GND*%
%TO.N,GND3*%
X192087500Y-296926000D03*
%TO.P,U10,3,VI*%
%TO.N,Net-(D4-A)*%
X194627500Y-296926000D03*
%TD*%
D25*
%TO.P,J12,1,Pin_1*%
%TO.N,/LCD_SPI_TX*%
X119830000Y-258497500D03*
D26*
%TO.P,J12,2,Pin_2*%
%TO.N,GND*%
X119830000Y-261037500D03*
%TO.P,J12,3,Pin_3*%
%TO.N,+5V*%
X117290000Y-258497500D03*
%TO.P,J12,4,Pin_4*%
%TO.N,/LCD_SPI_RST*%
X117290000Y-261037500D03*
%TO.P,J12,5,Pin_5*%
%TO.N,+5V*%
X114750000Y-258497500D03*
%TO.P,J12,6,Pin_6*%
%TO.N,/LCD_SPI_SCK*%
X114750000Y-261037500D03*
%TO.P,J12,7,Pin_7*%
%TO.N,/LCD_SPI_RS{slash}DC*%
X112210000Y-258497500D03*
%TO.P,J12,8,Pin_8*%
%TO.N,/LCD_BLK_GND*%
X112210000Y-261037500D03*
%TO.P,J12,9,Pin_9*%
%TO.N,GND*%
X109670000Y-258497500D03*
%TO.P,J12,10,Pin_10*%
X109670000Y-261037500D03*
%TD*%
D20*
%TO.P,R21,1*%
%TO.N,Net-(U14-BUF)*%
X209229265Y-255585908D03*
%TO.P,R21,2*%
%TO.N,Net-(U14-FBN)*%
X206129265Y-255585908D03*
%TD*%
D27*
%TO.P,C3,1*%
%TO.N,GND*%
X158941164Y-316551622D03*
%TO.P,C3,2*%
%TO.N,/PICO_3.3V_OUT*%
X158941164Y-319676622D03*
%TD*%
D28*
%TO.P,R12,1*%
%TO.N,/PICO_3.3V_OUT*%
X142217722Y-302405474D03*
%TO.P,R12,2*%
%TO.N,/DAC_PDN_CTRL*%
X145317722Y-302405474D03*
%TD*%
D29*
%TO.P,C24,1*%
%TO.N,Net-(D7--)*%
X204763800Y-240643901D03*
%TO.P,C24,2*%
%TO.N,GND3*%
X201638800Y-240643901D03*
%TD*%
D30*
%TO.P,C13,1*%
%TO.N,Net-(D7-+)*%
X228149724Y-239104866D03*
D13*
%TO.P,C13,2*%
%TO.N,Net-(D7--)*%
X228149724Y-241104866D03*
%TD*%
D22*
%TO.P,R9,1*%
%TO.N,Net-(Q4-B)*%
X87024920Y-236107810D03*
%TO.P,R9,2*%
%TO.N,PSU_CTRL*%
X87024920Y-239207810D03*
%TD*%
D31*
%TO.P,U2,1,OE*%
%TO.N,/I2SIN_CTRL*%
X142025241Y-325245786D03*
%TO.P,U2,2,D0*%
%TO.N,/DAC_I2S_MCK_A*%
X142025241Y-326515786D03*
%TO.P,U2,3,D1*%
%TO.N,GND*%
X142025241Y-327785786D03*
%TO.P,U2,4,D2*%
%TO.N,/DAC_I2S_LR_A*%
X142025241Y-329055786D03*
%TO.P,U2,5,D3*%
%TO.N,GND*%
X142025241Y-330325786D03*
%TO.P,U2,6,D4*%
%TO.N,/DAC_I2S_SCK_A*%
X142025241Y-331595786D03*
%TO.P,U2,7,D5*%
%TO.N,GND*%
X142025241Y-332865786D03*
%TO.P,U2,8,D6*%
%TO.N,/DAC_I2S_SD_A*%
X142025241Y-334135786D03*
%TO.P,U2,9,D7*%
%TO.N,GND*%
X142025241Y-335405786D03*
%TO.P,U2,10,GND*%
X142025241Y-336675786D03*
%TO.P,U2,11,Load*%
%TO.N,/PICO_3.3V_OUT*%
X151325241Y-336675786D03*
%TO.P,U2,12,Q7*%
%TO.N,unconnected-(U2-Q7-Pad12)*%
X151325241Y-335405786D03*
%TO.P,U2,13,Q6*%
%TO.N,/DAC_I2S_SD*%
X151325241Y-334135786D03*
%TO.P,U2,14,Q5*%
%TO.N,unconnected-(U2-Q5-Pad14)*%
X151325241Y-332865786D03*
%TO.P,U2,15,Q4*%
%TO.N,/DAC_I2S_SCK*%
X151325241Y-331595786D03*
%TO.P,U2,16,Q3*%
%TO.N,unconnected-(U2-Q3-Pad16)*%
X151325241Y-330325786D03*
%TO.P,U2,17,Q2*%
%TO.N,/DAC_I2S_LR*%
X151325241Y-329055786D03*
%TO.P,U2,18,Q1*%
%TO.N,unconnected-(U2-Q1-Pad18)*%
X151325241Y-327785786D03*
%TO.P,U2,19,Q0*%
%TO.N,/DAC_I2S_MCK*%
X151325241Y-326515786D03*
%TO.P,U2,20,VCC*%
%TO.N,/PICO_3.3V_OUT*%
X151325241Y-325245786D03*
%TD*%
D20*
%TO.P,R19,1*%
%TO.N,+12V*%
X218517718Y-255585908D03*
%TO.P,R19,2*%
%TO.N,Net-(U14-FBP)*%
X215417718Y-255585908D03*
%TD*%
D32*
%TO.P,R17,1*%
%TO.N,GND*%
X148176849Y-281249584D03*
%TO.P,R17,2*%
%TO.N,Net-(Q3-B)*%
X148176849Y-278149584D03*
%TD*%
D33*
%TO.P,C17,1*%
%TO.N,-12V*%
X200395211Y-262531574D03*
%TO.P,C17,2*%
%TO.N,GND3*%
X203520211Y-262531574D03*
%TD*%
D34*
%TO.P,C6,1*%
%TO.N,/DAC_3.3V_OUT*%
X169106408Y-345613263D03*
%TO.P,C6,2*%
%TO.N,GND3*%
X169106408Y-342488263D03*
%TD*%
D27*
%TO.P,C2,1*%
%TO.N,GND*%
X152239469Y-320026256D03*
%TO.P,C2,2*%
%TO.N,/PICO_3.3V_OUT*%
X152239469Y-323151256D03*
%TD*%
D35*
%TO.P,Q2,1,D*%
%TO.N,/I2SIN_CTRL_INV*%
X144311949Y-319045000D03*
D36*
%TO.P,Q2,2,G*%
%TO.N,/I2SIN_CTRL*%
X143041949Y-319045000D03*
%TO.P,Q2,3,S*%
%TO.N,GND*%
X141771949Y-319045000D03*
%TD*%
D37*
%TO.P,C20,1*%
%TO.N,GND3*%
X201773800Y-237033786D03*
%TO.P,C20,2*%
%TO.N,Net-(D7--)*%
X205028800Y-237033786D03*
%TD*%
D25*
%TO.P,J10,1,Pin_1*%
%TO.N,GND*%
X138418598Y-258581500D03*
D26*
%TO.P,J10,2,Pin_2*%
%TO.N,/ROTENC_A*%
X138418598Y-261121500D03*
%TO.P,J10,3,Pin_3*%
%TO.N,unconnected-(J10-Pin_3-Pad3)*%
X135878598Y-258581500D03*
%TO.P,J10,4,Pin_4*%
%TO.N,/ROTENC_B*%
X135878598Y-261121500D03*
%TO.P,J10,5,Pin_5*%
%TO.N,unconnected-(J10-Pin_5-Pad5)*%
X133338598Y-258581500D03*
%TO.P,J10,6,Pin_6*%
%TO.N,/ROTENC_S2*%
X133338598Y-261121500D03*
%TD*%
D38*
%TO.P,H7,1,1*%
%TO.N,GND*%
X80123169Y-359793685D03*
D39*
X80123169Y-359793685D03*
%TD*%
D28*
%TO.P,R18,1*%
%TO.N,GND*%
X98618355Y-256033334D03*
%TO.P,R18,2*%
%TO.N,Net-(Q1-B)*%
X101718355Y-256033334D03*
%TD*%
D40*
%TO.P,U6,1,VDD1*%
%TO.N,/AMANERO_3.3V_OUT*%
X159613967Y-348209376D03*
%TO.P,U6,2,GND1*%
%TO.N,GND*%
X159613967Y-349479376D03*
%TO.P,U6,3,IN1*%
%TO.N,/DAC_I2S_MCK*%
X159613967Y-350749376D03*
%TO.P,U6,4,IN2*%
%TO.N,/DAC_I2S_LR*%
X159613967Y-352019376D03*
%TO.P,U6,5,IN3*%
%TO.N,/DAC_I2S_SCK*%
X159613967Y-353289376D03*
%TO.P,U6,6,IN4*%
%TO.N,/DAC_I2S_SD*%
X159613967Y-354559376D03*
%TO.P,U6,7,NC*%
%TO.N,unconnected-(U6-NC-Pad7)*%
X159613967Y-355829376D03*
%TO.P,U6,8,GND1*%
%TO.N,GND*%
X159613967Y-357099376D03*
%TO.P,U6,9,GND2*%
%TO.N,GND3*%
X169088167Y-357099376D03*
%TO.P,U6,10,NC*%
%TO.N,unconnected-(U6-NC-Pad10)*%
X169088167Y-355829376D03*
%TO.P,U6,11,OUT4*%
%TO.N,/DAC_I2S_SD_ISO*%
X169088167Y-354559376D03*
%TO.P,U6,12,OUT3*%
%TO.N,/DAC_I2S_SCK_ISO*%
X169088167Y-353289376D03*
%TO.P,U6,13,OUT2*%
%TO.N,/DAC_I2S_LR_ISO*%
X169088167Y-352019376D03*
%TO.P,U6,14,OUT1*%
%TO.N,/DAC_I2S_MCK_ISO*%
X169088167Y-350749376D03*
%TO.P,U6,15,GND2*%
%TO.N,GND3*%
X169088167Y-349479376D03*
%TO.P,U6,16,VDD2*%
%TO.N,/DAC_3.3V_OUT*%
X169088167Y-348209376D03*
%TD*%
D10*
%TO.P,J7,1,Pin_1*%
%TO.N,Net-(J7-Pin_1)*%
X176007400Y-216332500D03*
D11*
%TO.P,J7,2,Pin_2*%
%TO.N,Net-(J7-Pin_2)*%
X171007400Y-216332500D03*
%TD*%
D28*
%TO.P,R4,1*%
%TO.N,/AMUTE_CTRL*%
X144964207Y-275963449D03*
%TO.P,R4,2*%
%TO.N,Net-(Q3-B)*%
X148064207Y-275963449D03*
%TD*%
D33*
%TO.P,C16,1*%
%TO.N,GND3*%
X215375218Y-262531574D03*
%TO.P,C16,2*%
%TO.N,+12V*%
X218500218Y-262531574D03*
%TD*%
D22*
%TO.P,R13,1*%
%TO.N,/DAC_3.3V_OUT*%
X175186031Y-320097918D03*
%TO.P,R13,2*%
%TO.N,/DAC_I2C_SDA_ISO*%
X175186031Y-323197918D03*
%TD*%
D41*
%TO.P,D1,1,K*%
%TO.N,Net-(D1-K)*%
X158324880Y-271225279D03*
%TO.P,D1,2,A*%
%TO.N,+5V*%
X158324880Y-274025279D03*
%TD*%
D42*
%TO.P,J16,1,Pin_1*%
%TO.N,/UART_TX*%
X128285000Y-292710000D03*
D26*
%TO.P,J16,2,Pin_2*%
%TO.N,/UART_RX*%
X130825000Y-292710000D03*
%TO.P,J16,3,Pin_3*%
%TO.N,GND*%
X133365000Y-292710000D03*
%TD*%
D38*
%TO.P,H5,1,1*%
%TO.N,GND3*%
X245123169Y-369793685D03*
D39*
X245123169Y-369793685D03*
%TD*%
D10*
%TO.P,J21,1,Pin_1*%
%TO.N,/psu/220_N*%
X97470600Y-216332500D03*
D11*
%TO.P,J21,2,Pin_2*%
%TO.N,/psu/220_L_RAW*%
X92470600Y-216332500D03*
%TD*%
D10*
%TO.P,J15,1,Pin_1*%
%TO.N,Net-(J15-Pin_1)*%
X218654000Y-216332500D03*
D11*
%TO.P,J15,2,Pin_2*%
%TO.N,Net-(J15-Pin_2)*%
X213654000Y-216332500D03*
%TD*%
D43*
%TO.P,J4,1,In*%
%TO.N,/DAC_I2S_MCK_A*%
X113688525Y-302379366D03*
D44*
%TO.P,J4,2,Ext*%
%TO.N,GND*%
X115163525Y-303879366D03*
D43*
X113688525Y-305379366D03*
D44*
X112213525Y-303879366D03*
%TD*%
D45*
%TO.P,JP1,1,A*%
%TO.N,/DAC_PDN_CTRL_ISO*%
X169632146Y-331297261D03*
%TO.P,JP1,2,B*%
%TO.N,/DAC_3.3V_OUT*%
X169632146Y-332597261D03*
%TD*%
D38*
%TO.P,H2,1,1*%
%TO.N,GND*%
X160123169Y-369793685D03*
D39*
X160123169Y-369793685D03*
%TD*%
D43*
%TO.P,J2,1,In*%
%TO.N,/DAC_I2S_LR_A*%
X113688525Y-308429366D03*
D44*
%TO.P,J2,2,Ext*%
%TO.N,GND*%
X115163525Y-309929366D03*
D43*
X113688525Y-311429366D03*
D44*
X112213525Y-309929366D03*
%TD*%
D46*
%TO.P,U14,1,INP*%
%TO.N,Net-(D7-+)*%
X210782106Y-245884253D03*
D47*
X210782106Y-246169253D03*
D46*
%TO.P,U14,2,EN*%
X210282106Y-245884253D03*
D47*
X210282106Y-246169253D03*
D46*
%TO.P,U14,3,NR/SS*%
%TO.N,Net-(U14-NR{slash}SS)*%
X209782106Y-245884253D03*
D47*
X209782106Y-246169253D03*
D46*
%TO.P,U14,4,GND*%
%TO.N,GND3*%
X209282106Y-245884253D03*
D47*
X209282106Y-246169253D03*
D46*
%TO.P,U14,5,INN*%
%TO.N,Net-(D7--)*%
X208782106Y-245884253D03*
D47*
X208782106Y-246169253D03*
%TO.P,U14,6,OUTN*%
%TO.N,-12V*%
X208782106Y-249119253D03*
D46*
X208782106Y-249404253D03*
D47*
%TO.P,U14,7,FBN*%
%TO.N,Net-(U14-FBN)*%
X209282106Y-249119253D03*
D46*
X209282106Y-249404253D03*
D47*
%TO.P,U14,8,BUF*%
%TO.N,Net-(U14-BUF)*%
X209782106Y-249119253D03*
D46*
X209782106Y-249404253D03*
D47*
%TO.P,U14,9,FBP*%
%TO.N,Net-(U14-FBP)*%
X210282106Y-249119253D03*
D46*
X210282106Y-249404253D03*
D47*
%TO.P,U14,10,OUTP*%
%TO.N,+12V*%
X210782106Y-249119253D03*
D46*
X210782106Y-249404253D03*
D48*
%TO.P,U14,11,GND*%
%TO.N,GND3*%
X210532106Y-247144253D03*
X209032106Y-247144253D03*
D49*
X210417106Y-247194253D03*
X209147106Y-247194253D03*
D50*
X211412106Y-247394253D03*
D51*
X211332106Y-247394253D03*
X208232106Y-247394253D03*
D50*
X208152106Y-247394253D03*
D48*
X209782106Y-247644253D03*
D52*
X209782106Y-247644253D03*
D50*
X211412106Y-247894253D03*
D51*
X211332106Y-247894253D03*
X208232106Y-247894253D03*
D50*
X208152106Y-247894253D03*
D49*
X210417106Y-248094253D03*
X209147106Y-248094253D03*
D48*
X210532106Y-248144253D03*
X209032106Y-248144253D03*
%TD*%
D22*
%TO.P,R15,1*%
%TO.N,/DAC_3.3V_OUT*%
X182288419Y-320097918D03*
%TO.P,R15,2*%
%TO.N,/DAC_PDN_CTRL_ISO*%
X182288419Y-323197918D03*
%TD*%
D42*
%TO.P,J11,1,Pin_1*%
%TO.N,GND*%
X95616000Y-256413000D03*
D26*
%TO.P,J11,2,Pin_2*%
%TO.N,/IR_OUT*%
X93076000Y-256413000D03*
%TO.P,J11,3,Pin_3*%
%TO.N,+5V*%
X90536000Y-256413000D03*
%TD*%
D27*
%TO.P,C18,1*%
%TO.N,GND3*%
X209638233Y-237751401D03*
%TO.P,C18,2*%
%TO.N,Net-(U14-NR{slash}SS)*%
X209638233Y-240876401D03*
%TD*%
D33*
%TO.P,C22,1*%
%TO.N,-12V*%
X200395211Y-259205418D03*
%TO.P,C22,2*%
%TO.N,Net-(U14-FBN)*%
X203520211Y-259205418D03*
%TD*%
D42*
%TO.P,J20,1,Pin_1*%
%TO.N,GND3*%
X173767762Y-277876000D03*
D26*
%TO.P,J20,2,Pin_2*%
%TO.N,Net-(J20-Pin_2)*%
X171227762Y-277876000D03*
%TD*%
D16*
%TO.P,U9,1,VO*%
%TO.N,+3.3VA DAC_TVDD_3v3*%
X172720000Y-296860000D03*
D17*
%TO.P,U9,2,GND*%
%TO.N,GND3*%
X175260000Y-296860000D03*
%TO.P,U9,3,VI*%
%TO.N,Net-(D4-A)*%
X177800000Y-296860000D03*
%TD*%
D13*
%TO.P,J14,1,Pin_1*%
%TO.N,unconnected-(J14-Pin_1-Pad1)*%
X137097500Y-372002000D03*
%TO.P,J14,2,Pin_2*%
%TO.N,unconnected-(J14-Pin_2-Pad2)*%
X137097500Y-369502000D03*
%TO.P,J14,3,Pin_3*%
%TO.N,/DAC_I2S_SD_B*%
X137097500Y-366962000D03*
%TO.P,J14,4,Pin_4*%
%TO.N,/DAC_I2S_SCK_B*%
X137097500Y-364422000D03*
%TO.P,J14,5,Pin_5*%
%TO.N,/DAC_I2S_LR_B*%
X137097500Y-361882000D03*
%TO.P,J14,6,Pin_6*%
%TO.N,/DAC_I2S_MCK_B*%
X137097500Y-359342000D03*
%TO.P,J14,7,Pin_7*%
%TO.N,/DSDON*%
X137097500Y-356802000D03*
%TO.P,J14,8,Pin_8*%
%TO.N,GND*%
X137097500Y-354262000D03*
%TO.P,J14,9,Pin_9*%
%TO.N,/AMANERO_3.3V_OUT*%
X137097500Y-351722000D03*
%TO.P,J14,10,Pin_10*%
X137097500Y-349182000D03*
%TO.P,J14,11,Pin_11*%
%TO.N,/MUTEON*%
X134557500Y-372002000D03*
%TO.P,J14,12,Pin_12*%
%TO.N,unconnected-(J14-Pin_12-Pad12)*%
X134597500Y-369502000D03*
%TO.P,J14,13,Pin_13*%
%TO.N,GND*%
X134597500Y-366962000D03*
%TO.P,J14,14,Pin_14*%
X134597500Y-364422000D03*
%TO.P,J14,15,Pin_15*%
X134597500Y-361882000D03*
%TO.P,J14,16,Pin_16*%
%TO.N,unconnected-(J14-Pin_16-Pad16)*%
X134597500Y-359342000D03*
%TO.P,J14,17,Pin_17*%
%TO.N,/F0*%
X134597500Y-356802000D03*
%TO.P,J14,18,Pin_18*%
%TO.N,/F1*%
X134597500Y-354262000D03*
%TO.P,J14,19,Pin_19*%
%TO.N,/F2*%
X134597500Y-351722000D03*
%TO.P,J14,20,Pin_20*%
%TO.N,/F3*%
X134597500Y-349182000D03*
%TO.P,J14,21,Pin_21*%
%TO.N,+5VP*%
X87122500Y-346952000D03*
%TO.P,J14,22,Pin_22*%
%TO.N,GND*%
X89622500Y-346952000D03*
%TD*%
D53*
%TO.P,K1,1*%
%TO.N,+5V*%
X162591762Y-272288000D03*
D54*
%TO.P,K1,3*%
%TO.N,GND3*%
X167671762Y-272288000D03*
%TO.P,K1,4*%
%TO.N,Net-(J20-Pin_2)*%
X170211762Y-272288000D03*
%TO.P,K1,5*%
%TO.N,/MUT_OUT_R*%
X172751762Y-272288000D03*
%TO.P,K1,8*%
%TO.N,/MUT_OUT_L*%
X172751762Y-267208000D03*
%TO.P,K1,9*%
%TO.N,Net-(J19-Pin_2)*%
X170211762Y-267208000D03*
%TO.P,K1,10*%
%TO.N,GND3*%
X167671762Y-267208000D03*
%TO.P,K1,12*%
%TO.N,Net-(D2-A)*%
X162591762Y-267208000D03*
%TD*%
D55*
%TO.P,C19,1*%
%TO.N,Net-(D7-+)*%
X217688719Y-239651286D03*
%TO.P,C19,2*%
%TO.N,GND3*%
X217688719Y-236396286D03*
%TD*%
D10*
%TO.P,C15,1*%
%TO.N,Net-(D4-K)*%
X157426806Y-235729501D03*
D11*
%TO.P,C15,2*%
%TO.N,GND3*%
X152426806Y-235729501D03*
%TD*%
D56*
%TO.P,U7,1,-VIN(GND)*%
%TO.N,Net-(D7--)*%
X233382000Y-257175000D03*
D57*
%TO.P,U7,2,REMOTE_ON/OFF*%
%TO.N,unconnected-(U7-REMOTE_ON{slash}OFF-Pad2)*%
X233382000Y-259715000D03*
%TO.P,U7,6,COMMON*%
%TO.N,GND3*%
X233382000Y-269875000D03*
%TO.P,U7,7,-VOUT*%
%TO.N,-12V*%
X233382000Y-272415000D03*
%TO.P,U7,8,+VOUT*%
%TO.N,+12V*%
X246932001Y-272415000D03*
%TO.P,U7,9,COMMON*%
%TO.N,GND3*%
X246932001Y-269875000D03*
%TO.P,U7,14,+VIN(VCC)*%
%TO.N,Net-(U7-+VIN(VCC))*%
X246932001Y-257175000D03*
%TD*%
D58*
%TO.P,C12,1*%
%TO.N,Net-(U7-+VIN(VCC))*%
X234248239Y-250698000D03*
D13*
%TO.P,C12,2*%
%TO.N,Net-(D7--)*%
X232248239Y-250698000D03*
%TD*%
D16*
%TO.P,U11,1,ADJ*%
%TO.N,Net-(U11-ADJ)*%
X121666000Y-242316000D03*
D17*
%TO.P,U11,2,VO*%
%TO.N,+5V*%
X124206000Y-242316000D03*
%TO.P,U11,3,VI*%
%TO.N,Net-(D3-K)*%
X126746000Y-242316000D03*
%TD*%
D22*
%TO.P,R14,1*%
%TO.N,/DAC_3.3V_OUT*%
X178737225Y-320097918D03*
%TO.P,R14,2*%
%TO.N,/DAC_I2C_SCL_ISO*%
X178737225Y-323197918D03*
%TD*%
D34*
%TO.P,C9,1*%
%TO.N,GND3*%
X229298563Y-260312203D03*
%TO.P,C9,2*%
%TO.N,Net-(D7--)*%
X229298563Y-257187203D03*
%TD*%
D32*
%TO.P,R20,1*%
%TO.N,GND3*%
X212446303Y-258455908D03*
%TO.P,R20,2*%
%TO.N,Net-(U14-FBP)*%
X212446303Y-255355908D03*
%TD*%
D35*
%TO.P,Q1,1,C*%
%TO.N,/LCD_BLK_GND*%
X102362000Y-261133000D03*
D36*
%TO.P,Q1,2,B*%
%TO.N,Net-(Q1-B)*%
X101092000Y-261133000D03*
%TO.P,Q1,3,E*%
%TO.N,GND*%
X99822000Y-261133000D03*
%TD*%
D42*
%TO.P,J13,1,Pin_1*%
%TO.N,GND3*%
X178265600Y-351409000D03*
D59*
%TO.P,J13,2,Pin_2*%
%TO.N,/DAC_I2S_MCK_ISO*%
X175725600Y-351409000D03*
%TO.P,J13,3,Pin_3*%
%TO.N,GND3*%
X178265600Y-348869000D03*
%TO.P,J13,4,Pin_4*%
%TO.N,/DAC_I2S_LR_ISO*%
X175725600Y-348869000D03*
%TO.P,J13,5,Pin_5*%
%TO.N,GND3*%
X178265600Y-346329000D03*
%TO.P,J13,6,Pin_6*%
%TO.N,/DAC_I2S_SCK_ISO*%
X175725600Y-346329000D03*
%TO.P,J13,7,Pin_7*%
%TO.N,GND3*%
X178265600Y-343789000D03*
%TO.P,J13,8,Pin_8*%
%TO.N,/DAC_I2S_SD_ISO*%
X175725600Y-343789000D03*
%TO.P,J13,9,Pin_9*%
%TO.N,GND3*%
X178265600Y-341249000D03*
%TO.P,J13,10,Pin_10*%
X175725600Y-341249000D03*
%TO.P,J13,11,Pin_11*%
%TO.N,/DAC_3.3V_OUT*%
X178265600Y-338709000D03*
%TO.P,J13,12,Pin_12*%
X175725600Y-338709000D03*
%TO.P,J13,13,Pin_13*%
%TO.N,unconnected-(J13-Pin_13-Pad13)*%
X178265600Y-336169000D03*
%TO.P,J13,14,Pin_14*%
%TO.N,unconnected-(J13-Pin_14-Pad14)*%
X175725600Y-336169000D03*
%TO.P,J13,15,Pin_15*%
%TO.N,/DAC_PDN_CTRL_ISO*%
X178265600Y-333629000D03*
%TO.P,J13,16,Pin_16*%
%TO.N,GND3*%
X175725600Y-333629000D03*
%TO.P,J13,17,Pin_17*%
X178265600Y-331089000D03*
%TO.P,J13,18,Pin_18*%
%TO.N,/DAC_I2C_SCL_ISO*%
X175725600Y-331089000D03*
%TO.P,J13,19,Pin_19*%
%TO.N,GND3*%
X178265600Y-328549000D03*
%TO.P,J13,20,Pin_20*%
%TO.N,/DAC_I2C_SDA_ISO*%
X175725600Y-328549000D03*
%TO.P,J13,21,Pin_21*%
%TO.N,GND3*%
X180016800Y-313067600D03*
X179661199Y-308089200D03*
D42*
%TO.P,J13,22,Pin_22*%
%TO.N,+3.3VA DAC_TVDD_3v3*%
X182556800Y-313067600D03*
X182201199Y-308089200D03*
D59*
%TO.P,J13,23,Pin_23*%
%TO.N,GND3*%
X190156000Y-313067600D03*
X197718600Y-308089200D03*
D42*
%TO.P,J13,24,Pin_24*%
%TO.N,+3.3VA DAC_AVDD_3v3*%
X192696000Y-313067600D03*
X200258600Y-308089200D03*
D59*
%TO.P,J13,25,Pin_25*%
%TO.N,GND3*%
X201703800Y-313067600D03*
X208649563Y-308089200D03*
D42*
%TO.P,J13,26,Pin_26*%
%TO.N,+5VA_DAC_VREFH_5V*%
X204243800Y-313067600D03*
X211189563Y-308089200D03*
%TO.P,J13,27,Pin_27*%
%TO.N,GND3*%
X232821400Y-320090800D03*
X243898200Y-319830000D03*
D59*
%TO.P,J13,28,Pin_28*%
%TO.N,/MUT_OUT_L*%
X232821400Y-322630800D03*
X243898200Y-322370000D03*
D42*
%TO.P,J13,29,Pin_29*%
%TO.N,+12V*%
X232821400Y-337083400D03*
X244152200Y-337005400D03*
D59*
%TO.P,J13,30,Pin_30*%
%TO.N,GND3*%
X232821400Y-339623400D03*
X244152200Y-339545400D03*
%TO.P,J13,31,Pin_31*%
%TO.N,-12V*%
X232821400Y-342163400D03*
X244152200Y-342085400D03*
D42*
%TO.P,J13,32,Pin_32*%
%TO.N,GND3*%
X243898200Y-356507600D03*
X232846800Y-355955600D03*
D59*
%TO.P,J13,33,Pin_33*%
%TO.N,/MUT_OUT_R*%
X243898200Y-359047600D03*
X232846800Y-358495600D03*
%TD*%
D60*
%TO.P,C10,1*%
%TO.N,Net-(U11-ADJ)*%
X121158000Y-250952000D03*
D13*
%TO.P,C10,2*%
%TO.N,GND*%
X123158000Y-250952000D03*
%TD*%
D20*
%TO.P,R1,1*%
%TO.N,/LCD_LIGHT_CTRL*%
X102941429Y-265586937D03*
%TO.P,R1,2*%
%TO.N,Net-(Q1-B)*%
X99841429Y-265586937D03*
%TD*%
D34*
%TO.P,C5,1*%
%TO.N,/DAC_3.3V_OUT*%
X169371818Y-319676622D03*
%TO.P,C5,2*%
%TO.N,GND3*%
X169371818Y-316551622D03*
%TD*%
D32*
%TO.P,R16,1*%
%TO.N,GND*%
X81603339Y-235309379D03*
%TO.P,R16,2*%
%TO.N,Net-(Q4-B)*%
X81603339Y-232209379D03*
%TD*%
D61*
%TO.P,Q4,1,C*%
%TO.N,Net-(D8-A)*%
X85535590Y-230884389D03*
D62*
%TO.P,Q4,2,B*%
%TO.N,Net-(Q4-B)*%
X85535590Y-232154389D03*
%TO.P,Q4,3,E*%
%TO.N,GND*%
X85535590Y-233424389D03*
%TD*%
D53*
%TO.P,K2,1*%
%TO.N,+5V*%
X80373527Y-214772500D03*
D54*
%TO.P,K2,3*%
%TO.N,unconnected-(K2-Pad3)*%
X80373527Y-219852500D03*
%TO.P,K2,4*%
%TO.N,+5V*%
X80373527Y-222392500D03*
%TO.P,K2,5*%
%TO.N,+5VP*%
X80373527Y-224932500D03*
%TO.P,K2,8*%
%TO.N,/psu/220_L_SWITCHED*%
X85453527Y-224932500D03*
%TO.P,K2,9*%
%TO.N,/psu/220_L_RAW*%
X85453527Y-222392500D03*
%TO.P,K2,10*%
%TO.N,unconnected-(K2-Pad10)*%
X85453527Y-219852500D03*
%TO.P,K2,12*%
%TO.N,Net-(D8-A)*%
X85453527Y-214772500D03*
%TD*%
D58*
%TO.P,C7,1*%
%TO.N,+5V*%
X98934651Y-244602000D03*
D13*
%TO.P,C7,2*%
%TO.N,GND*%
X95434651Y-244602000D03*
%TD*%
D63*
%TO.P,HS1,1*%
%TO.N,unconnected-(HS1-Pad1)*%
X136971752Y-237880181D03*
%TO.N,unconnected-(HS1-Pad1)_1*%
X111571752Y-237880181D03*
%TD*%
D34*
%TO.P,C1,1*%
%TO.N,/PICO_3.3V_OUT*%
X151419852Y-354980951D03*
%TO.P,C1,2*%
%TO.N,GND*%
X151419852Y-351855951D03*
%TD*%
D28*
%TO.P,R11,1*%
%TO.N,/PICO_3.3V_OUT*%
X142291537Y-299685885D03*
%TO.P,R11,2*%
%TO.N,/DAC_I2C_SCL*%
X145391537Y-299685885D03*
%TD*%
D31*
%TO.P,U3,1,OE*%
%TO.N,/I2SIN_CTRL_INV*%
X142025241Y-356999346D03*
%TO.P,U3,2,D0*%
%TO.N,/DAC_I2S_MCK_B*%
X142025241Y-358269346D03*
%TO.P,U3,3,D1*%
%TO.N,GND*%
X142025241Y-359539346D03*
%TO.P,U3,4,D2*%
%TO.N,/DAC_I2S_LR_B*%
X142025241Y-360809346D03*
%TO.P,U3,5,D3*%
%TO.N,GND*%
X142025241Y-362079346D03*
%TO.P,U3,6,D4*%
%TO.N,/DAC_I2S_SCK_B*%
X142025241Y-363349346D03*
%TO.P,U3,7,D5*%
%TO.N,GND*%
X142025241Y-364619346D03*
%TO.P,U3,8,D6*%
%TO.N,/DAC_I2S_SD_B*%
X142025241Y-365889346D03*
%TO.P,U3,9,D7*%
%TO.N,GND*%
X142025241Y-367159346D03*
%TO.P,U3,10,GND*%
X142025241Y-368429346D03*
%TO.P,U3,11,Load*%
%TO.N,/PICO_3.3V_OUT*%
X151325241Y-368429346D03*
%TO.P,U3,12,Q7*%
%TO.N,unconnected-(U3-Q7-Pad12)*%
X151325241Y-367159346D03*
%TO.P,U3,13,Q6*%
%TO.N,/DAC_I2S_SD*%
X151325241Y-365889346D03*
%TO.P,U3,14,Q5*%
%TO.N,unconnected-(U3-Q5-Pad14)*%
X151325241Y-364619346D03*
%TO.P,U3,15,Q4*%
%TO.N,/DAC_I2S_SCK*%
X151325241Y-363349346D03*
%TO.P,U3,16,Q3*%
%TO.N,unconnected-(U3-Q3-Pad16)*%
X151325241Y-362079346D03*
%TO.P,U3,17,Q2*%
%TO.N,/DAC_I2S_LR*%
X151325241Y-360809346D03*
%TO.P,U3,18,Q1*%
%TO.N,unconnected-(U3-Q1-Pad18)*%
X151325241Y-359539346D03*
%TO.P,U3,19,Q0*%
%TO.N,/DAC_I2S_MCK*%
X151325241Y-358269346D03*
%TO.P,U3,20,VCC*%
%TO.N,/PICO_3.3V_OUT*%
X151325241Y-356999346D03*
%TD*%
D27*
%TO.P,C23,1*%
%TO.N,GND3*%
X213358699Y-236301286D03*
%TO.P,C23,2*%
%TO.N,Net-(D7-+)*%
X213358699Y-239426286D03*
%TD*%
D33*
%TO.P,C21,1*%
%TO.N,Net-(U14-FBP)*%
X215375218Y-259205418D03*
%TO.P,C21,2*%
%TO.N,+12V*%
X218500218Y-259205418D03*
%TD*%
D42*
%TO.P,J19,1,Pin_1*%
%TO.N,GND3*%
X173767762Y-261620000D03*
D26*
%TO.P,J19,2,Pin_2*%
%TO.N,Net-(J19-Pin_2)*%
X171227762Y-261620000D03*
%TD*%
D35*
%TO.P,Q3,1,C*%
%TO.N,Net-(D2-A)*%
X149343169Y-271818685D03*
D36*
%TO.P,Q3,2,B*%
%TO.N,Net-(Q3-B)*%
X148073169Y-271818685D03*
%TO.P,Q3,3,E*%
%TO.N,GND*%
X146803169Y-271818685D03*
%TD*%
D38*
%TO.P,H4,1,1*%
%TO.N,GND*%
X160123169Y-289793685D03*
D39*
X160123169Y-289793685D03*
%TD*%
D10*
%TO.P,J6,1,Pin_1*%
%TO.N,/psu/220_N*%
X124106733Y-216332500D03*
D11*
%TO.P,J6,2,Pin_2*%
%TO.N,/psu/220_L_SWITCHED*%
X119106733Y-216332500D03*
%TD*%
D64*
%TO.P,L1,1*%
%TO.N,Net-(D7-+)*%
X238484538Y-239952397D03*
%TO.P,L1,2*%
%TO.N,Net-(U7-+VIN(VCC))*%
X238484538Y-246352397D03*
%TD*%
D43*
%TO.P,J1,1,In*%
%TO.N,/DAC_I2S_SD_A*%
X113688525Y-320529366D03*
D44*
%TO.P,J1,2,Ext*%
%TO.N,GND*%
X115163525Y-322029366D03*
D43*
X113688525Y-323529366D03*
D44*
X112213525Y-322029366D03*
%TD*%
D23*
%TO.P,D5,1,-*%
%TO.N,GND*%
X138155200Y-228289600D03*
D24*
%TO.P,D5,2*%
%TO.N,Net-(J17-Pin_1)*%
X133075200Y-228289600D03*
%TO.P,D5,3*%
%TO.N,Net-(J17-Pin_2)*%
X127995200Y-228289600D03*
%TO.P,D5,4,+*%
%TO.N,Net-(D5-+)*%
X122915200Y-228289600D03*
%TD*%
D28*
%TO.P,R10,1*%
%TO.N,/PICO_3.3V_OUT*%
X142288289Y-296915170D03*
%TO.P,R10,2*%
%TO.N,/DAC_I2C_SDA*%
X145388289Y-296915170D03*
%TD*%
D42*
%TO.P,J9,1,Pin_1*%
%TO.N,/DAC_I2S_MCK_A*%
X122953500Y-307467000D03*
D59*
%TO.P,J9,2,Pin_2*%
%TO.N,/DAC_I2S_LR_A*%
X122953500Y-310007000D03*
%TO.P,J9,3,Pin_3*%
%TO.N,/DAC_I2S_SCK_A*%
X122953500Y-312547000D03*
%TO.P,J9,4,Pin_4*%
%TO.N,/DAC_I2S_SD_A*%
X122953500Y-315087000D03*
%TO.P,J9,5,Pin_5*%
%TO.N,GND*%
X122953500Y-317627000D03*
%TO.P,J9,6,Pin_6*%
%TO.N,unconnected-(J9-Pin_6-Pad6)*%
X122953500Y-320167000D03*
%TO.P,J9,7,Pin_7*%
%TO.N,GND*%
X121153500Y-328579000D03*
D42*
%TO.P,J9,8,Pin_8*%
%TO.N,+5VP*%
X121153500Y-331119000D03*
%TD*%
D27*
%TO.P,C4,1*%
%TO.N,GND*%
X159553754Y-342437992D03*
%TO.P,C4,2*%
%TO.N,/AMANERO_3.3V_OUT*%
X159553754Y-345562992D03*
%TD*%
D10*
%TO.P,J5,1,Pin_1*%
%TO.N,/psu/220_N*%
X110788667Y-216332500D03*
D11*
%TO.P,J5,2,Pin_2*%
%TO.N,/psu/220_L_SWITCHED*%
X105788667Y-216332500D03*
%TD*%
D65*
%TO.P,U5,1,VDD1*%
%TO.N,/PICO_3.3V_OUT*%
X161713231Y-320336351D03*
%TO.P,U5,2,SDA1*%
%TO.N,/DAC_I2C_SDA*%
X161713231Y-321606351D03*
%TO.P,U5,3,SCL1*%
%TO.N,/DAC_I2C_SCL*%
X161713231Y-322876351D03*
%TO.P,U5,4,GND1*%
%TO.N,GND*%
X161713231Y-324146351D03*
%TO.P,U5,5,GND2*%
%TO.N,GND3*%
X166663231Y-324146351D03*
%TO.P,U5,6,SCL2*%
%TO.N,/DAC_I2C_SCL_ISO*%
X166663231Y-322876351D03*
%TO.P,U5,7,SDA2*%
%TO.N,/DAC_I2C_SDA_ISO*%
X166663231Y-321606351D03*
%TO.P,U5,8,VDD2*%
%TO.N,/DAC_3.3V_OUT*%
X166663231Y-320336351D03*
%TD*%
D58*
%TO.P,C8,1*%
%TO.N,Net-(D4-A)*%
X156510241Y-247540501D03*
D13*
%TO.P,C8,2*%
%TO.N,GND3*%
X153010241Y-247540501D03*
%TD*%
D10*
%TO.P,J8,1,Pin_1*%
%TO.N,Net-(J8-Pin_1)*%
X230592000Y-216332500D03*
D11*
%TO.P,J8,2,Pin_2*%
%TO.N,Net-(J8-Pin_2)*%
X225592000Y-216332500D03*
%TD*%
D43*
%TO.P,J3,1,In*%
%TO.N,/DAC_I2S_SCK_A*%
X113688525Y-314479366D03*
D44*
%TO.P,J3,2,Ext*%
%TO.N,GND*%
X115163525Y-315979366D03*
D43*
X113688525Y-317479366D03*
D44*
X112213525Y-315979366D03*
%TD*%
D65*
%TO.P,U13,1,VDD1*%
%TO.N,/PICO_3.3V_OUT*%
X161713231Y-325828374D03*
%TO.P,U13,2,SDA1*%
%TO.N,unconnected-(U13-SDA1-Pad2)*%
X161713231Y-327098374D03*
%TO.P,U13,3,SCL1*%
%TO.N,/DAC_PDN_CTRL*%
X161713231Y-328368374D03*
%TO.P,U13,4,GND1*%
%TO.N,GND*%
X161713231Y-329638374D03*
%TO.P,U13,5,GND2*%
%TO.N,GND3*%
X166663231Y-329638374D03*
%TO.P,U13,6,SCL2*%
%TO.N,/DAC_PDN_CTRL_ISO*%
X166663231Y-328368374D03*
%TO.P,U13,7,SDA2*%
%TO.N,unconnected-(U13-SDA2-Pad7)*%
X166663231Y-327098374D03*
%TO.P,U13,8,VDD2*%
%TO.N,/DAC_3.3V_OUT*%
X166663231Y-325828374D03*
%TD*%
D23*
%TO.P,D6,1,-*%
%TO.N,GND3*%
X182700590Y-228289600D03*
D24*
%TO.P,D6,2*%
%TO.N,Net-(J7-Pin_1)*%
X177620590Y-228289600D03*
%TO.P,D6,3*%
%TO.N,Net-(J7-Pin_2)*%
X172540590Y-228289600D03*
%TO.P,D6,4,+*%
%TO.N,Net-(D4-K)*%
X167460590Y-228289600D03*
%TD*%
D66*
%TO.P,C11,1*%
%TO.N,Net-(U12-ADJ)*%
X182898000Y-247541113D03*
D13*
%TO.P,C11,2*%
%TO.N,GND3*%
X182898000Y-245541113D03*
%TD*%
D67*
%TO.N,GND*%
X103190083Y-294789596D03*
X111064083Y-293265596D03*
X92710000Y-299720000D03*
X90490083Y-324253596D03*
X100650083Y-324253596D03*
X102870000Y-249428000D03*
X152273000Y-319913000D03*
X111064083Y-294789596D03*
X161645600Y-329641200D03*
X98364083Y-325777596D03*
X141986000Y-362102400D03*
X106172000Y-247142000D03*
X92710000Y-302768000D03*
X151384000Y-351790000D03*
X100838000Y-301244000D03*
X112141000Y-309880000D03*
X113665000Y-312547000D03*
X105222083Y-293265596D03*
X92522083Y-322729596D03*
X103190083Y-291741596D03*
X141986000Y-335407000D03*
X92710000Y-301244000D03*
X103124000Y-241300000D03*
X137922000Y-250574773D03*
X159562800Y-349453200D03*
X137922000Y-244732773D03*
X141986000Y-332867000D03*
X92522083Y-324253596D03*
X100838000Y-299720000D03*
X113665000Y-318643000D03*
X141986000Y-367157000D03*
X159512000Y-357124000D03*
X92522083Y-325777596D03*
X134620000Y-252860773D03*
X105222083Y-294789596D03*
X141986000Y-359537000D03*
X141986000Y-364617000D03*
X113350083Y-293265596D03*
X98364083Y-324253596D03*
X159512000Y-342392000D03*
X112268000Y-303784000D03*
X98364083Y-322729596D03*
X106172000Y-249428000D03*
X90678000Y-301244000D03*
X113665000Y-324866000D03*
X137922000Y-252860773D03*
X148176849Y-281249584D03*
X112141000Y-322072000D03*
X112014000Y-315976000D03*
X141986000Y-368427000D03*
X158953200Y-316534800D03*
X106172000Y-241300000D03*
X100650083Y-322729596D03*
X98552000Y-302768000D03*
X134874000Y-244732773D03*
X98552000Y-301244000D03*
X113350083Y-291741596D03*
X90678000Y-302768000D03*
X161645600Y-324154800D03*
X103190083Y-293265596D03*
X113350083Y-294789596D03*
X141986000Y-330327000D03*
X90678000Y-299720000D03*
X141986000Y-327787000D03*
X134620000Y-250574773D03*
X90490083Y-325777596D03*
X98552000Y-299720000D03*
X90490083Y-322729596D03*
X105222083Y-291741596D03*
X100650083Y-325777596D03*
X100838000Y-302768000D03*
X141986000Y-336677000D03*
X102870000Y-247142000D03*
X113665000Y-306578000D03*
X111064083Y-291741596D03*
%TO.N,/DAC_PDN_CTRL*%
X156616400Y-302387000D03*
X145317722Y-302405474D03*
%TO.N,/DAC_I2S_SCK*%
X156210000Y-349504000D03*
X156210000Y-354076000D03*
%TO.N,/DAC_I2S_SD*%
X154305000Y-363855000D03*
X155067000Y-349377000D03*
%TO.N,/DAC_I2C_SCL*%
X145391537Y-299685885D03*
X152770663Y-299603337D03*
%TO.N,/DAC_I2S_LR*%
X157480000Y-349504000D03*
X157480000Y-352044000D03*
%TO.N,GND3*%
X209638233Y-237751401D03*
X212598000Y-247497600D03*
X208711800Y-242925600D03*
X215375218Y-262531574D03*
X206984600Y-247599200D03*
X203520211Y-262531574D03*
X169164000Y-357124000D03*
X169418000Y-316534800D03*
X166674800Y-324154800D03*
X217688719Y-236396286D03*
X201773800Y-237033786D03*
X166674800Y-329641200D03*
X169037000Y-349504000D03*
X201638800Y-240643901D03*
X229298563Y-260312203D03*
X213358699Y-236301286D03*
X212446303Y-258455908D03*
X169037000Y-342392000D03*
%TO.N,/MUTEON*%
X129730500Y-330771500D03*
%TO.N,/DSDON*%
X128270000Y-358013000D03*
X128270000Y-330835000D03*
%TO.N,/AMANERO_3.3V_OUT*%
X159571067Y-345613263D03*
%TO.N,/PICO_3.3V_OUT*%
X92964000Y-289687000D03*
%TD*%
D68*
%TO.N,+5V*%
X90536000Y-256413000D02*
X98934651Y-248014349D01*
X84068000Y-269748000D02*
X84068000Y-262881000D01*
X98934651Y-248014349D02*
X98934651Y-244602000D01*
D69*
X158400762Y-274025279D02*
X158324880Y-274025279D01*
X162591762Y-272288000D02*
X161448762Y-272288000D01*
D68*
X84068000Y-262881000D02*
X90536000Y-256413000D01*
D69*
X161448762Y-272288000D02*
X159543762Y-274193000D01*
X159543762Y-274193000D02*
X159376041Y-274025279D01*
X159376041Y-274025279D02*
X158400762Y-274025279D01*
D70*
%TO.N,GND*%
X113688525Y-323529366D02*
X113688525Y-324842475D01*
X113688525Y-323529366D02*
X115255634Y-323529366D01*
X115163525Y-315979366D02*
X115163525Y-317271475D01*
X115163525Y-303879366D02*
X115163525Y-305333475D01*
X115163525Y-317271475D02*
X114808000Y-317627000D01*
X115255634Y-323529366D02*
X115316000Y-323469000D01*
X115163525Y-323316525D02*
X115163525Y-322029366D01*
X98618355Y-259929355D02*
X99822000Y-261133000D01*
X113688525Y-317479366D02*
X113688525Y-318619475D01*
X114660366Y-317479366D02*
X113688525Y-317479366D01*
X113688525Y-311429366D02*
X113688525Y-312523475D01*
X113688525Y-312523475D02*
X113665000Y-312547000D01*
X115163525Y-311175475D02*
X114909634Y-311429366D01*
X98618355Y-256033334D02*
X98618355Y-259929355D01*
X113688525Y-324842475D02*
X113665000Y-324866000D01*
X113688525Y-305379366D02*
X113688525Y-306554475D01*
X115163525Y-309929366D02*
X115163525Y-311175475D01*
X115062000Y-305435000D02*
X115006366Y-305379366D01*
X114808000Y-317627000D02*
X114660366Y-317479366D01*
X113688525Y-318619475D02*
X113665000Y-318643000D01*
D68*
X81603339Y-235309379D02*
X83650600Y-235309379D01*
D70*
X115316000Y-323469000D02*
X115163525Y-323316525D01*
X115163525Y-305333475D02*
X115062000Y-305435000D01*
X114909634Y-311429366D02*
X113688525Y-311429366D01*
X113688525Y-306554475D02*
X113665000Y-306578000D01*
D68*
X83650600Y-235309379D02*
X85535590Y-233424389D01*
D70*
X115006366Y-305379366D02*
X113688525Y-305379366D01*
D71*
%TO.N,Net-(D4-A)*%
X194627500Y-290857584D02*
X194627500Y-296926000D01*
X152654000Y-275082000D02*
X168214000Y-290642000D01*
X168214000Y-290642000D02*
X177800000Y-290642000D01*
X177800000Y-290642000D02*
X177800000Y-296860000D01*
X156510241Y-247540501D02*
X156510241Y-252175759D01*
X211455000Y-290769000D02*
X211455000Y-296926000D01*
X160385742Y-243665000D02*
X174577000Y-243665000D01*
X156510241Y-252175759D02*
X152654000Y-256032000D01*
X194437000Y-290667084D02*
X195580000Y-290673929D01*
X177800000Y-290642000D02*
X190248500Y-290642000D01*
X195580000Y-290673929D02*
X211455000Y-290769000D01*
X190248500Y-290642000D02*
X194437000Y-290667084D01*
X194437000Y-290667084D02*
X194627500Y-290857584D01*
X156510241Y-247540501D02*
X160385742Y-243665000D01*
X152654000Y-256032000D02*
X152654000Y-275082000D01*
D72*
%TO.N,Net-(D7--)*%
X233382000Y-257175000D02*
X235077000Y-257175000D01*
D71*
X230396451Y-250698000D02*
X232248239Y-250698000D01*
X228149724Y-248451273D02*
X230396451Y-250698000D01*
D72*
X244936000Y-263017000D02*
X249936000Y-258017000D01*
X234911089Y-224028000D02*
X217170000Y-224028000D01*
D71*
X233369797Y-257187203D02*
X233382000Y-257175000D01*
X232248239Y-254237527D02*
X229298563Y-257187203D01*
X229298563Y-257187203D02*
X233369797Y-257187203D01*
X228149724Y-248451273D02*
X228149724Y-241104866D01*
D72*
X249936000Y-258017000D02*
X249936000Y-239052911D01*
X249936000Y-239052911D02*
X234911089Y-224028000D01*
D73*
X205028800Y-237033786D02*
X205028800Y-240378901D01*
D72*
X217170000Y-224892586D02*
X212136186Y-229926400D01*
D70*
X208782106Y-244662207D02*
X204763800Y-240643901D01*
X208782106Y-245884253D02*
X208782106Y-244662207D01*
D73*
X205028800Y-240378901D02*
X204763800Y-240643901D01*
D71*
X232248239Y-250698000D02*
X232248239Y-254237527D01*
D72*
X217170000Y-224028000D02*
X217170000Y-224892586D01*
X235077000Y-257175000D02*
X240919000Y-263017000D01*
D68*
X205028800Y-237033786D02*
X212136186Y-229926400D01*
D72*
X240919000Y-263017000D02*
X244936000Y-263017000D01*
D74*
%TO.N,/ROTENC_S2*%
X127980049Y-266480049D02*
X133338598Y-261121500D01*
X114500000Y-272000000D02*
X126000000Y-272000000D01*
X114500000Y-272000000D02*
X114500000Y-269796000D01*
X126000000Y-268460098D02*
X127980049Y-266480049D01*
X126000000Y-272000000D02*
X126000000Y-268460098D01*
%TO.N,/ROTENC_B*%
X127252098Y-269748000D02*
X135878598Y-261121500D01*
%TO.N,/ROTENC_A*%
X129792098Y-269748000D02*
X138418598Y-261121500D01*
%TO.N,/DAC_I2S_LR_B*%
X137300000Y-361987500D02*
X138478154Y-360809346D01*
X138478154Y-360809346D02*
X142025241Y-360809346D01*
%TO.N,/LCD_SPI_TX*%
X119628000Y-263872000D02*
X121250000Y-262250000D01*
X119628000Y-269748000D02*
X119628000Y-263872000D01*
X121250000Y-262250000D02*
X121250000Y-259750000D01*
X121250000Y-259750000D02*
X119997500Y-258497500D01*
D71*
%TO.N,Net-(U7-+VIN(VCC))*%
X238883489Y-250313489D02*
X245745000Y-257175000D01*
X245745000Y-257175000D02*
X246932001Y-257175000D01*
X237105489Y-250313489D02*
X236720978Y-250698000D01*
X238484538Y-250313489D02*
X238883489Y-250313489D01*
X238484538Y-250313489D02*
X238484538Y-246352397D01*
X236720978Y-250698000D02*
X234248239Y-250698000D01*
X238484538Y-250313489D02*
X237105489Y-250313489D01*
D74*
%TO.N,/LCD_SPI_SCK*%
X116000000Y-271250000D02*
X120666000Y-271250000D01*
X115824000Y-262111500D02*
X115824000Y-271074000D01*
X114750000Y-261037500D02*
X115824000Y-262111500D01*
X115824000Y-271074000D02*
X116000000Y-271250000D01*
X120666000Y-271250000D02*
X122168000Y-269748000D01*
D71*
%TO.N,Net-(D4-K)*%
X157426806Y-235729501D02*
X169181501Y-235729501D01*
X169181501Y-235729501D02*
X174577000Y-241125000D01*
X167460590Y-228289600D02*
X160020689Y-235729501D01*
X160020689Y-235729501D02*
X157426806Y-235729501D01*
D74*
%TO.N,/LCD_SPI_RST*%
X117088000Y-269748000D02*
X117088000Y-261239500D01*
D70*
%TO.N,Net-(Q1-B)*%
X101092000Y-256659689D02*
X101092000Y-261133000D01*
D74*
X101092000Y-261133000D02*
X101092000Y-264336366D01*
D75*
X101718355Y-256033334D02*
X101092000Y-256659689D01*
D74*
X101092000Y-264336366D02*
X99841429Y-265586937D01*
%TO.N,Net-(D1-K)*%
X158324880Y-271225279D02*
X158324880Y-269185392D01*
D75*
X158324880Y-269185392D02*
X158385139Y-269125133D01*
D70*
%TO.N,Net-(D2-A)*%
X162591762Y-267208000D02*
X159393006Y-267208000D01*
X159393006Y-267208000D02*
X158385139Y-266200133D01*
%TO.N,/DAC_PDN_CTRL*%
X161713231Y-328368374D02*
X162867626Y-328368374D01*
X90367200Y-286308800D02*
X140538200Y-286308800D01*
X140538200Y-286308800D02*
X156616400Y-302387000D01*
X156616400Y-302387000D02*
X164566600Y-310337200D01*
X164599800Y-326636200D02*
X164599800Y-310431000D01*
X89148000Y-287528000D02*
X90367200Y-286308800D01*
X162867626Y-328368374D02*
X164599800Y-326636200D01*
D74*
%TO.N,/DAC_I2S_SCK*%
X152350240Y-363349346D02*
X156210000Y-359156000D01*
D70*
X156210000Y-334880516D02*
X156210000Y-349504000D01*
D74*
X156210000Y-359156000D02*
X156210000Y-354076000D01*
X150786853Y-363349346D02*
X151325241Y-363349346D01*
X156210000Y-354076000D02*
X156996624Y-353289376D01*
D70*
X151325241Y-331595786D02*
X152925270Y-331595786D01*
X152925270Y-331595786D02*
X156210000Y-334880516D01*
D74*
X151325241Y-363349346D02*
X152350240Y-363349346D01*
X156996624Y-353289376D02*
X159613967Y-353289376D01*
D71*
%TO.N,Net-(D7-+)*%
X238374507Y-237542366D02*
X238484538Y-237652397D01*
D70*
X210282106Y-245884253D02*
X210782106Y-245884253D01*
D71*
X233476800Y-231531200D02*
X229535200Y-227589600D01*
X213583699Y-239651286D02*
X213358699Y-239426286D01*
D70*
X213358699Y-240920301D02*
X213358699Y-239426286D01*
D71*
X228149724Y-237542366D02*
X228149724Y-239104866D01*
D70*
X210782106Y-243496894D02*
X213358699Y-240920301D01*
X210782106Y-245884253D02*
X210782106Y-243496894D01*
D71*
X228149724Y-239104866D02*
X218235139Y-239104866D01*
X218235139Y-239104866D02*
X217688719Y-239651286D01*
X217688719Y-239651286D02*
X213583699Y-239651286D01*
X233476800Y-237542366D02*
X238374507Y-237542366D01*
X233476800Y-237542366D02*
X233476800Y-231531200D01*
X238484538Y-237652397D02*
X238484538Y-239952397D01*
X228149724Y-237542366D02*
X233476800Y-237542366D01*
D74*
%TO.N,/DAC_I2S_SD*%
X157885624Y-354559376D02*
X159701067Y-354559376D01*
D70*
X155067000Y-336852546D02*
X155067000Y-349504000D01*
D74*
X157861000Y-354584000D02*
X157885624Y-354559376D01*
X157861000Y-360299000D02*
X157861000Y-354711000D01*
X151325241Y-365889346D02*
X152350240Y-365889346D01*
D70*
X152350240Y-334135786D02*
X151325241Y-334135786D01*
D74*
X157861000Y-354711000D02*
X157861000Y-354584000D01*
X152350240Y-365809760D02*
X157861000Y-360299000D01*
D70*
X155067000Y-336852546D02*
X152350240Y-334135786D01*
D74*
X152350240Y-365889346D02*
X152350240Y-365809760D01*
D71*
%TO.N,+5VA_DAC_VREFH_5V*%
X206375000Y-300863000D02*
X211235363Y-305723363D01*
X206211163Y-313067600D02*
X211189563Y-308089200D01*
X204243800Y-313067600D02*
X206211163Y-313067600D01*
X211235363Y-305723363D02*
X211235363Y-308103700D01*
X206375000Y-296926000D02*
X206375000Y-300863000D01*
D70*
%TO.N,/DAC_I2C_SDA*%
X127457200Y-289153600D02*
X127248000Y-288944400D01*
X161713231Y-321606351D02*
X162688230Y-321606351D01*
X163557600Y-311461800D02*
X149010970Y-296915170D01*
X149010970Y-296915170D02*
X141249400Y-289153600D01*
X162688230Y-321606351D02*
X163557600Y-320736981D01*
X145388289Y-296915170D02*
X149010970Y-296915170D01*
X163557600Y-320736981D02*
X163557600Y-311461800D01*
X127248000Y-288944400D02*
X127248000Y-287528000D01*
X141249400Y-289153600D02*
X127457200Y-289153600D01*
D74*
%TO.N,/DAC_I2S_MCK*%
X153670000Y-356616000D02*
X153670000Y-351536000D01*
X153670000Y-351536000D02*
X154456624Y-350749376D01*
X154456624Y-350749376D02*
X159701067Y-350749376D01*
X159145798Y-350749376D02*
X159701893Y-350749376D01*
D70*
X161671000Y-335836546D02*
X161671000Y-350647000D01*
D74*
X151512214Y-326515786D02*
X150973826Y-326515786D01*
X152016654Y-358269346D02*
X153670000Y-356616000D01*
D70*
X152350240Y-326515786D02*
X161671000Y-335836546D01*
X161671000Y-350647000D02*
X161568624Y-350749376D01*
X161568624Y-350749376D02*
X159701067Y-350749376D01*
X151325241Y-326515786D02*
X152350240Y-326515786D01*
X151325241Y-358269346D02*
X152016654Y-358269346D01*
%TO.N,/DAC_I2C_SCL*%
X164058600Y-321505981D02*
X162688230Y-322876351D01*
X140695325Y-287528000D02*
X152770663Y-299603337D01*
X164058600Y-310891275D02*
X164058600Y-321505981D01*
X152770663Y-299603337D02*
X164058600Y-310891275D01*
X162688230Y-322876351D02*
X161713231Y-322876351D01*
X129788000Y-287528000D02*
X140695325Y-287528000D01*
D74*
%TO.N,/DAC_I2S_LR*%
X155067000Y-352044000D02*
X155091624Y-352019376D01*
X151512214Y-329055786D02*
X150487215Y-329055786D01*
D70*
X151325241Y-329055786D02*
X152350240Y-329055786D01*
D74*
X155091624Y-352019376D02*
X159701067Y-352019376D01*
D70*
X152350240Y-329055786D02*
X157480000Y-334185546D01*
D74*
X151325241Y-360809346D02*
X152397654Y-360809346D01*
D70*
X157480000Y-343789000D02*
X157480000Y-349631000D01*
D74*
X155067000Y-352298000D02*
X155067000Y-352044000D01*
X152397654Y-360809346D02*
X155067000Y-358140000D01*
X155067000Y-358140000D02*
X155067000Y-352298000D01*
D70*
X157480000Y-334185546D02*
X157480000Y-343789000D01*
D76*
%TO.N,/UART_RX*%
X122168000Y-287528000D02*
X126049000Y-291409000D01*
X126049000Y-291409000D02*
X129524000Y-291409000D01*
X129524000Y-291409000D02*
X130825000Y-292710000D01*
D70*
%TO.N,GND3*%
X212201347Y-247894253D02*
X212598000Y-247497600D01*
X209282106Y-243495906D02*
X208711800Y-242925600D01*
X211412106Y-247394253D02*
X212494653Y-247394253D01*
X207189547Y-247394253D02*
X206984600Y-247599200D01*
X208152106Y-247394253D02*
X207189547Y-247394253D01*
X212494653Y-247394253D02*
X212598000Y-247497600D01*
X208152106Y-247894253D02*
X207279653Y-247894253D01*
X211412106Y-247894253D02*
X212201347Y-247894253D01*
X207279653Y-247894253D02*
X206984600Y-247599200D01*
X209282106Y-245884253D02*
X209282106Y-243495906D01*
D71*
X244074200Y-339623400D02*
X244152200Y-339545400D01*
D70*
%TO.N,Net-(U14-NR{slash}SS)*%
X209782106Y-245884253D02*
X209782106Y-241020274D01*
X209782106Y-241020274D02*
X209638233Y-240876401D01*
D69*
%TO.N,Net-(D8-A)*%
X88138000Y-215900000D02*
X86581027Y-215900000D01*
X88138000Y-228281979D02*
X88138000Y-215900000D01*
X85535590Y-230884389D02*
X88138000Y-228281979D01*
X86581027Y-215900000D02*
X85453527Y-214772500D01*
D74*
%TO.N,/DAC_I2S_MCK_B*%
X137300000Y-359447500D02*
X138478154Y-358269346D01*
X138478154Y-358269346D02*
X142025241Y-358269346D01*
%TO.N,/DAC_I2S_SD_B*%
X137300000Y-367067500D02*
X138478154Y-365889346D01*
X138478154Y-365889346D02*
X142025241Y-365889346D01*
%TO.N,/DAC_I2S_SCK_B*%
X138478154Y-363349346D02*
X142025241Y-363349346D01*
X137300000Y-364527500D02*
X138478154Y-363349346D01*
D69*
%TO.N,Net-(Q3-B)*%
X148176849Y-277165005D02*
X148248169Y-277093685D01*
X148064207Y-271827647D02*
X148073169Y-271818685D01*
X148176849Y-278149584D02*
X148176849Y-277165005D01*
X148248169Y-277093685D02*
X148064207Y-276909723D01*
X148064207Y-275963449D02*
X148064207Y-271827647D01*
X148064207Y-276909723D02*
X148064207Y-275963449D01*
D76*
%TO.N,/LCD_BLK_GND*%
X111760000Y-264287000D02*
X112210000Y-263837000D01*
X106193000Y-261133000D02*
X109347000Y-264287000D01*
X112210000Y-263837000D02*
X112210000Y-261037500D01*
X109347000Y-264287000D02*
X111760000Y-264287000D01*
X102362000Y-261133000D02*
X106193000Y-261133000D01*
D74*
%TO.N,PSU_CTRL*%
X79375000Y-241300000D02*
X79375000Y-290957000D01*
X79375000Y-241300000D02*
X81467190Y-239207810D01*
X81467190Y-239207810D02*
X87024920Y-239207810D01*
X79375000Y-290957000D02*
X80639000Y-290957000D01*
X80639000Y-290957000D02*
X84068000Y-287528000D01*
D72*
%TO.N,/MUT_OUT_R*%
X212424000Y-276352000D02*
X217424000Y-281352000D01*
X242741919Y-359062100D02*
X217424000Y-333744181D01*
X242741919Y-359062100D02*
X242175419Y-358495600D01*
X217424000Y-333744181D02*
X217424000Y-281352000D01*
X176815762Y-276352000D02*
X172751762Y-272288000D01*
X243944000Y-359062100D02*
X242741919Y-359062100D01*
X242175419Y-358495600D02*
X232846800Y-358495600D01*
X212424000Y-276352000D02*
X176815762Y-276352000D01*
D71*
%TO.N,Net-(J19-Pin_2)*%
X170211762Y-262636000D02*
X171227762Y-261620000D01*
X170211762Y-267208000D02*
X170211762Y-262636000D01*
%TO.N,Net-(J20-Pin_2)*%
X170211762Y-277368000D02*
X170719762Y-277876000D01*
X170211762Y-272288000D02*
X170211762Y-277368000D01*
D72*
%TO.N,/MUT_OUT_L*%
X232821400Y-322630800D02*
X229637058Y-322630800D01*
X243637400Y-322630800D02*
X243898200Y-322370000D01*
X215046346Y-273374061D02*
X215046346Y-273380203D01*
X232821400Y-322630800D02*
X243637400Y-322630800D01*
X215046346Y-273380203D02*
X220040200Y-278374057D01*
X178714400Y-273329400D02*
X172751762Y-267208000D01*
X220040200Y-313033942D02*
X220040200Y-278374057D01*
X215046346Y-273374061D02*
X178714400Y-273329400D01*
X229637058Y-322630800D02*
X220040200Y-313033942D01*
D75*
%TO.N,/DAC_3.3V_OUT*%
X169632146Y-332597261D02*
X169560739Y-332597261D01*
D74*
X166663231Y-320336351D02*
X168712089Y-320336351D01*
D75*
X169560739Y-332597261D02*
X168602971Y-333555029D01*
D74*
X169371818Y-319676622D02*
X181867123Y-319676622D01*
X174156900Y-338709000D02*
X178265600Y-338709000D01*
X165150800Y-326136000D02*
X165458426Y-325828374D01*
X173418500Y-341301171D02*
X169106408Y-345613263D01*
X174142400Y-338723500D02*
X174156900Y-338709000D01*
X168712089Y-320336351D02*
X169371818Y-319676622D01*
X173418500Y-338518500D02*
X173623500Y-338723500D01*
X165458426Y-325828374D02*
X166663231Y-325828374D01*
X165150800Y-329996800D02*
X165150800Y-326136000D01*
X165150800Y-326136000D02*
X165150800Y-320873783D01*
D76*
X169106408Y-345613263D02*
X169106408Y-348104861D01*
D74*
X174142400Y-338723500D02*
X175768000Y-338723500D01*
X173418500Y-338518500D02*
X173418500Y-341301171D01*
X168602971Y-333555029D02*
X165150800Y-329996800D01*
X165150800Y-320873783D02*
X165688232Y-320336351D01*
X173623500Y-338723500D02*
X174142400Y-338723500D01*
X165688232Y-320336351D02*
X166663231Y-320336351D01*
X169106408Y-348104861D02*
X169001893Y-348209376D01*
X173418500Y-338518500D02*
X168602971Y-333555029D01*
X181867123Y-319676622D02*
X182288419Y-320097918D01*
%TO.N,/DAC_I2S_SCK_A*%
X127405051Y-313206051D02*
X127405051Y-319214109D01*
X126744786Y-312545786D02*
X127405051Y-313206051D01*
X127405051Y-319214109D02*
X139786728Y-331595786D01*
X121021134Y-314479366D02*
X122953500Y-312547000D01*
X122954714Y-312545786D02*
X122953500Y-312547000D01*
X139786728Y-331595786D02*
X142212214Y-331595786D01*
X126744786Y-312545786D02*
X122954714Y-312545786D01*
X113688525Y-314479366D02*
X121021134Y-314479366D01*
D76*
%TO.N,/UART_TX*%
X124810000Y-292710000D02*
X128285000Y-292710000D01*
X119628000Y-287528000D02*
X124810000Y-292710000D01*
D74*
%TO.N,/DAC_I2S_SD_A*%
X141476786Y-334135786D02*
X142212214Y-334135786D01*
X122953500Y-315087000D02*
X126804051Y-315087000D01*
X122953500Y-315582409D02*
X122953500Y-315087000D01*
X117511134Y-320529366D02*
X122953500Y-315087000D01*
X126804051Y-319463051D02*
X141476786Y-334135786D01*
X142211000Y-334137000D02*
X142212214Y-334135786D01*
X126804051Y-315087000D02*
X126804051Y-319463051D01*
X113688525Y-320529366D02*
X117511134Y-320529366D01*
%TO.N,/DAC_I2S_LR_A*%
X126492000Y-310005786D02*
X122954714Y-310005786D01*
X128143000Y-311656786D02*
X128143000Y-319102116D01*
X126492000Y-310005786D02*
X128143000Y-311656786D01*
X138096670Y-329055786D02*
X142212214Y-329055786D01*
X122954714Y-310005786D02*
X122953500Y-310007000D01*
D77*
X113888891Y-308229000D02*
X113688525Y-308429366D01*
D74*
X128143000Y-319102116D02*
X138096670Y-329055786D01*
X113688525Y-308429366D02*
X121375866Y-308429366D01*
X121375866Y-308429366D02*
X122953500Y-310007000D01*
%TO.N,/LCD_LIGHT_CTRL*%
X105306937Y-265586937D02*
X109468000Y-269748000D01*
X102941429Y-265586937D02*
X105306937Y-265586937D01*
D76*
%TO.N,/MUTEON*%
X134760000Y-372107500D02*
X133347500Y-372107500D01*
X117119500Y-287559500D02*
X117088000Y-287528000D01*
X129794000Y-368554000D02*
X129794000Y-330835000D01*
X133347500Y-372107500D02*
X129794000Y-368554000D01*
%TO.N,/DSDON*%
X128270000Y-358013000D02*
X128270000Y-330835000D01*
D69*
%TO.N,Net-(Q4-B)*%
X81603339Y-232209379D02*
X85480600Y-232209379D01*
X87024920Y-236107810D02*
X87024920Y-232743719D01*
X85480600Y-232209379D02*
X85535590Y-232154389D01*
X86435590Y-232154389D02*
X85535590Y-232154389D01*
X87024920Y-232743719D02*
X86435590Y-232154389D01*
D70*
%TO.N,unconnected-(U2-Q3-Pad16)*%
X151640428Y-330454000D02*
X151512214Y-330325786D01*
D74*
%TO.N,/DAC_I2S_MCK_A*%
X116984500Y-301498000D02*
X122953500Y-307467000D01*
X113799634Y-302379366D02*
X114681000Y-301498000D01*
X136652000Y-326517000D02*
X136906000Y-326517000D01*
X128778000Y-318643000D02*
X136652000Y-326517000D01*
X142211000Y-326517000D02*
X142212214Y-326515786D01*
X126619000Y-307467000D02*
X122953500Y-307467000D01*
D76*
X113688525Y-302379366D02*
X113799634Y-302379366D01*
D74*
X128778000Y-309626000D02*
X128778000Y-318643000D01*
X126619000Y-307467000D02*
X128778000Y-309626000D01*
X136906000Y-326517000D02*
X136907214Y-326515786D01*
X136907214Y-326515786D02*
X142212214Y-326515786D01*
X114681000Y-301498000D02*
X116984500Y-301498000D01*
%TO.N,/I2SIN_CTRL*%
X143041949Y-319045000D02*
X143041949Y-324416051D01*
X143041949Y-324416051D02*
X142212214Y-325245786D01*
D76*
%TO.N,/AMUTE_CTRL*%
X85725000Y-283337000D02*
X144023169Y-283318685D01*
X144023169Y-283318685D02*
X144964207Y-282377647D01*
X81528000Y-287528000D02*
X85725000Y-283331000D01*
X144964207Y-282377647D02*
X144964207Y-275963449D01*
X85725000Y-283331000D02*
X85725000Y-283337000D01*
D70*
%TO.N,unconnected-(U2-Q7-Pad12)*%
X151638000Y-335280000D02*
X151512214Y-335405786D01*
%TO.N,/DAC_I2S_SCK_ISO*%
X169646191Y-353847400D02*
X169088167Y-353289376D01*
X179832000Y-347649800D02*
X179832000Y-352298000D01*
X178179200Y-353847400D02*
X169646191Y-353847400D01*
X179832000Y-352298000D02*
X178737224Y-353289376D01*
X178737224Y-353289376D02*
X178179200Y-353847400D01*
X175725600Y-346329000D02*
X177139600Y-347624400D01*
X177139600Y-347624400D02*
X179832000Y-347649800D01*
D74*
%TO.N,/DAC_I2S_SD_ISO*%
X180594000Y-352806000D02*
X180594000Y-345694000D01*
X169001893Y-354559376D02*
X178524066Y-354559376D01*
X177014600Y-345078000D02*
X175725600Y-343789000D01*
X179798000Y-345078000D02*
X177014600Y-345078000D01*
X180594000Y-345694000D02*
X179798000Y-345078000D01*
X178524066Y-354559376D02*
X180594000Y-352806000D01*
%TO.N,/DAC_I2C_SDA_ISO*%
X175186031Y-323178289D02*
X173391711Y-323178289D01*
X166663231Y-321606351D02*
X168782951Y-321606351D01*
X171873300Y-324696700D02*
X175725600Y-328549000D01*
X173391711Y-323178289D02*
X171873300Y-324696700D01*
X168782951Y-321606351D02*
X171873300Y-324696700D01*
D70*
%TO.N,/DAC_I2S_MCK_ISO*%
X169088167Y-350749376D02*
X175065976Y-350749376D01*
X175065976Y-350749376D02*
X175725600Y-351409000D01*
%TO.N,/DAC_I2C_SCL_ISO*%
X177064600Y-324762844D02*
X177064600Y-329750000D01*
D75*
X166663231Y-322876351D02*
X167512951Y-322876351D01*
D70*
X178614716Y-323212728D02*
X177064600Y-324762844D01*
D74*
X167512951Y-322876351D02*
X175725600Y-331089000D01*
D70*
X177064600Y-329750000D02*
X175725600Y-331089000D01*
%TO.N,/DAC_I2S_LR_ISO*%
X176961800Y-350215200D02*
X175725600Y-348869000D01*
X175684800Y-353346400D02*
X173768400Y-353346400D01*
X176961800Y-352069400D02*
X175684800Y-353346400D01*
D75*
X169088167Y-352019376D02*
X169112791Y-352044000D01*
D70*
X173768400Y-353346400D02*
X172466000Y-352044000D01*
X176961800Y-352069400D02*
X176961800Y-350215200D01*
D77*
X175768000Y-348883500D02*
X175499500Y-348883500D01*
D70*
X169112791Y-352044000D02*
X172466000Y-352044000D01*
%TO.N,unconnected-(U2-Q5-Pad14)*%
X151513428Y-332867000D02*
X151512214Y-332865786D01*
%TO.N,/AMANERO_3.3V_OUT*%
X159613967Y-348209376D02*
X159613967Y-345656163D01*
X159613967Y-345656163D02*
X159571067Y-345613263D01*
X159571067Y-348166476D02*
X159613967Y-348209376D01*
D71*
%TO.N,-12V*%
X241096800Y-330250800D02*
X234315000Y-330250800D01*
X204165200Y-266301563D02*
X200395211Y-262531574D01*
X231343200Y-272415000D02*
X225348800Y-266420600D01*
X229920800Y-341299800D02*
X230784400Y-342163400D01*
D73*
X200377711Y-262514074D02*
X200395211Y-262531574D01*
D71*
X225348800Y-266420600D02*
X204165200Y-266420600D01*
X246430800Y-325551800D02*
X241096800Y-330250800D01*
X233382000Y-272415000D02*
X231343200Y-272415000D01*
D70*
X206559366Y-249404253D02*
X200377711Y-255585908D01*
D71*
X229920800Y-334645000D02*
X229920800Y-341299800D01*
D73*
X200377711Y-255585908D02*
X200377711Y-262514074D01*
D71*
X233382000Y-272415000D02*
X246430800Y-285463800D01*
X246430800Y-285463800D02*
X246430800Y-325551800D01*
X232821400Y-342163400D02*
X244074200Y-342163400D01*
X234315000Y-330250800D02*
X229920800Y-334645000D01*
X204165200Y-266420600D02*
X204165200Y-266301563D01*
D70*
X208782106Y-249404253D02*
X206559366Y-249404253D01*
D71*
X230784400Y-342163400D02*
X232821400Y-342163400D01*
X244074200Y-342163400D02*
X244152200Y-342085400D01*
%TO.N,+12V*%
X249478800Y-325399400D02*
X249478800Y-280523200D01*
D70*
X210782106Y-249404253D02*
X212336063Y-249404253D01*
D71*
X218500218Y-262531574D02*
X237048575Y-262531574D01*
D73*
X218517718Y-255585908D02*
X218517718Y-262514074D01*
D71*
X244152200Y-330726000D02*
X249478800Y-325399400D01*
D73*
X218517718Y-262514074D02*
X218500218Y-262531574D01*
D71*
X232899400Y-337005400D02*
X232821400Y-337083400D01*
X244152200Y-337005400D02*
X244152200Y-330726000D01*
X237048575Y-262531574D02*
X246932001Y-272415000D01*
D70*
X212336063Y-249404253D02*
X218517718Y-255585908D01*
D71*
X246932001Y-277976401D02*
X246932001Y-272415000D01*
D75*
X243982100Y-336804000D02*
X244198000Y-337019900D01*
D71*
X249478800Y-280523200D02*
X246932001Y-277976401D01*
X244152200Y-337005400D02*
X232899400Y-337005400D01*
%TO.N,+3.3VA DAC_TVDD_3v3*%
X182201199Y-308089200D02*
X182556800Y-313067600D01*
X172720000Y-298576701D02*
X182246999Y-308103700D01*
X172720000Y-296860000D02*
X172720000Y-298576701D01*
%TO.N,+5VP*%
X79246027Y-226060000D02*
X80373527Y-224932500D01*
X77216000Y-325501000D02*
X77216000Y-226060000D01*
X83566000Y-331851000D02*
X77216000Y-325501000D01*
X86487000Y-331851000D02*
X120421500Y-331851000D01*
X77216000Y-226060000D02*
X79246027Y-226060000D01*
X86487000Y-346219500D02*
X87325000Y-347057500D01*
X86487000Y-331851000D02*
X86487000Y-346219500D01*
X86487000Y-331851000D02*
X83566000Y-331851000D01*
X120421500Y-331851000D02*
X121153500Y-331119000D01*
D76*
%TO.N,/PICO_3.3V_OUT*%
X150217205Y-323151256D02*
X152239469Y-323151256D01*
D74*
X158941164Y-319676622D02*
X161053502Y-319676622D01*
X151419852Y-355854000D02*
X151419852Y-356904735D01*
D70*
X151325241Y-325245786D02*
X150300242Y-325245786D01*
X150657852Y-355092000D02*
X151419852Y-355854000D01*
D74*
X149479000Y-357820588D02*
X149479000Y-368173000D01*
X149479000Y-368173000D02*
X149735346Y-368429346D01*
X148844000Y-336550000D02*
X148844000Y-355092000D01*
X161713231Y-325828374D02*
X160321974Y-325828374D01*
X158941164Y-319676622D02*
X155714103Y-319676622D01*
X151419852Y-354980951D02*
X151419852Y-355854000D01*
X155714103Y-319676622D02*
X152239469Y-323151256D01*
D76*
X131914979Y-297123048D02*
X100400048Y-297123048D01*
D74*
X148844000Y-355092000D02*
X150657852Y-355092000D01*
D70*
X142288289Y-302334907D02*
X142217722Y-302405474D01*
D76*
X131914979Y-297123048D02*
X147321928Y-312529997D01*
X100400048Y-297123048D02*
X92964000Y-289687000D01*
D74*
X158941164Y-319676622D02*
X158941164Y-324447564D01*
X150300242Y-325245786D02*
X148844000Y-326702028D01*
X149735346Y-368429346D02*
X151325241Y-368429346D01*
D76*
X131914979Y-297123048D02*
X133793806Y-297123048D01*
D74*
X161053502Y-319676622D02*
X161713231Y-320336351D01*
D70*
X142288289Y-296915170D02*
X142288289Y-302334907D01*
D76*
X152239469Y-324518531D02*
X151512214Y-325245786D01*
X134001684Y-296915170D02*
X142288289Y-296915170D01*
D70*
X148969786Y-336675786D02*
X148844000Y-336550000D01*
D76*
X147321928Y-316173048D02*
X149899949Y-318751069D01*
X149899949Y-318751069D02*
X149899949Y-322834000D01*
D74*
X160321974Y-325828374D02*
X158941164Y-324447564D01*
X148844000Y-326702028D02*
X148844000Y-336550000D01*
D76*
X147321928Y-312529997D02*
X147321928Y-316173048D01*
D70*
X151419852Y-356904735D02*
X151325241Y-356999346D01*
D74*
X150300242Y-356999346D02*
X149479000Y-357820588D01*
D76*
X152239469Y-323151256D02*
X152239469Y-324518531D01*
D70*
X151325241Y-336675786D02*
X148969786Y-336675786D01*
X151325241Y-356999346D02*
X150300242Y-356999346D01*
D76*
X133793806Y-297123048D02*
X134001684Y-296915170D01*
X149899949Y-322834000D02*
X150217205Y-323151256D01*
D71*
%TO.N,+3.3VA DAC_AVDD_3v3*%
X189547500Y-296926000D02*
X189547500Y-297346800D01*
X189547500Y-297346800D02*
X200304400Y-308103700D01*
X200258600Y-308089200D02*
X195280200Y-313067600D01*
X195280200Y-313067600D02*
X192696000Y-313067600D01*
D74*
%TO.N,/I2SIN_CTRL_INV*%
X147321928Y-319273048D02*
X144539997Y-319273048D01*
D77*
X144539997Y-319273048D02*
X144311949Y-319045000D01*
D74*
X147321928Y-319273048D02*
X147321928Y-351702659D01*
X147321928Y-351702659D02*
X142025241Y-356999346D01*
%TO.N,/DAC_PDN_CTRL_ISO*%
X172777200Y-332340000D02*
X176976600Y-332340000D01*
X169632146Y-329194946D02*
X172777200Y-332340000D01*
X166663231Y-328368374D02*
X168805574Y-328368374D01*
D70*
X182288419Y-323197918D02*
X182288419Y-329606181D01*
D74*
X168805574Y-328368374D02*
X169632146Y-329194946D01*
X169632146Y-331297261D02*
X169632146Y-329194946D01*
D70*
X182288419Y-329606181D02*
X178265600Y-333629000D01*
D74*
X176976600Y-332340000D02*
X178265600Y-333629000D01*
D70*
%TO.N,Net-(U14-FBP)*%
X210282106Y-249880706D02*
X212446303Y-252044903D01*
X212446303Y-252044903D02*
X212446303Y-255355908D01*
X210282106Y-249404253D02*
X210282106Y-249880706D01*
D73*
X215417718Y-255585908D02*
X212676303Y-255585908D01*
X215375218Y-259205418D02*
X215375218Y-255628408D01*
X215375218Y-255628408D02*
X215417718Y-255585908D01*
X212676303Y-255585908D02*
X212446303Y-255355908D01*
D70*
%TO.N,Net-(U14-FBN)*%
X206129265Y-253407535D02*
X206129265Y-255585908D01*
D73*
X203477711Y-255585908D02*
X203477711Y-259162918D01*
X203477711Y-259162918D02*
X203520211Y-259205418D01*
D70*
X209282106Y-249119253D02*
X209282106Y-250254694D01*
D73*
X206129265Y-255585908D02*
X203477711Y-255585908D01*
D70*
X209282106Y-250254694D02*
X206129265Y-253407535D01*
%TO.N,Net-(U14-BUF)*%
X209782106Y-249404253D02*
X209782106Y-251869906D01*
X209229265Y-252422747D02*
X209229265Y-255585908D01*
X209782106Y-251869906D02*
X209229265Y-252422747D01*
%TD*%
%TA.AperFunction,Conductor*%
%TO.N,GND*%
G36*
X114496631Y-289833908D02*
G01*
X114542592Y-289886533D01*
X114554000Y-289938485D01*
X114554000Y-296040000D01*
X114534315Y-296107039D01*
X114481511Y-296152794D01*
X114430000Y-296164000D01*
X101673200Y-296164000D01*
X101606161Y-296144315D01*
X101560406Y-296091511D01*
X101549200Y-296040000D01*
X101549200Y-289988316D01*
X101568885Y-289921277D01*
X101621689Y-289875522D01*
X101672713Y-289864317D01*
X114429516Y-289814486D01*
X114496631Y-289833908D01*
G37*
%TD.AperFunction*%
%TD*%
%TA.AperFunction,Conductor*%
%TO.N,GND*%
G36*
X107639039Y-240122112D02*
G01*
X107684794Y-240174916D01*
X107696000Y-240226427D01*
X107696000Y-250697227D01*
X107676315Y-250764266D01*
X107623511Y-250810021D01*
X107572000Y-250821227D01*
X101520214Y-250821227D01*
X101453175Y-250801542D01*
X101407420Y-250748738D01*
X101396215Y-250697815D01*
X101346590Y-240227015D01*
X101365957Y-240159883D01*
X101418544Y-240113878D01*
X101470589Y-240102427D01*
X107572000Y-240102427D01*
X107639039Y-240122112D01*
G37*
%TD.AperFunction*%
%TD*%
%TA.AperFunction,Conductor*%
%TO.N,GND*%
G36*
X139389039Y-243554885D02*
G01*
X139434794Y-243607689D01*
X139446000Y-243659200D01*
X139446000Y-254130000D01*
X139426315Y-254197039D01*
X139373511Y-254242794D01*
X139322000Y-254254000D01*
X133270214Y-254254000D01*
X133203175Y-254234315D01*
X133157420Y-254181511D01*
X133146215Y-254130588D01*
X133096590Y-243659788D01*
X133115957Y-243592656D01*
X133168544Y-243546651D01*
X133220589Y-243535200D01*
X139322000Y-243535200D01*
X139389039Y-243554885D01*
G37*
%TD.AperFunction*%
%TD*%
%TA.AperFunction,Conductor*%
%TO.N,GND*%
G36*
X101796631Y-320821908D02*
G01*
X101842592Y-320874533D01*
X101854000Y-320926485D01*
X101854000Y-327028000D01*
X101834315Y-327095039D01*
X101781511Y-327140794D01*
X101730000Y-327152000D01*
X88973200Y-327152000D01*
X88906161Y-327132315D01*
X88860406Y-327079511D01*
X88849200Y-327028000D01*
X88849200Y-320976316D01*
X88868885Y-320909277D01*
X88921689Y-320863522D01*
X88972713Y-320852317D01*
X101729516Y-320802486D01*
X101796631Y-320821908D01*
G37*
%TD.AperFunction*%
%TD*%
%TA.AperFunction,Conductor*%
%TO.N,GND*%
G36*
X100096448Y-297809627D02*
G01*
X100181135Y-297844706D01*
X100181139Y-297844706D01*
X100181140Y-297844707D01*
X100326127Y-297873548D01*
X101917917Y-297873548D01*
X101984956Y-297893233D01*
X102030711Y-297946037D01*
X102041917Y-297997548D01*
X102041917Y-304018404D01*
X102022232Y-304085443D01*
X101969428Y-304131198D01*
X101917917Y-304142404D01*
X89161117Y-304142404D01*
X89094078Y-304122719D01*
X89048323Y-304069915D01*
X89037117Y-304018404D01*
X89037117Y-297966720D01*
X89056802Y-297899681D01*
X89109606Y-297853926D01*
X89160630Y-297842721D01*
X100048516Y-297800190D01*
X100096448Y-297809627D01*
G37*
%TD.AperFunction*%
%TD*%
M02*
