%TF.GenerationSoftware,KiCad,Pcbnew,9.0.7-9.0.7~ubuntu24.04.1*%
%TF.CreationDate,2026-01-08T19:40:23+01:00*%
%TF.ProjectId,control_board,636f6e74-726f-46c5-9f62-6f6172642e6b,rev?*%
%TF.SameCoordinates,Original*%
%TF.FileFunction,Other,User*%
%FSLAX46Y46*%
G04 Gerber Fmt 4.6, Leading zero omitted, Abs format (unit mm)*
G04 Created by KiCad (PCBNEW 9.0.7-9.0.7~ubuntu24.04.1) date 2026-01-08 19:40:23*
%MOMM*%
%LPD*%
G01*
G04 APERTURE LIST*
%ADD10C,0.050000*%
G04 APERTURE END LIST*
D10*
%TO.C,D4*%
X176447724Y-238367212D02*
X176447724Y-243967212D01*
X176447724Y-238367212D02*
X178447724Y-238367212D01*
X178447724Y-243967212D02*
X176447724Y-243967212D01*
X178447724Y-243967212D02*
X178447724Y-238367212D01*
%TO.C,R8*%
X178984833Y-244245293D02*
X178984833Y-249145293D01*
X178984833Y-249145293D02*
X181244833Y-249145293D01*
X181244833Y-244245293D02*
X178984833Y-244245293D01*
X181244833Y-249145293D02*
X181244833Y-244245293D01*
%TO.C,D3*%
X124683912Y-246859582D02*
X124683912Y-244859582D01*
X124683912Y-246859582D02*
X130283912Y-246859582D01*
X130283912Y-244859582D02*
X124683912Y-244859582D01*
X130283912Y-244859582D02*
X130283912Y-246859582D01*
%TO.C,R7*%
X119504894Y-247360230D02*
X119504894Y-249620230D01*
X119504894Y-249620230D02*
X124404894Y-249620230D01*
X124404894Y-247360230D02*
X119504894Y-247360230D01*
X124404894Y-249620230D02*
X124404894Y-247360230D01*
%TO.C,R6*%
X176468915Y-244245293D02*
X176468915Y-249145293D01*
X176468915Y-249145293D02*
X178728915Y-249145293D01*
X178728915Y-244245293D02*
X176468915Y-244245293D01*
X178728915Y-249145293D02*
X178728915Y-244245293D01*
%TO.C,D8*%
X79732031Y-217606675D02*
X79732031Y-215606675D01*
X79732031Y-217606675D02*
X85332031Y-217606675D01*
X85332031Y-215606675D02*
X79732031Y-215606675D01*
X85332031Y-215606675D02*
X85332031Y-217606675D01*
%TO.C,R5*%
X119504894Y-244785303D02*
X119504894Y-247045303D01*
X119504894Y-247045303D02*
X124404894Y-247045303D01*
X124404894Y-244785303D02*
X119504894Y-244785303D01*
X124404894Y-247045303D02*
X124404894Y-244785303D01*
%TO.C,JP4*%
X219238778Y-224339479D02*
X219238778Y-221819479D01*
X219238778Y-224339479D02*
X225218778Y-224339479D01*
X225218778Y-221819479D02*
X219238778Y-221819479D01*
X225218778Y-221819479D02*
X225218778Y-224339479D01*
%TO.C,D2*%
X160092881Y-266995036D02*
X160092881Y-272595036D01*
X160092881Y-266995036D02*
X162092881Y-266995036D01*
X162092881Y-272595036D02*
X160092881Y-272595036D01*
X162092881Y-272595036D02*
X162092881Y-266995036D01*
%TD*%
M02*
